<?xml version="1.0" standalone="no"?>
<!DOCTYPE svg PUBLIC "-//W3C//DTD SVG 20010904//EN"
 "http://www.w3.org/TR/2001/REC-SVG-20010904/DTD/svg10.dtd">
<svg version="1.0" xmlns="http://www.w3.org/2000/svg"
 width="300.000000pt" height="168.000000pt" viewBox="0 0 300.000000 168.000000"
 preserveAspectRatio="xMidYMid meet">
<metadata>
Created by potrace 1.15, written by Peter Selinger 2001-2017
</metadata>
<g transform="translate(0.000000,168.000000) scale(0.100000,-0.100000)"
fill="#000000" stroke="none">
<path d="M490 1160 c-8 -5 -27 -10 -42 -10 -21 0 -28 -5 -28 -20 0 -15 7 -20
25 -20 l25 0 0 -264 c0 -176 4 -267 11 -271 5 -4 18 0 28 9 15 14 19 14 39 0
36 -25 122 -30 166 -9 85 41 130 114 129 211 -1 76 -33 140 -88 173 -44 25
-140 29 -171 6 -10 -8 -22 -15 -26 -15 -5 0 -8 50 -8 110 0 107 -1 110 -22
110 -13 0 -30 -5 -38 -10z m214 -249 c30 -26 46 -76 46 -146 0 -115 -54 -176
-142 -158 -46 9 -58 45 -58 176 0 109 1 116 23 130 45 29 95 29 131 -2z"/>
<path d="M1024 963 c-68 -33 -80 -118 -16 -111 22 2 28 9 30 33 5 44 19 55 67
55 53 0 67 -16 73 -84 l4 -53 -50 -7 c-134 -18 -215 -96 -183 -175 26 -62 128
-81 194 -37 35 24 36 24 42 5 6 -17 14 -20 63 -17 44 2 58 7 60 20 2 12 -5 18
-24 20 l-27 3 -1 140 c-1 147 -8 173 -50 207 -27 23 -138 23 -182 1z m156
-251 c0 -54 -15 -74 -69 -93 -47 -16 -81 3 -81 46 0 50 57 91 128 94 20 1 22
-4 22 -47z"/>
<path d="M1460 963 c-40 -28 -49 -45 -50 -96 0 -41 5 -53 29 -76 16 -15 57
-38 91 -52 76 -30 105 -58 96 -94 -8 -31 -48 -49 -95 -41 -41 6 -68 30 -86 73
-22 53 -35 40 -35 -36 0 -71 13 -98 34 -69 9 12 16 13 41 2 66 -29 167 -9 200
40 8 11 15 40 15 64 0 38 -5 49 -34 76 -19 17 -61 42 -93 54 -72 29 -93 48
-93 82 0 37 17 50 65 50 47 0 79 -26 90 -73 17 -67 45 -39 45 46 0 62 -16 81
-46 57 -11 -10 -18 -10 -26 -2 -19 19 -119 15 -148 -5z"/>
<path d="M1880 970 c-8 -5 -30 -10 -47 -10 -26 0 -33 -4 -33 -19 0 -14 8 -21
28 -23 15 -2 27 -9 26 -15 -1 -7 -2 -72 -2 -143 -2 -117 -4 -132 -22 -147 -40
-35 -26 -44 63 -41 65 2 82 6 82 18 0 8 -10 16 -22 18 -23 3 -23 4 -23 188 0
169 -1 184 -17 184 -10 0 -25 -5 -33 -10z"/>
<path d="M2191 965 c-74 -41 -121 -118 -121 -200 0 -116 87 -205 198 -205 48
0 135 42 152 75 16 30 6 44 -18 27 -56 -41 -81 -52 -114 -52 -31 0 -45 7 -76
38 -68 68 -70 201 -6 266 22 21 36 26 75 26 55 0 79 -17 72 -53 -10 -49 60
-62 73 -12 8 31 -10 62 -49 85 -38 24 -147 26 -186 5z"/>
</g>
</svg>
