<?xml version="1.0" standalone="no"?>
<!DOCTYPE svg PUBLIC "-//W3C//DTD SVG 20010904//EN"
 "http://www.w3.org/TR/2001/REC-SVG-20010904/DTD/svg10.dtd">
<svg version="1.0" xmlns="http://www.w3.org/2000/svg"
 width="284.000000pt" height="178.000000pt" viewBox="0 0 284.000000 178.000000"
 preserveAspectRatio="xMidYMid meet">
<metadata>
Created by potrace 1.15, written by Peter Selinger 2001-2017
</metadata>
<g transform="translate(0.000000,178.000000) scale(0.100000,-0.100000)"
fill="#000000" stroke="none">
<path d="M1158 1511 l-33 -29 -3 -136 -4 -135 -87 -51 c-82 -46 -93 -50 -154
-50 -58 0 -75 -5 -144 -42 -43 -23 -116 -61 -163 -84 -47 -23 -94 -51 -104
-63 -16 -18 -30 -21 -95 -21 -90 0 -136 -11 -168 -42 l-23 -21 0 -266 c1 -281
0 -280 50 -314 22 -16 85 -17 795 -17 657 0 774 2 795 15 64 38 108 54 129 48
37 -10 67 15 136 113 71 99 133 162 186 189 57 29 99 65 99 85 0 13 -12 25
-37 35 l-37 16 68 68 68 68 71 6 c64 4 74 8 99 36 l28 31 0 261 c0 159 -4 268
-10 280 -27 49 -20 49 -749 49 l-681 0 -32 -29z m1007 -81 c39 -6 85 -15 103
-21 31 -10 32 -13 26 -47 -10 -55 -43 -127 -69 -152 -24 -23 -112 -44 -286
-70 -89 -13 -228 -10 -394 10 -64 7 -113 7 -169 -1 -82 -11 -126 -7 -126 13 0
6 53 64 118 129 133 132 138 134 300 149 112 10 395 4 497 -10z m-883 -199
c-92 -85 -60 -119 95 -100 61 8 111 7 181 -1 178 -22 292 -23 407 -5 241 38
272 49 308 118 l19 37 90 0 89 0 -101 -84 -101 -83 -92 -6 c-51 -3 -148 -15
-216 -27 -160 -27 -215 -28 -396 -6 -82 10 -246 23 -363 29 l-214 12 144 82
c90 52 154 83 173 83 l30 0 -53 -49z m1118 -356 l-100 -100 -1 153 c-1 83 -2
156 -3 160 -1 5 44 47 99 94 l100 85 3 -146 3 -145 -101 -101z"/>
</g>
</svg>
