<?xml version="1.0" standalone="no"?>
<!DOCTYPE svg PUBLIC "-//W3C//DTD SVG 20010904//EN"
 "http://www.w3.org/TR/2001/REC-SVG-20010904/DTD/svg10.dtd">
<svg version="1.0" xmlns="http://www.w3.org/2000/svg"
 width="300.000000pt" height="168.000000pt" viewBox="0 0 300.000000 168.000000"
 preserveAspectRatio="xMidYMid meet">
<metadata>
Created by potrace 1.15, written by Peter Selinger 2001-2017
</metadata>
<g transform="translate(0.000000,168.000000) scale(0.100000,-0.100000)"
fill="#000000" stroke="none">
<path d="M1422 1569 c-173 -26 -314 -98 -437 -223 -190 -194 -260 -430 -205
-694 69 -336 357 -582 703 -599 234 -12 417 56 582 216 299 288 307 758 21
1070 -156 168 -435 265 -664 230z m315 -112 c184 -63 314 -174 396 -337 61
-122 81 -212 74 -345 -12 -257 -170 -485 -406 -584 -111 -47 -152 -55 -276
-54 -100 0 -133 4 -197 25 -238 78 -399 250 -463 494 -19 75 -19 230 0 314 44
188 180 358 355 444 125 61 196 77 335 72 84 -3 127 -10 182 -29z"/>
<path d="M1865 1012 c-110 -54 -236 -115 -281 -136 l-80 -37 -89 -180 c-73
-145 -88 -183 -79 -197 28 -43 47 -21 135 152 l86 170 280 136 c262 128 304
154 287 181 -13 22 -73 2 -259 -89z"/>
</g>
</svg>
