<?xml version="1.0" standalone="no"?>
<!DOCTYPE svg PUBLIC "-//W3C//DTD SVG 20010904//EN"
 "http://www.w3.org/TR/2001/REC-SVG-20010904/DTD/svg10.dtd">
<svg version="1.0" xmlns="http://www.w3.org/2000/svg"
 width="256.000000pt" height="197.000000pt" viewBox="0 0 256.000000 197.000000"
 preserveAspectRatio="xMidYMid meet">
<metadata>
Created by potrace 1.15, written by Peter Selinger 2001-2017
</metadata>
<g transform="translate(0.000000,197.000000) scale(0.100000,-0.100000)"
fill="#000000" stroke="none">
<path d="M895 1806 l-130 -31 -373 -465 c-204 -256 -370 -470 -368 -476 8 -21
137 -184 146 -184 4 0 138 133 296 296 234 240 290 292 295 277 22 -56 4 -363
-42 -698 -11 -84 -19 -187 -17 -235 l3 -85 95 -22 c176 -42 316 -56 535 -50
117 3 235 12 285 21 134 25 224 48 236 60 15 15 2 184 -31 426 -28 205 -47
600 -28 600 5 0 137 -133 293 -295 157 -162 290 -295 297 -295 6 0 44 43 83
95 52 68 70 98 63 107 -6 7 -173 216 -371 465 -328 410 -365 453 -399 462
-247 65 -239 64 -383 52 -84 -6 -165 -7 -215 -1 -113 13 -125 12 -270 -24z
m325 -23 c74 -3 166 -1 205 5 133 18 133 25 -12 -205 -71 -111 -130 -202 -133
-202 -3 0 -62 91 -132 202 -106 169 -124 203 -110 209 9 4 24 4 32 1 8 -3 76
-8 150 -10z m-106 -234 l138 -220 -27 -40 c-14 -23 -28 -39 -29 -37 -10 11
-297 479 -302 492 -4 10 2 16 18 19 61 12 57 15 202 -214z m525 215 c17 -4 31
-9 31 -13 0 -4 -74 -126 -165 -271 l-165 -264 0 -523 0 -523 -60 0 -60 0 0
513 0 512 183 287 c100 158 187 288 193 288 6 0 26 -3 43 -6z m-631 -298 l172
-273 0 -426 c0 -234 -3 -428 -8 -431 -18 -11 -380 44 -410 63 -8 5 -8 30 3
101 50 340 57 516 41 974 -7 207 -6 250 5 257 8 5 17 9 20 9 3 0 83 -123 177
-274z m750 164 c2 -58 -1 -215 -8 -350 -13 -264 -5 -411 40 -735 11 -76 17
-142 12 -146 -10 -9 -204 -47 -282 -54 -36 -3 -80 -8 -97 -11 l-33 -5 0 439 0
438 168 267 c111 177 172 266 182 264 12 -2 16 -24 18 -107z m-1043 -363 c-27
-28 -136 -141 -242 -249 l-194 -197 -47 61 c-26 33 -47 67 -47 76 0 8 126 173
280 367 l280 352 9 -179 9 -178 -48 -53z m1384 55 c150 -189 274 -349 277
-357 5 -13 -82 -135 -96 -135 -4 0 -114 108 -244 240 l-236 240 0 64 c0 114
13 307 20 299 4 -4 130 -162 279 -351z m-1859 -533 c0 -5 -14 -25 -32 -44
l-31 -36 -23 28 c-13 15 -35 45 -50 65 l-26 37 32 41 32 40 49 -61 c27 -34 49
-65 49 -70z m2210 91 l32 -41 -26 -37 c-14 -20 -35 -48 -46 -62 l-19 -25 -36
35 c-19 19 -33 40 -30 48 4 12 87 122 92 122 1 0 16 -18 33 -40z m-1556 -560
c61 -11 149 -23 196 -27 l85 -8 3 -54 3 -54 -88 7 c-81 6 -325 50 -345 62 -9
6 -11 65 -2 89 4 9 13 14 21 10 9 -3 65 -14 127 -25z m926 -24 l0 -53 -102
-22 c-125 -26 -229 -41 -285 -41 l-43 0 0 55 0 55 40 0 c51 0 240 27 310 44
83 21 80 22 80 -38z"/>
</g>
</svg>
