<?xml version="1.0" standalone="no"?>
<!DOCTYPE svg PUBLIC "-//W3C//DTD SVG 20010904//EN"
 "http://www.w3.org/TR/2001/REC-SVG-20010904/DTD/svg10.dtd">
<svg version="1.0" xmlns="http://www.w3.org/2000/svg"
 width="1200.000000pt" height="1600.000000pt" viewBox="0 0 1200.000000 1600.000000"
 preserveAspectRatio="xMidYMid meet">
<metadata>
Created by potrace 1.15, written by Peter Selinger 2001-2017
</metadata>
<g transform="translate(0.000000,1600.000000) scale(0.100000,-0.100000)"
fill="#000000" stroke="none">
<path d="M5848 13575 c-2 -1 -106 -5 -233 -9 -126 -4 -266 -9 -310 -11 -140
-6 -519 -32 -600 -41 -22 -2 -110 -11 -195 -19 -350 -36 -857 -121 -1155 -195
-400 -99 -883 -286 -989 -383 -13 -12 -52 -44 -86 -72 -35 -27 -76 -70 -93
-95 -16 -25 -38 -54 -47 -65 -20 -23 -60 -133 -60 -163 0 -11 -5 -24 -10 -27
-8 -5 -8 -11 -1 -19 6 -8 8 -39 4 -78 -6 -73 8 -128 62 -238 46 -94 56 -111
93 -151 l32 -35 35 -275 c20 -151 47 -366 61 -479 78 -644 108 -882 139 -1125
19 -148 53 -418 76 -600 22 -181 51 -413 65 -515 26 -200 66 -526 229 -1850
138 -1121 185 -1498 191 -1537 l6 -32 -873 5 c-480 2 -881 6 -891 10 -21 6
-88 -13 -88 -26 0 -5 4 -11 10 -15 5 -3 420 -8 922 -11 502 -4 916 -9 919 -13
8 -9 145 -1115 193 -1566 30 -276 31 -284 50 -406 9 -53 20 -141 26 -195 5
-55 17 -128 26 -164 8 -36 19 -84 24 -108 11 -50 81 -191 122 -243 15 -20 28
-39 28 -42 0 -2 25 -30 55 -62 30 -31 55 -61 55 -66 0 -5 5 -9 11 -9 5 0 29
-18 52 -39 74 -69 168 -134 292 -201 33 -18 87 -48 120 -66 33 -18 87 -41 121
-52 33 -11 78 -28 100 -39 21 -11 73 -30 114 -42 41 -12 134 -40 205 -63 72
-23 139 -42 150 -44 26 -4 46 -9 65 -17 16 -6 98 -22 195 -38 33 -5 89 -16
125 -24 36 -7 108 -19 160 -26 52 -6 104 -13 115 -16 117 -25 685 -40 860 -21
44 5 109 11 145 13 157 12 221 19 395 46 39 6 90 15 115 20 25 5 76 13 114 19
39 5 102 19 140 30 39 12 100 30 136 40 109 32 304 91 320 97 8 3 21 7 28 9 8
1 21 9 30 17 10 8 37 21 62 28 25 7 47 16 50 19 3 3 41 23 85 45 44 21 103 53
130 70 28 18 75 48 105 67 30 19 68 49 84 66 17 17 33 29 36 27 18 -11 190
295 190 337 0 8 3 18 7 22 4 3 8 13 10 21 4 22 9 38 16 55 19 46 38 169 62
395 3 34 11 95 30 230 3 17 7 41 10 55 5 25 9 51 19 125 3 22 15 101 27 175
43 281 58 378 69 460 7 47 23 155 36 240 13 85 43 280 65 433 22 153 43 296
47 318 l7 40 570 -2 c643 -1 918 -1 988 0 40 1 47 4 47 21 0 12 -7 20 -17 20
-42 1 -790 11 -1133 15 -206 2 -391 4 -410 4 -35 1 -36 2 -32 39 4 37 44 313
108 742 19 129 57 386 84 570 27 184 70 472 95 640 25 168 82 550 125 850 44
300 91 619 105 710 31 205 43 283 100 690 25 179 57 399 71 490 33 220 34 224
44 305 5 39 14 102 20 140 5 39 14 102 20 141 12 92 44 305 70 469 11 72 25
159 30 195 40 289 47 319 89 383 148 227 164 270 165 452 l1 130 -42 85 c-33
68 -60 105 -135 182 -51 53 -120 114 -153 136 -55 35 -311 161 -338 166 -29 5
-125 39 -151 53 -16 9 -63 24 -105 33 -42 10 -112 32 -156 50 -98 38 -330 98
-520 134 -38 8 -99 21 -135 30 -36 9 -87 20 -115 25 -27 5 -88 17 -135 26
-147 28 -405 64 -655 91 -27 3 -126 14 -220 24 -93 10 -219 22 -280 25 -60 4
-130 9 -155 11 -25 2 -205 6 -400 9 -195 3 -385 7 -422 9 -37 2 -69 2 -70 1z
m652 -80 c19 -2 107 -6 195 -10 144 -5 248 -12 475 -31 41 -3 89 -10 105 -14
17 -5 72 -11 123 -15 114 -8 154 -12 212 -24 25 -6 67 -13 94 -16 45 -6 49 -5
37 9 -19 23 -1 20 24 -4 13 -12 37 -21 58 -22 20 -1 34 -5 31 -9 -2 -4 17 -8
43 -8 120 0 143 -2 158 -17 8 -8 15 -11 15 -6 0 6 18 6 48 0 26 -6 59 -11 74
-12 14 0 30 -4 34 -8 4 -5 20 -8 34 -8 52 0 90 -12 90 -29 1 -15 2 -15 13 0
11 14 15 15 31 4 10 -8 25 -11 34 -8 10 4 13 2 8 -5 -5 -8 3 -12 25 -12 17 0
62 -11 99 -24 37 -14 101 -32 141 -40 41 -8 94 -22 118 -31 24 -8 54 -12 69
-8 16 4 23 2 19 -4 -8 -12 20 -26 34 -17 5 3 9 0 9 -5 0 -6 6 -11 13 -11 19 0
323 -106 408 -142 99 -43 159 -73 159 -81 0 -4 5 -5 11 -1 6 3 22 -6 36 -22
13 -16 22 -23 18 -16 -3 6 -1 12 5 12 6 0 13 -6 16 -14 3 -8 17 -17 32 -21 17
-4 22 -9 14 -14 -9 -5 -6 -11 11 -18 64 -29 160 -145 186 -226 25 -75 4 -238
-45 -340 -23 -49 -87 -127 -104 -127 -4 0 -20 -11 -36 -25 -16 -14 -35 -23
-41 -20 -7 2 -13 0 -13 -5 0 -6 -7 -10 -15 -10 -8 0 -15 -4 -15 -9 0 -9 -40
-27 -49 -22 -2 2 -7 -1 -10 -6 -16 -21 -93 -54 -114 -48 -14 4 -18 3 -9 -3 9
-6 0 -13 -30 -23 -24 -7 -43 -12 -43 -10 0 3 -11 -2 -25 -9 -14 -8 -74 -31
-135 -51 -79 -27 -112 -34 -117 -26 -6 9 -8 9 -8 0 0 -10 -69 -35 -130 -48 -8
-2 -42 -11 -75 -20 -33 -9 -82 -21 -110 -26 -27 -5 -84 -17 -126 -27 -42 -10
-86 -18 -97 -17 -12 1 -22 -3 -22 -8 0 -5 -7 -7 -15 -4 -8 4 -17 2 -20 -2 -4
-7 -51 -18 -115 -27 -8 -1 -28 -5 -45 -8 -38 -8 -179 -33 -225 -40 -211 -30
-326 -48 -332 -52 -3 -2 -10 1 -14 7 -4 7 -9 8 -13 1 -3 -5 -46 -13 -96 -16
-110 -8 -179 -15 -225 -21 -19 -3 -75 -8 -125 -11 -49 -3 -117 -7 -150 -10
-266 -18 -439 -21 -835 -18 -438 4 -727 11 -780 19 -14 2 -79 7 -145 10 -162
8 -425 31 -625 55 -47 5 -128 14 -180 20 -272 30 -869 137 -990 178 -8 3 -28
5 -45 5 -16 -1 -34 3 -40 7 -5 4 -50 17 -100 29 -49 12 -104 26 -121 32 -17 5
-40 9 -52 9 -12 0 -50 11 -84 24 -151 58 -255 95 -285 101 -17 3 -37 13 -43
20 -7 8 -36 23 -66 34 -83 31 -231 108 -252 132 -11 11 -26 19 -34 17 -8 -2
-29 14 -47 34 -19 22 -38 35 -47 31 -8 -3 -14 1 -14 10 0 9 -16 37 -36 62 -40
53 -48 85 -48 196 0 76 28 171 61 210 7 8 13 19 13 22 0 9 45 62 81 97 31 29
182 112 289 159 41 18 89 39 105 46 97 42 225 87 330 114 66 18 133 37 148 43
15 6 36 12 45 12 9 1 42 9 72 18 30 9 87 21 125 28 39 6 92 18 118 26 27 7 52
13 55 12 4 -1 20 4 35 10 16 7 45 12 65 12 20 1 57 5 82 11 25 5 72 12 105 15
33 4 65 10 72 16 6 5 46 11 90 13 43 2 107 8 143 14 36 5 88 12 115 15 28 3
84 10 125 15 41 5 107 12 145 15 39 4 93 9 120 11 28 3 79 7 115 10 200 14
274 21 355 32 98 13 343 18 760 15 248 -2 466 -5 485 -7z m-4311 -973 c0 -158
57 -266 190 -365 87 -64 345 -191 471 -232 63 -20 129 -42 145 -49 73 -32 377
-119 452 -129 17 -3 36 -8 41 -11 5 -3 33 -10 63 -15 30 -5 95 -19 144 -31 50
-11 126 -27 170 -36 44 -8 94 -19 110 -24 17 -5 55 -12 85 -15 30 -3 105 -15
167 -26 159 -28 261 -42 413 -54 41 -3 83 -8 92 -11 9 -3 40 -7 70 -9 29 -2
69 -6 88 -9 19 -2 73 -7 120 -11 47 -3 105 -8 130 -11 160 -16 463 -36 625
-41 431 -14 1254 -7 1420 12 17 2 73 6 125 9 52 4 113 9 135 11 22 3 65 7 95
9 226 21 452 51 645 87 468 86 714 145 751 181 14 12 24 16 28 9 10 -15 36 -2
29 15 -3 8 0 14 6 14 7 0 14 -7 18 -16 5 -15 8 -15 17 -2 14 18 41 29 85 35
43 5 168 44 286 88 178 67 270 113 333 164 65 53 139 155 149 204 3 15 9 27
14 27 14 0 29 72 29 143 0 44 4 66 10 62 6 -4 8 -10 6 -14 -3 -4 2 -34 10 -66
30 -113 -19 -294 -108 -401 -70 -84 -226 -204 -308 -238 -25 -10 -74 -31 -110
-47 -36 -16 -83 -35 -105 -43 -108 -38 -166 -59 -230 -85 -79 -32 -390 -117
-487 -132 -35 -6 -106 -19 -158 -30 -52 -10 -106 -22 -120 -24 -14 -3 -68 -12
-120 -21 -52 -8 -104 -19 -115 -24 -11 -5 -55 -11 -98 -14 -43 -3 -82 -8 -87
-11 -8 -5 -34 -8 -175 -20 -22 -1 -98 -10 -170 -19 -71 -9 -201 -21 -287 -26
-87 -6 -171 -13 -188 -15 -35 -4 -188 -12 -385 -20 -169 -7 -705 -8 -757 -2
-21 3 -35 1 -32 -4 3 -5 1 -9 -5 -9 -5 0 -13 5 -16 10 -10 17 -25 11 -18 -7 6
-17 5 -17 -14 0 -19 16 -47 19 -239 23 -121 2 -232 6 -249 8 -16 1 -82 6 -145
11 -63 4 -118 9 -122 11 -15 9 -248 12 -248 3 0 -5 -5 -9 -11 -9 -5 0 -7 5 -4
10 7 12 8 11 -68 15 -32 1 -60 5 -63 8 -4 3 -17 1 -31 -4 -21 -8 -24 -7 -19 6
4 10 -1 15 -14 15 -11 0 -20 -6 -20 -12 0 -10 -3 -9 -9 1 -6 9 -18 11 -35 7
-15 -4 -35 -2 -46 4 -11 6 -21 6 -24 1 -8 -12 -76 -10 -76 2 0 5 -8 3 -17 -4
-15 -12 -16 -12 -11 3 6 14 -1 16 -50 14 -31 -2 -60 1 -63 6 -3 5 -31 10 -62
12 -30 2 -70 11 -88 20 -24 12 -35 13 -45 5 -11 -9 -14 -8 -14 1 0 8 -3 10 -6
7 -4 -3 -16 -2 -27 4 -14 8 -18 8 -13 0 5 -7 1 -9 -8 -5 -9 3 -16 10 -16 15 0
5 -12 4 -26 -1 -33 -13 -34 -13 -28 4 4 11 0 13 -16 9 -16 -4 -18 -8 -8 -14 7
-5 9 -9 3 -9 -5 1 -19 7 -29 15 -11 8 -28 13 -38 9 -10 -3 -18 -1 -18 4 0 6
-9 8 -20 5 -11 -3 -20 -1 -20 4 0 5 -8 9 -17 10 -37 3 -109 17 -133 26 -16 6
-96 27 -120 31 -8 2 -22 6 -30 9 -16 6 -57 15 -100 22 -14 2 -44 11 -67 19
-24 8 -43 13 -43 10 0 -2 -8 0 -19 5 -10 6 -33 13 -52 16 -18 3 -39 11 -47 18
-14 11 -23 14 -73 22 -15 2 -44 11 -65 21 -22 9 -43 18 -49 18 -22 3 -94 31
-173 67 -45 22 -86 39 -91 39 -14 0 -110 46 -186 89 -38 22 -90 51 -115 64
-59 33 -165 138 -192 191 -11 22 -28 52 -38 66 -56 82 -89 287 -57 363 23 53
35 46 36 -21z m301 -697 c14 -4 32 -13 40 -20 8 -7 60 -32 115 -55 55 -23 123
-52 151 -66 28 -13 53 -24 56 -24 3 0 27 -10 54 -22 27 -12 54 -23 59 -24 36
-7 211 -68 213 -75 2 -4 9 -6 16 -3 7 3 26 0 42 -7 32 -12 269 -74 349 -91 95
-19 200 -42 215 -45 8 -2 45 -8 82 -13 37 -5 156 -25 265 -44 109 -18 227 -37
263 -40 36 -3 74 -8 85 -10 11 -2 54 -7 95 -11 41 -3 104 -11 140 -16 35 -6
101 -12 145 -14 44 -3 94 -7 110 -9 17 -2 84 -7 150 -11 66 -4 122 -9 125 -10
3 -2 59 -6 125 -10 66 -4 123 -9 127 -11 10 -7 581 -19 853 -19 218 1 613 12
675 20 14 1 72 6 130 9 58 4 123 9 145 11 22 2 74 7 115 10 41 3 93 8 115 10
22 2 70 7 107 10 37 3 77 8 90 10 13 2 91 13 173 24 83 12 159 23 170 25 11 2
54 9 95 16 112 18 476 88 550 107 265 65 513 148 633 212 43 22 87 41 99 41
24 0 210 97 220 115 5 7 17 11 28 8 11 -3 18 -8 16 -12 -4 -6 -31 -186 -41
-271 -3 -25 -12 -94 -20 -155 -8 -60 -21 -159 -30 -220 -8 -60 -26 -182 -40
-270 -14 -88 -30 -189 -34 -225 -5 -36 -26 -171 -46 -300 -20 -129 -56 -370
-80 -535 -84 -579 -97 -660 -107 -670 -6 -7 -13 -3 -20 10 -22 39 -128 141
-170 164 -24 12 -63 33 -88 46 -228 120 -705 255 -1196 339 -228 39 -225 38
-439 66 -212 27 -222 28 -350 39 -188 17 -241 21 -347 26 -57 3 -114 8 -127
11 -74 16 -1047 20 -1321 5 -102 -6 -237 -13 -300 -16 -115 -6 -186 -11 -270
-21 -74 -9 -121 -13 -198 -18 -39 -3 -75 -7 -80 -9 -4 -2 -18 -3 -32 -2 -13 1
-40 -2 -60 -6 -20 -5 -54 -11 -76 -13 -51 -7 -259 -35 -304 -41 -229 -33 -689
-140 -854 -199 -53 -19 -125 -52 -159 -73 -34 -21 -75 -45 -92 -53 -40 -20
-135 -115 -135 -134 0 -33 -20 -14 -21 19 -1 19 -2 38 -3 43 -1 4 -6 39 -10
77 -5 39 -9 77 -11 85 -1 8 -5 42 -9 75 -4 33 -11 83 -16 110 -13 69 -22 136
-21 160 0 11 -6 61 -14 110 -8 50 -17 117 -20 150 -3 33 -8 76 -10 95 -2 19
-6 67 -9 105 -3 39 -7 77 -11 86 -6 17 -13 67 -20 159 -2 36 -7 76 -10 90 -2
14 -7 50 -10 80 -4 30 -15 123 -25 205 -11 83 -26 209 -35 280 -17 147 -23
195 -30 245 -9 68 -45 393 -45 407 0 8 5 11 10 8 6 -3 10 -2 10 4 0 6 15 2 33
-8 17 -11 43 -22 57 -26z m4020 -2019 c14 -2 88 -7 165 -11 77 -3 154 -8 170
-10 17 -2 68 -7 115 -10 259 -18 853 -100 1110 -154 344 -72 691 -175 868
-256 41 -19 81 -35 88 -35 7 0 14 -4 16 -8 2 -5 29 -23 61 -41 55 -31 97 -68
156 -134 14 -17 29 -54 38 -95 20 -95 0 -163 -75 -243 -59 -64 -210 -170 -269
-190 -21 -6 -47 -18 -58 -24 -47 -30 -383 -122 -545 -150 -47 -9 -132 -24
-190 -34 -134 -24 -230 -39 -300 -46 -30 -3 -68 -7 -85 -10 -16 -2 -61 -7
-100 -10 -38 -3 -83 -8 -100 -10 -35 -5 -110 -12 -210 -20 -38 -3 -88 -7 -110
-10 -22 -2 -92 -7 -155 -11 -63 -3 -131 -8 -150 -9 -275 -25 -1258 -25 -1515
0 -53 5 -169 13 -280 20 -49 4 -106 8 -125 10 -19 2 -66 7 -105 10 -38 4 -97
10 -130 15 -33 5 -94 12 -136 15 -42 3 -92 10 -110 15 -19 6 -52 10 -75 10
-23 0 -54 4 -70 10 -16 5 -49 11 -74 14 -25 3 -68 9 -96 15 -28 5 -74 12 -103
15 -28 3 -70 10 -94 15 -23 5 -87 19 -142 31 -195 42 -500 131 -670 195 -38
15 -81 29 -95 32 -14 4 -27 9 -30 13 -3 3 -48 28 -100 54 -237 118 -314 220
-280 371 20 90 60 141 192 247 33 26 212 100 318 132 174 52 757 166 930 181
36 3 108 12 160 20 87 13 223 28 360 41 30 2 75 7 100 9 25 3 90 7 145 10 55
4 120 8 145 10 25 3 140 8 255 11 116 4 212 9 215 11 6 6 937 -4 970 -11z
m-3713 -966 c123 -113 461 -257 817 -350 196 -51 601 -127 776 -145 30 -3 82
-10 115 -15 33 -5 85 -12 115 -15 30 -3 89 -10 130 -15 41 -5 111 -12 155 -15
44 -3 94 -8 110 -10 17 -2 84 -7 150 -10 66 -4 127 -9 135 -10 144 -27 1619
-27 1891 0 24 2 71 7 104 10 188 17 520 51 595 60 19 3 55 7 80 10 133 17 425
71 455 85 11 5 36 11 55 13 175 24 476 131 614 219 28 18 81 59 118 91 69 59
80 66 73 45 -5 -16 -77 -498 -105 -708 -11 -85 -27 -198 -35 -250 -8 -52 -53
-360 -100 -685 -46 -324 -111 -777 -145 -1005 -33 -228 -62 -433 -66 -455 -8
-59 -89 -605 -129 -875 -20 -129 -56 -370 -80 -535 -25 -165 -56 -372 -69
-460 -48 -306 -67 -450 -71 -526 -2 -42 -16 -123 -30 -180 -15 -57 -30 -120
-35 -139 -30 -126 -91 -230 -200 -338 -121 -120 -197 -165 -475 -281 -316
-130 -790 -250 -1100 -276 -38 -4 -86 -8 -105 -11 -246 -31 -669 -35 -925 -9
-11 1 -54 5 -95 9 -385 38 -1000 186 -1280 308 -25 11 -61 26 -80 35 -142 60
-376 223 -503 350 -146 146 -225 391 -257 798 -5 61 -16 142 -24 180 -9 39
-16 91 -16 116 0 25 -4 59 -10 75 -5 16 -11 52 -14 79 -3 28 -10 82 -15 120
-6 39 -12 90 -15 115 -3 25 -10 82 -16 128 -6 45 -8 87 -5 91 2 5 -1 55 -9
112 -8 57 -19 145 -26 194 -6 50 -16 112 -22 139 -6 26 -12 67 -14 90 -2 22
-7 57 -11 76 -8 44 -9 45 -28 215 -20 177 -74 628 -85 720 -5 39 -20 169 -34
290 -14 121 -30 240 -35 265 -13 62 -21 123 -27 200 -3 36 -12 115 -20 175 -8
61 -19 146 -24 190 -5 44 -34 276 -64 515 -30 239 -57 460 -60 490 -4 30 -20
159 -36 285 -16 127 -34 271 -40 320 -6 50 -13 105 -16 123 -3 17 -2 32 2 32
3 0 31 -22 61 -50z"/>
<path d="M5814 9506 c-4 -9 -4 -19 -1 -22 7 -7 365 -7 376 0 4 3 11 3 14 0 3
-4 46 -8 94 -10 48 -2 121 -6 161 -9 66 -5 72 -4 72 13 0 25 -51 29 -427 38
-259 6 -283 5 -289 -10z"/>
<path d="M4620 9475 c-52 -7 -129 -16 -171 -20 -50 -4 -88 -14 -110 -27 -34
-21 -34 -21 -11 -31 17 -8 26 -8 31 1 7 12 24 15 151 27 41 4 83 9 94 11 10 2
50 6 89 9 79 7 87 10 87 31 0 17 -27 17 -160 -1z"/>
<path d="M7225 9421 c-12 -21 5 -29 87 -41 46 -6 98 -14 117 -17 22 -3 37 0
42 9 7 10 9 9 9 -4 0 -12 8 -18 23 -19 45 -1 114 -11 202 -31 127 -28 288 -48
299 -38 11 11 6 13 -109 40 -176 41 -232 51 -420 76 -104 13 -202 27 -217 30
-14 3 -29 0 -33 -5z"/>
<path d="M8483 9117 c6 -13 24 -31 39 -40 38 -22 68 -74 68 -118 0 -32 -6 -41
-55 -79 -30 -23 -55 -46 -55 -51 0 -34 117 30 137 74 6 12 10 45 9 73 -2 44
-7 56 -42 93 -58 64 -123 94 -101 48z"/>
<path d="M5287 9124 c-1 -1 -71 -4 -156 -8 -85 -4 -157 -8 -160 -10 -3 -2 -51
-7 -106 -11 -139 -9 -154 -12 -170 -25 -32 -27 -15 -32 78 -26 50 4 110 9 132
11 125 12 215 18 469 30 104 5 125 11 126 38 0 7 -204 7 -213 1z"/>
<path d="M6110 9110 c0 -3 8 -12 18 -20 18 -16 28 -17 237 -21 77 -1 171 -5
208 -8 37 -4 70 -4 73 -1 6 5 12 7 40 9 8 0 13 5 10 10 -9 13 -114 20 -518 35
-38 1 -68 0 -68 -4z"/>
<path d="M5433 8564 c-3 -8 -4 -16 -2 -18 8 -7 394 -17 699 -17 292 -1 519 6
530 17 14 15 -33 24 -93 19 -150 -12 -893 -6 -1085 10 -31 2 -45 -1 -49 -11z"/>
<path d="M5760 4306 c-3 -2 -46 -6 -95 -7 -108 -3 -125 -7 -125 -26 0 -21 447
-15 455 6 3 8 4 15 2 17 -6 6 -232 15 -237 10z"/>
</g>
</svg>
