<?xml version="1.0" standalone="no"?>
<!DOCTYPE svg PUBLIC "-//W3C//DTD SVG 20010904//EN"
 "http://www.w3.org/TR/2001/REC-SVG-20010904/DTD/svg10.dtd">
<svg version="1.0" xmlns="http://www.w3.org/2000/svg"
 width="300.000000pt" height="145.000000pt" viewBox="0 0 300.000000 145.000000"
 preserveAspectRatio="xMidYMid meet">
<metadata>
Created by potrace 1.15, written by Peter Selinger 2001-2017
</metadata>
<g transform="translate(0.000000,145.000000) scale(0.100000,-0.100000)"
fill="#000000" stroke="none">
<path d="M2470 1325 c-162 -30 -299 -54 -304 -55 -4 0 -5 -7 -2 -16 5 -14 4
-15 -9 -4 -24 20 -122 4 -128 -21 -3 -10 -11 -19 -19 -19 -10 0 -10 2 2 10 29
18 -1 22 -77 8 -68 -12 -78 -16 -75 -33 2 -19 2 -19 -12 -2 -13 17 -18 17
-117 1 -57 -10 -106 -21 -107 -26 -2 -4 -8 -6 -12 -3 -12 8 -139 -15 -145 -26
-3 -4 -11 -6 -18 -3 -7 2 -80 -7 -162 -21 -106 -18 -152 -31 -162 -43 -12 -16
-13 -16 -7 1 6 16 3 16 -44 -2 -28 -11 -52 -16 -54 -11 -2 5 -22 4 -48 -1 -25
-5 -63 -12 -84 -15 -111 -15 -251 -45 -264 -56 -12 -10 -14 -10 -8 -1 7 14 -5
12 -114 -12 -54 -11 -55 -12 -58 -49 l-3 -37 38 6 c21 4 56 11 78 17 22 5 55
11 73 13 62 7 177 27 187 33 6 4 24 7 40 8 17 2 83 12 147 23 64 12 122 21
128 21 10 0 10 3 1 14 -8 9 -8 16 -2 20 5 4 12 -2 15 -12 6 -17 11 -17 84 -4
42 8 84 16 92 19 8 3 35 7 60 9 103 10 164 29 178 54 13 24 13 24 9 3 -3 -13
-2 -23 1 -23 6 0 63 10 147 25 17 3 45 7 63 10 17 3 32 10 32 14 0 5 11 6 24
4 57 -11 178 32 146 52 -5 3 -10 11 -10 16 0 6 7 3 16 -6 9 -8 14 -21 11 -29
-4 -10 21 -8 111 7 65 11 119 21 121 23 5 4 -22 30 -39 37 -12 4 -11 6 3 6 9
1 26 -8 38 -20 l21 -21 207 36 c113 20 225 41 249 45 33 7 42 6 42 -6 0 -7 10
-18 23 -23 17 -7 18 -9 4 -9 -15 -1 -17 -7 -11 -38 4 -21 10 -39 14 -41 4 -2
6 -11 3 -20 -2 -10 8 -80 23 -157 14 -77 29 -161 31 -187 l5 -46 -54 -11 c-54
-12 -105 -21 -263 -47 -115 -19 -125 -22 -125 -42 0 -15 -1 -15 -12 1 -12 14
-20 15 -98 1 -47 -9 -92 -18 -100 -21 -18 -7 -59 -14 -80 -15 -8 0 -103 -16
-210 -35 -107 -19 -208 -37 -225 -39 -126 -20 -211 -37 -226 -44 -9 -5 -19 -7
-21 -4 -5 4 -157 -20 -318 -51 -62 -12 -344 -63 -440 -79 -14 -2 -109 -19
-212 -36 -104 -18 -194 -30 -201 -27 -7 2 -18 38 -25 78 -7 41 -27 156 -44
256 -18 100 -29 185 -26 189 4 3 64 17 135 30 70 13 128 24 128 24 0 0 1 16 2
35 1 27 -2 35 -15 35 -28 0 -332 -57 -338 -63 -7 -7 106 -659 117 -671 4 -5
189 23 416 63 224 40 458 81 518 92 373 65 438 79 470 99 28 17 34 18 29 6 -8
-20 -17 -21 174 13 113 20 169 34 183 47 16 14 19 15 14 2 -5 -12 -1 -14 19
-11 14 3 26 9 26 13 0 5 8 6 18 4 16 -5 63 3 482 77 96 17 221 39 278 48 56
10 105 21 108 24 3 3 -21 155 -53 339 -58 329 -59 333 -83 335 -14 1 -158 -23
-320 -52z"/>
<path d="M2628 1213 c-30 -5 -36 -17 -41 -93 l-3 -45 -27 58 c-19 41 -32 57
-46 57 -11 0 -22 -4 -25 -9 -3 -5 -15 -7 -26 -4 -11 3 -20 3 -20 0 0 -2 28
-53 61 -113 50 -88 64 -124 76 -189 7 -44 18 -84 22 -88 5 -5 25 -5 45 -2 33
7 35 10 30 34 -4 14 -14 34 -22 44 -8 9 -11 17 -5 17 6 0 9 31 9 73 -1 39 3
97 8 129 7 50 6 57 -10 61 -16 4 -15 5 4 6 18 1 22 7 22 36 0 22 -5 34 -12 34
-7 -1 -25 -4 -40 -6z"/>
<path d="M2291 1157 c-53 -19 -76 -57 -74 -125 2 -60 26 -185 45 -235 27 -71
121 -91 179 -39 27 24 33 37 36 83 5 69 -3 80 -51 72 -36 -6 -37 -7 -32 -38 8
-41 -1 -65 -25 -65 -25 0 -35 22 -53 119 -19 100 -20 148 -3 154 20 7 44 -11
51 -38 5 -19 13 -25 34 -25 47 0 56 12 42 55 -7 20 -18 39 -26 42 -8 3 -11 9
-8 14 3 5 -10 16 -30 24 -41 17 -41 17 -85 2z"/>
<path d="M2082 1111 c-11 -6 -9 -28 8 -111 12 -57 24 -109 27 -114 3 -6 2 -7
-2 -3 -5 4 -31 54 -57 110 -46 97 -49 102 -78 101 -60 -3 -59 2 -29 -176 47
-268 39 -244 79 -240 19 2 36 5 38 7 3 3 -33 188 -44 222 -3 10 18 -29 45 -85
28 -57 51 -108 51 -113 0 -10 34 -12 69 -2 22 6 23 9 16 57 -8 61 -10 64 -32
44 -10 -8 -25 -18 -33 -22 -8 -4 0 5 19 22 l34 29 -22 124 c-12 68 -24 132
-27 142 -6 18 -40 23 -62 8z"/>
<path d="M1778 1061 c-47 -9 -89 -19 -92 -22 -3 -3 10 -93 29 -200 19 -107 35
-197 35 -201 0 -21 47 -4 76 28 39 41 42 54 14 61 -12 3 -23 17 -26 32 -3 14
-7 34 -9 43 -2 14 7 19 46 24 51 7 53 10 43 63 -8 37 -21 40 -34 9 -7 -20 -9
-20 -9 -4 -1 15 -6 17 -30 13 -21 -4 -31 -2 -35 9 -10 27 -7 64 7 64 6 0 29 5
50 11 29 8 37 15 36 32 -1 53 -6 54 -101 38z"/>
<path d="M1491 1014 c-70 -30 -80 -74 -50 -230 16 -88 26 -117 40 -125 11 -5
19 -18 19 -29 0 -41 71 -53 113 -20 15 12 27 16 29 9 6 -18 59 1 54 20 -3 9
-8 34 -12 56 -4 22 -11 45 -16 52 -5 7 -7 17 -3 22 3 6 3 26 0 44 -7 33 -7 34
-46 27 -48 -9 -46 -6 -54 -53 -6 -31 -5 -36 8 -31 11 4 18 -2 22 -19 12 -46 3
-62 -35 -62 -19 0 -41 -4 -47 -8 -8 -5 -13 -3 -13 7 0 8 4 17 9 20 16 10 20
61 9 126 -6 36 -14 70 -18 75 -11 15 3 50 21 53 19 3 44 -24 44 -47 0 -12 8
-15 35 -13 19 2 38 6 42 8 4 2 0 25 -9 50 -10 31 -26 52 -47 65 -37 22 -50 23
-95 3z"/>
<path d="M1193 958 c-51 -9 -53 -10 -53 -43 0 -18 7 -40 15 -49 17 -17 21 -41
5 -31 -7 4 -9 -2 -5 -17 3 -12 16 -81 28 -153 24 -140 20 -134 83 -120 20 4
20 9 13 57 -5 29 -11 65 -14 79 -4 19 -1 28 11 33 26 10 37 -8 54 -82 12 -54
19 -68 36 -70 13 -2 25 5 33 20 6 13 9 15 7 6 -4 -13 0 -18 15 -18 16 0 19 4
14 18 -9 22 -20 57 -35 110 -6 24 -14 41 -17 38 -4 -3 -11 4 -18 17 -9 17 -9
26 2 42 17 26 16 66 -3 115 -25 62 -53 70 -171 48z"/>
<path d="M1053 932 c-27 -4 -29 -14 -8 -32 8 -7 15 -18 15 -24 0 -6 -12 1 -25
17 -24 27 -49 32 -92 21 -14 -4 -20 -11 -16 -18 4 -6 0 -5 -9 2 -9 7 -18 9
-21 5 -5 -8 25 -192 39 -235 4 -12 14 -29 23 -36 14 -12 14 -13 -3 -8 -16 6
-18 2 -12 -26 4 -18 9 -50 13 -70 5 -37 23 -54 23 -23 0 8 5 15 11 15 5 0 7
-5 3 -12 -5 -8 6 -9 41 -5 57 8 62 12 45 32 -9 11 -9 15 -1 15 6 0 14 -7 17
-15 4 -8 18 -15 31 -15 24 0 25 2 20 41 -3 22 -7 42 -9 44 -2 2 -25 -1 -51 -7
-27 -5 -51 -8 -54 -5 -2 3 -7 23 -10 45 l-5 40 43 9 c39 8 44 12 47 38 4 48
-8 57 -59 46 -24 -5 -45 -8 -47 -7 -1 2 -5 19 -9 38 -5 34 -4 36 33 42 69 12
70 13 66 51 -5 40 -8 43 -39 37z"/>
<path d="M758 883 l-38 -4 -1 -132 0 -132 -25 70 c-53 153 -54 156 -77 149
-22 -6 -22 -6 -2 10 l20 17 -20 -5 c-11 -2 -37 -7 -57 -11 -21 -3 -38 -11 -38
-18 0 -16 40 -248 46 -266 4 -11 7 -12 16 -3 7 7 16 12 22 12 5 0 0 -9 -13
-21 -22 -21 -23 -37 -5 -101 5 -18 23 -22 60 -12 20 5 20 7 6 77 -7 40 -16 79
-19 87 -4 8 -7 24 -8 35 -1 11 -5 38 -9 60 -6 39 -3 36 16 -15 l10 -25 19 24
c23 28 25 20 3 -14 -15 -23 -14 -29 7 -92 12 -37 26 -71 31 -74 5 -3 9 -9 9
-13 -4 -26 2 -36 18 -36 50 0 51 4 50 149 0 125 -2 138 -22 160 l-22 24 26
-16 c23 -15 27 -28 44 -153 20 -143 24 -151 71 -140 24 6 26 10 21 44 -13 93
-42 247 -47 252 -3 3 -6 25 -8 50 -3 59 -8 70 -29 68 -10 -1 -35 -3 -55 -5z"/>
<path d="M370 814 c-105 -20 -100 -17 -89 -61 5 -21 13 -67 19 -103 21 -135
44 -255 49 -262 3 -3 47 1 96 11 l90 16 -3 35 c-5 44 -10 52 -30 46 -10 -2
-33 -7 -53 -10 -36 -6 -36 -6 -43 34 -8 48 8 70 45 64 37 -7 48 6 40 46 l-7
35 -51 -3 c-50 -4 -50 -3 -57 29 -3 18 -5 34 -3 36 2 1 25 7 51 12 26 5 48 10
50 12 8 10 -8 79 -18 78 -6 0 -45 -7 -86 -15z"/>
</g>
</svg>
