<?xml version="1.0" standalone="no"?>
<!DOCTYPE svg PUBLIC "-//W3C//DTD SVG 20010904//EN"
 "http://www.w3.org/TR/2001/REC-SVG-20010904/DTD/svg10.dtd">
<svg version="1.0" xmlns="http://www.w3.org/2000/svg"
 width="300.000000pt" height="171.000000pt" viewBox="0 0 300.000000 171.000000"
 preserveAspectRatio="xMidYMid meet">
<metadata>
Created by potrace 1.15, written by Peter Selinger 2001-2017
</metadata>
<g transform="translate(0.000000,171.000000) scale(0.100000,-0.100000)"
fill="#000000" stroke="none">
<path d="M0 855 l0 -855 1500 0 1500 0 0 855 0 855 -1500 0 -1500 0 0 -855z
m1567 776 c35 -33 533 -897 533 -925 0 -14 -9 -35 -20 -46 -20 -20 -33 -20
-557 -20 -296 0 -543 4 -549 8 -15 10 -34 47 -34 68 0 10 64 126 141 258 78
133 196 334 262 448 67 114 130 211 141 217 33 15 60 13 83 -8z m-506 -1093
l12 -43 9 43 c8 38 12 42 39 42 l29 0 0 -75 c0 -59 -3 -75 -14 -75 -11 0 -16
14 -18 48 l-4 47 -13 -47 c-10 -35 -18 -48 -32 -48 -14 0 -21 10 -26 43 l-8
42 -5 -40 c-3 -27 -10 -41 -22 -43 -16 -3 -18 6 -18 72 l0 76 30 0 c26 0 31
-5 41 -42z m729 0 l19 -43 0 43 c1 35 4 42 21 42 18 0 20 -7 20 -75 l0 -75
-28 0 c-25 0 -30 6 -48 53 l-19 52 -3 -52 c-2 -38 -7 -53 -18 -53 -11 0 -14
16 -14 75 0 74 0 75 25 75 21 0 30 -9 45 -42z m-677 -308 c26 -74 49 -139 50
-145 1 -5 -17 -11 -40 -13 -39 -3 -42 -1 -48 27 -6 30 -8 31 -61 31 -52 0 -56
-2 -65 -30 -9 -25 -16 -30 -45 -30 -19 0 -34 5 -34 11 0 6 20 68 45 138 25 69
48 132 50 139 3 9 20 12 52 10 l48 -3 48 -135z m157 20 l0 -120 61 0 c60 0 60
0 57 -27 l-3 -28 -97 -3 -98 -3 0 151 0 150 40 0 40 0 0 -120z m355 90 c0 -24
-4 -25 -65 -30 -61 -5 -65 -6 -65 -30 0 -23 4 -25 58 -28 56 -3 57 -4 57 -32
0 -30 -1 -30 -54 -30 -43 0 -55 -4 -58 -17 -9 -36 2 -43 68 -43 65 0 65 0 62
-28 l-3 -27 -102 -3 -103 -3 0 151 0 151 103 -3 c101 -3 102 -3 102 -28z m230
18 c46 -21 50 -89 7 -125 -20 -17 -23 -23 -11 -23 19 0 35 -36 43 -97 l6 -43
-39 0 -39 0 -9 53 c-8 49 -10 52 -41 55 l-32 3 0 -56 0 -56 -37 3 -38 3 -3
134 c-1 74 0 141 2 148 7 17 154 18 191 1z m285 -18 c0 -28 -2 -30 -40 -30
l-40 0 0 -121 0 -120 -37 3 -38 3 -3 117 -3 117 -37 3 c-32 3 -37 7 -40 31
l-3 27 120 0 121 0 0 -30z"/>
<path d="M1494 1613 c-23 -16 -524 -883 -524 -907 0 -15 8 -30 19 -36 27 -14
1035 -14 1062 0 12 7 19 21 19 38 -1 17 -98 193 -259 467 -217 370 -262 440
-282 443 -13 1 -29 -1 -35 -5z m275 -468 c132 -228 241 -417 241 -420 0 -3
-221 -5 -491 -5 -270 0 -489 4 -487 8 11 29 483 832 489 832 3 0 115 -187 248
-415z"/>
<path d="M1470 1313 c-24 -30 -23 -63 6 -176 8 -32 18 -87 21 -123 8 -85 26
-79 35 12 3 38 13 98 22 134 23 95 21 145 -6 164 -32 23 -54 20 -78 -11z"/>
</g>
</svg>
