<?xml version="1.0" standalone="no"?>
<!DOCTYPE svg PUBLIC "-//W3C//DTD SVG 20010904//EN"
 "http://www.w3.org/TR/2001/REC-SVG-20010904/DTD/svg10.dtd">
<svg version="1.0" xmlns="http://www.w3.org/2000/svg"
 width="308.000000pt" height="164.000000pt" viewBox="0 0 308.000000 164.000000"
 preserveAspectRatio="xMidYMid meet">
<metadata>
Created by potrace 1.15, written by Peter Selinger 2001-2017
</metadata>
<g transform="translate(0.000000,164.000000) scale(0.100000,-0.100000)"
fill="#000000" stroke="none">
<path d="M503 1578 c-7 -224 -262 -351 -457 -227 l-46 29 0 -36 c0 -30 3 -34
19 -29 10 3 27 2 37 -2 16 -6 15 -8 -11 -14 -25 -6 -23 -7 15 -7 25 0 70 -8
100 -18 57 -18 140 -79 140 -101 0 -7 4 -13 9 -13 12 0 31 -88 31 -140 0 -95
-62 -190 -147 -225 -40 -17 -129 -20 -167 -5 l-26 10 0 -170 c0 -94 2 -170 4
-170 2 0 27 5 57 10 69 13 141 -1 201 -39 l45 -29 16 22 c9 11 38 29 65 38 27
10 60 28 74 41 18 17 31 21 46 16 22 -8 52 -57 52 -84 0 -22 17 -18 23 6 3 11
15 23 26 26 30 8 26 17 -11 28 -27 8 -34 17 -41 48 -10 43 3 87 27 87 8 0 16
6 19 13 5 14 46 -30 47 -50 0 -7 8 -13 18 -13 15 0 17 -7 14 -41 -3 -22 -10
-43 -18 -46 -18 -7 -18 -23 1 -23 21 0 61 -58 57 -83 -4 -22 -4 -22 22 2 24
23 26 23 51 7 23 -15 37 -35 15 -21 -5 3 -10 1 -10 -5 0 -6 -7 -18 -15 -26 -8
-8 -12 -20 -9 -28 3 -7 -1 -18 -8 -24 -22 -18 -52 -8 -68 24 -12 24 -20 28
-44 26 -16 -2 -32 0 -35 5 -3 4 -16 14 -28 21 -19 10 -23 10 -23 -2 0 -8 -27
-27 -60 -43 -33 -15 -60 -33 -60 -40 0 -7 -7 -10 -17 -6 -11 4 -14 3 -9 -5 4
-8 2 -10 -7 -6 -11 4 -15 -11 -19 -73 -4 -76 -38 -173 -60 -173 -4 0 -8 -4 -8
-10 0 -5 22 -10 49 -10 44 0 50 3 53 23 3 20 8 22 52 19 27 -1 54 -7 61 -12 7
-5 16 -6 20 -2 5 4 5 -1 2 -10 -6 -17 3 -18 109 -18 l114 0 -16 25 c-12 18
-15 38 -10 77 2 29 3 45 0 36 -3 -10 -14 -18 -24 -18 -17 0 -90 -74 -90 -92 0
-17 -29 -7 -44 14 -20 28 -20 78 -1 124 10 24 11 33 2 27 -7 -4 -1 5 13 20 22
23 30 25 70 20 25 -3 53 -10 62 -14 14 -8 18 -3 24 28 10 56 40 104 90 142 41
31 48 33 102 29 43 -3 68 -12 104 -37 58 -39 108 -98 108 -127 0 -12 7 -24 15
-28 8 -3 12 -12 9 -19 -3 -8 2 -17 12 -21 14 -5 15 -4 4 9 -10 12 -10 15 5 15
14 0 16 6 11 35 -6 30 -4 35 13 35 22 0 36 -16 22 -24 -11 -7 -2 -47 13 -61 6
-5 17 -10 25 -10 8 0 16 -6 18 -12 5 -14 -9 -16 -44 -7 -13 4 -23 14 -23 23 0
13 -2 14 -9 2 -12 -18 -2 -44 14 -37 7 2 17 0 21 -4 11 -11 59 11 59 25 0 20
16 34 30 28 11 -4 13 -1 9 11 -7 19 16 22 35 4 10 -11 17 -8 34 14 22 26 75
54 85 43 3 -3 0 -5 -7 -5 -8 0 -10 -7 -6 -20 4 -12 2 -20 -5 -20 -6 0 -8 6 -4
13 4 6 -2 3 -13 -8 -11 -11 -16 -23 -11 -26 5 -3 3 -9 -6 -12 -9 -4 -16 -13
-16 -20 0 -8 -7 -20 -16 -27 -23 -20 -43 -76 -37 -101 4 -13 2 -20 -3 -16 -6
3 -11 -3 -11 -14 -2 -18 7 -19 211 -19 247 0 245 -1 240 87 -1 28 -7 60 -12
70 -5 10 -7 25 -5 33 4 13 3 13 -6 0 -10 -13 -13 -13 -25 3 -7 9 -16 17 -18
17 -9 0 -6 -50 3 -56 5 -3 9 -10 9 -16 0 -7 -5 -6 -15 2 -8 6 -20 8 -26 4 -9
-5 -10 0 -5 17 4 13 9 33 12 44 6 26 14 145 9 145 -2 0 -11 -34 -21 -75 -10
-41 -21 -75 -26 -75 -4 0 -8 -7 -8 -16 0 -9 -5 -12 -11 -8 -9 5 -10 -1 -5 -22
6 -26 5 -27 -8 -11 -13 17 -14 17 -19 -2 -2 -11 -1 -23 4 -28 6 -6 4 -10 -4
-10 -12 0 -14 43 -5 126 2 13 -3 26 -9 28 -7 3 -13 -2 -13 -11 0 -8 -5 -18
-10 -21 -6 -4 -8 7 -4 29 6 39 -2 44 -37 25 -14 -7 -18 -16 -14 -27 4 -11 -1
-9 -15 6 -35 37 -32 68 8 103 19 17 52 53 74 80 37 47 53 56 107 62 20 2 26
-4 34 -33 l9 -35 13 32 c8 19 22 33 37 36 21 4 21 4 -4 6 -54 2 -81 72 -38 99
12 7 19 16 16 20 -2 4 21 7 51 8 37 0 48 -2 34 -8 -30 -11 -26 -28 7 -24 15 2
21 1 15 -1 -7 -2 -13 -9 -13 -15 0 -5 7 -8 15 -5 8 4 17 2 20 -3 4 -6 1 -10
-4 -10 -6 0 -11 -7 -11 -15 0 -17 14 -19 40 -5 17 9 15 15 -26 76 -35 53 -44
74 -44 109 0 24 -5 47 -10 50 -5 3 -10 12 -10 18 0 7 4 6 10 -3 8 -13 10 -12
10 4 0 15 -6 17 -29 14 -17 -2 -29 -2 -27 1 2 3 -10 16 -25 29 -20 16 -27 19
-23 8 7 -19 -31 -23 -42 -4 -5 8 -2 9 9 5 10 -3 17 -2 17 4 0 5 -6 12 -13 15
-13 5 -16 68 -5 80 3 3 -5 16 -18 29 -13 13 -24 31 -24 40 0 24 10 18 25 -17
l15 -33 -6 45 c-4 35 -3 42 6 30 10 -12 11 -10 6 10 -3 14 -6 30 -6 35 0 6 -9
-4 -19 -21 -38 -63 -150 -102 -230 -81 -29 7 -39 5 -65 -15 -25 -19 -44 -23
-97 -23 -57 0 -73 4 -118 33 -29 17 -54 32 -57 32 -2 0 -4 -9 -4 -20 0 -15 7
-20 24 -20 38 0 66 -43 66 -100 0 -42 -4 -52 -31 -74 -60 -51 -148 -25 -144
42 1 27 -1 30 -16 21 -22 -11 -34 -29 -20 -29 23 0 10 -49 -19 -74 -30 -25
-30 -26 -14 -51 14 -21 14 -30 4 -55 -11 -27 -11 -32 6 -45 11 -8 24 -15 30
-15 7 0 19 -12 29 -26 14 -22 15 -31 5 -49 -6 -12 -11 -31 -10 -41 3 -29 1
-48 -6 -41 -3 3 -17 2 -29 -3 -16 -6 -36 -4 -63 7 -34 13 -41 20 -46 53 -3 21
-3 45 0 53 3 9 -3 16 -16 20 -17 4 -20 2 -15 -11 21 -48 18 -63 -22 -101 -30
-28 -49 -38 -76 -39 -45 -2 -69 20 -61 54 4 13 1 31 -6 39 -10 12 -9 16 4 21
9 3 16 10 16 16 0 5 -4 6 -10 3 -21 -13 -9 25 13 39 29 19 82 32 74 19 -4 -6
0 -14 9 -17 24 -9 25 -8 11 27 -16 40 -12 65 16 101 15 18 35 30 57 32 35 4
55 14 27 14 -9 0 -22 8 -29 19 -9 13 -26 19 -61 19 -68 2 -153 43 -204 98 -25
27 -47 43 -54 39 -8 -5 -9 -1 -4 14 3 12 -1 44 -11 73 -43 131 36 287 172 338
112 41 224 19 307 -61 28 -27 53 -45 57 -40 46 75 112 120 171 117 24 -2 36 2
36 11 0 7 -3 13 -7 13 -8 0 -7 67 3 76 4 4 7 15 7 24 0 28 75 91 132 110 53
18 49 19 -462 19 l-516 1 -1 -62z m298 -878 c3 -53 -8 -76 -47 -95 -28 -13
-41 -14 -69 -5 -19 6 -37 20 -40 31 -4 10 -11 19 -16 19 -13 0 -11 58 4 76 30
37 50 49 90 54 37 4 44 2 59 -20 9 -14 18 -41 19 -60z m-142 -402 c23 -14 28
-28 10 -28 -5 0 -7 -5 -3 -12 4 -7 3 -8 -4 -4 -18 11 -63 -35 -88 -91 -19 -43
-28 -53 -48 -53 -14 0 -28 -5 -32 -11 -4 -7 -17 0 -35 17 -80 77 9 211 133
199 26 -2 56 -10 67 -17z"/>
<path d="M1700 1617 c0 -29 15 -51 29 -43 6 4 11 1 11 -7 0 -37 95 -108 132
-100 12 3 19 -4 24 -23 15 -58 -50 -124 -121 -124 -27 0 -32 -18 -15 -50 5
-10 11 -32 12 -49 1 -17 3 -31 4 -31 1 0 11 16 23 35 14 24 30 37 51 41 16 4
30 9 30 13 0 13 139 -6 164 -23 56 -36 94 -84 106 -135 9 -39 16 -51 31 -51
16 0 18 5 12 47 -6 44 -5 46 16 40 39 -10 107 29 132 76 8 14 6 17 -11 17 -12
0 -18 -4 -15 -10 3 -5 -1 -10 -9 -10 -18 0 -21 16 -6 25 15 9 12 45 -4 45 -10
0 -14 9 -12 28 1 18 7 26 17 24 9 -1 16 4 16 13 0 8 -4 12 -9 9 -4 -3 -13 -2
-20 2 -8 5 -6 11 6 20 10 7 17 15 17 18 -3 20 1 25 14 20 8 -4 15 -1 15 6 0 9
7 7 20 -5 25 -23 26 -39 2 -26 -14 7 -19 6 -19 -4 0 -7 9 -16 19 -18 10 -3 18
-1 18 5 0 5 5 6 11 3 11 -7 9 26 -3 35 -12 10 -13 45 0 42 6 -1 11 1 11 5 -4
25 3 42 14 37 8 -3 20 2 27 11 7 8 16 15 21 15 18 0 8 -28 -18 -54 -14 -14
-23 -30 -19 -34 4 -4 12 1 17 11 12 20 44 24 36 3 -3 -7 0 -19 6 -26 8 -9 9
-11 1 -7 -7 4 -17 0 -24 -8 -6 -7 -19 -11 -28 -8 -9 3 -2 -9 17 -27 36 -33 36
-34 -11 -60 -13 -8 -23 -3 -45 18 -25 24 -57 38 -50 21 1 -4 -6 -16 -17 -28
-10 -11 -16 -27 -13 -36 9 -23 27 -18 28 8 1 19 2 19 6 3 4 -15 7 -16 14 -5 7
11 9 11 9 -3 0 -10 -5 -18 -11 -18 -5 0 -8 -4 -5 -9 4 -5 0 -11 -6 -14 -7 -2
8 -3 34 -3 40 1 52 -4 75 -28 l28 -29 -29 21 c-42 32 -49 27 -13 -10 20 -21
35 -29 40 -23 5 6 7 -5 4 -22 -4 -40 0 -42 13 -7 9 22 13 24 25 14 14 -11 14
-15 -1 -31 -10 -11 -15 -21 -12 -24 3 -3 13 6 22 20 9 14 22 23 28 19 6 -4 21
-8 32 -10 12 -1 26 -3 31 -4 6 -1 25 -2 43 -1 31 1 32 3 32 41 0 25 5 40 13
40 7 0 4 7 -7 15 -11 8 -15 15 -9 15 14 0 34 -25 26 -33 -3 -4 -2 -7 4 -7 5 0
10 -6 11 -12 10 -84 20 -138 21 -115 0 15 6 27 12 27 5 0 7 5 3 12 -5 7 -2 9
8 5 18 -6 53 26 44 41 -3 5 1 15 9 22 23 19 19 25 -25 45 -125 56 -181 256
-100 356 l31 39 -76 0 c-99 0 -119 -15 -110 -85 6 -51 20 -85 35 -85 6 0 10
-6 10 -14 0 -8 8 -21 18 -28 20 -13 40 -88 24 -88 -16 0 -93 72 -108 102 -28
55 -45 127 -38 163 l6 36 -401 -1 -401 -1 0 -22z"/>
<path d="M2821 1614 c-10 -13 -24 -24 -30 -24 -11 0 -15 -19 -13 -52 1 -11 -3
-15 -13 -12 -34 14 -30 -115 6 -158 45 -54 72 -76 99 -82 31 -6 60 1 60 14 0
4 10 5 23 3 17 -3 37 8 74 41 l50 45 1 121 c1 100 -1 122 -14 127 -23 9 -29
-5 -11 -25 10 -10 17 -25 17 -33 0 -7 -14 3 -31 24 l-31 38 -84 -2 c-76 -1
-86 -4 -103 -25z"/>
<path d="M1330 1364 c-43 -14 -100 -47 -95 -55 4 -5 1 -9 -5 -9 -6 0 -8 -5 -4
-12 5 -8 2 -9 -9 -5 -25 10 -20 -11 6 -24 32 -17 32 -18 12 -33 -17 -12 -16
-14 13 -24 35 -12 42 -28 15 -35 -10 -3 -3 -5 15 -6 25 -1 32 3 32 18 0 11 7
26 15 35 8 8 15 25 15 38 0 13 6 33 14 43 14 19 10 55 -6 55 -5 0 -6 5 -3 10
3 6 5 10 3 9 -2 0 -10 -3 -18 -5z"/>
<path d="M2740 1034 c0 -34 -46 -113 -88 -150 -21 -19 -23 -23 -7 -17 41 14
68 38 86 78 17 37 19 38 19 13 0 -16 -8 -36 -17 -46 -10 -10 -19 -25 -21 -33
-4 -21 -50 -58 -80 -65 -15 -3 -41 -12 -59 -19 -18 -8 -35 -11 -37 -6 -5 7 15
15 89 36 11 3 34 17 50 30 l30 25 -62 -25 c-35 -14 -82 -25 -106 -25 l-43 0
-2 -59 c-2 -70 -22 -121 -67 -176 -39 -48 -130 -96 -195 -103 -52 -6 -60 -14
-60 -63 0 -45 -30 -75 -87 -84 -52 -8 -106 8 -131 39 -18 23 -18 23 -19 -50
-1 -60 -6 -80 -26 -109 -21 -31 -23 -40 -13 -60 6 -14 16 -25 21 -25 6 0 3 -4
-5 -10 -8 -5 -11 -13 -6 -17 4 -4 13 0 20 9 16 22 26 13 27 -26 0 -17 3 -25 6
-18 4 10 7 10 17 -2 6 -8 31 -21 56 -30 25 -8 38 -15 29 -16 -9 0 -22 -7 -29
-15 -11 -13 -2 -15 74 -14 l86 2 27 36 26 36 -31 -29 c-36 -33 -39 -25 -16 33
16 41 47 58 84 46 13 -4 24 6 44 40 16 27 32 43 38 39 6 -4 8 -3 4 4 -9 16 62
70 117 88 69 23 177 16 239 -15 78 -40 141 -122 154 -201 l6 -35 51 3 c44 3
57 0 82 -22 38 -33 65 -34 65 -2 0 19 -9 27 -47 41 -76 28 -99 56 -107 126 -3
34 -2 69 4 79 11 21 110 80 134 80 23 0 20 19 -6 40 l-22 17 22 7 c21 7 22 12
22 157 0 90 -4 149 -10 149 -6 0 -6 9 0 26 6 14 10 57 10 95 0 68 -1 70 -22
64 -18 -5 -20 -4 -8 4 12 8 5 11 -27 11 -23 0 -43 5 -45 11 -2 6 -24 12 -48
13 -24 2 -46 8 -48 14 -2 7 -15 12 -28 12 -13 0 -24 4 -24 9 0 16 -32 22 -48
9 -12 -10 -14 -10 -8 0 4 6 2 12 -3 12 -6 0 -11 8 -11 18 0 9 -5 24 -10 32 -7
11 -10 8 -10 -16z m-637 -735 c61 -30 78 -63 73 -139 -3 -38 -1 -58 5 -54 11
7 2 -42 -13 -66 -6 -10 -8 -3 -5 23 1 20 0 37 -4 37 -15 0 -50 82 -43 103 6
22 6 22 -10 2 -14 -18 -15 -18 -16 -2 0 9 -8 17 -17 17 -15 0 -16 -2 -3 -10
10 -7 11 -10 2 -10 -7 0 -17 11 -23 24 -13 28 -45 40 -53 21 -2 -7 5 -21 17
-29 l22 -17 -22 11 c-31 14 -40 13 -18 -3 11 -9 15 -19 10 -27 -6 -10 -3 -12
13 -8 12 4 20 2 17 -3 -3 -4 8 -15 25 -24 31 -16 32 -35 2 -36 -9 0 0 -7 21
-16 50 -21 48 -37 -5 -29 -51 8 -61 14 -54 32 3 8 0 11 -10 7 -24 -9 -62 25
-75 66 -10 34 -9 43 11 78 23 41 63 72 92 73 10 0 37 -10 61 -21z"/>
<path d="M2092 837 c-12 -6 -25 -21 -28 -34 -4 -12 -10 -23 -15 -23 -5 0 -9
-9 -9 -20 0 -19 -14 -29 -62 -44 -12 -3 -15 -11 -10 -28 l7 -23 3 23 c2 16 10
22 27 22 13 0 27 -5 30 -10 4 -6 11 -8 16 -5 14 9 29 -4 22 -21 -3 -8 -12 -13
-19 -10 -8 3 -11 0 -8 -9 11 -27 -6 -37 -34 -19 l-25 17 22 -31 c25 -36 73
-67 116 -75 27 -6 28 -5 8 5 -13 6 -23 15 -23 21 0 5 -6 7 -13 4 -8 -3 -20 -1
-28 3 -11 7 -10 15 6 47 10 21 17 44 16 52 -1 7 2 10 8 6 6 -3 11 -2 11 4 0 5
-7 11 -16 13 -18 3 -29 67 -13 69 5 1 15 2 22 3 6 1 18 -7 25 -17 11 -14 17
-15 28 -6 14 12 9 33 -6 24 -5 -3 -14 4 -20 15 -9 18 -8 20 15 20 15 0 24 4
20 10 -4 6 -10 8 -15 5 -5 -3 -14 1 -22 8 -10 10 -19 11 -36 4z"/>
</g>
</svg>
