<?xml version="1.0" standalone="no"?>
<!DOCTYPE svg PUBLIC "-//W3C//DTD SVG 20010904//EN"
 "http://www.w3.org/TR/2001/REC-SVG-20010904/DTD/svg10.dtd">
<svg version="1.0" xmlns="http://www.w3.org/2000/svg"
 width="1920.000000pt" height="1080.000000pt" viewBox="0 0 1920.000000 1080.000000"
 preserveAspectRatio="xMidYMid meet">
<metadata>
Created by potrace 1.15, written by Peter Selinger 2001-2017
</metadata>
<g transform="translate(0.000000,1080.000000) scale(0.100000,-0.100000)"
fill="#000000" stroke="none">
<path d="M9689 10274 c-11 -14 -10 -19 9 -34 12 -10 22 -28 22 -41 0 -12 -3
-19 -7 -16 -3 4 -16 -2 -28 -13 -18 -17 -27 -19 -48 -11 -17 7 -28 7 -32 1 -4
-6 5 -15 19 -20 69 -27 80 -33 69 -37 -21 -8 -89 16 -131 47 -32 23 -42 37
-42 58 1 26 1 26 15 8 8 -11 15 -23 15 -28 0 -4 14 -8 31 -8 31 0 31 1 24 38
-11 59 -38 81 -50 42 -3 -11 -15 -20 -25 -20 -26 0 -51 -38 -44 -67 4 -14 2
-23 -5 -23 -9 0 -9 -5 -1 -21 13 -23 119 -94 128 -85 3 4 -3 12 -13 20 -14 10
-15 15 -5 21 8 5 17 2 24 -7 10 -14 14 -14 31 -2 10 8 25 14 32 14 21 0 27
-29 10 -48 -9 -9 -16 -21 -17 -27 -1 -13 -58 -7 -92 10 -15 7 -37 11 -48 8
-13 -4 -20 0 -20 9 0 8 -12 25 -26 39 -21 20 -25 31 -22 66 3 37 1 40 -15 31
-10 -5 -21 -16 -24 -24 -3 -8 -20 -21 -39 -29 -43 -18 -53 -53 -29 -105 12
-26 15 -52 12 -81 -3 -24 -4 -36 -1 -26 6 19 29 23 39 7 4 -6 29 -22 56 -35
27 -14 49 -32 49 -40 0 -8 5 -15 11 -15 5 0 7 5 4 10 -4 7 3 8 22 4 15 -4 30
-8 32 -10 8 -7 -32 -44 -40 -38 -5 3 -9 -2 -9 -11 0 -8 -6 -18 -13 -21 -8 -3
-14 -11 -14 -20 0 -8 30 17 66 56 40 42 74 70 86 70 11 0 31 7 43 16 19 13 23
25 22 67 -1 105 5 232 12 243 6 10 -11 77 -24 89 -3 3 -11 -2 -19 -11z m-258
-230 c16 -19 26 -18 32 6 3 11 10 20 15 20 14 0 23 -43 12 -54 -26 -26 8 -41
47 -21 38 20 56 19 50 -2 -2 -10 -6 -24 -8 -32 -3 -8 14 -20 46 -32 l50 -19
-52 4 c-29 3 -55 1 -58 -5 -10 -16 -25 -10 -25 11 0 11 -4 20 -9 20 -6 0 -27
10 -48 22 -20 13 -47 21 -60 20 -31 -4 -61 42 -45 69 10 16 9 19 -3 19 -23 0
-18 20 8 29 18 7 23 4 29 -16 4 -13 12 -31 19 -39z"/>
<path d="M10001 9496 c-24 -24 -41 -48 -37 -54 3 -5 19 -15 36 -22 23 -10 30
-19 30 -41 0 -15 4 -30 9 -33 5 -3 34 23 65 58 58 66 58 76 1 76 -16 0 -26 9
-35 30 -7 17 -15 30 -19 30 -4 0 -26 -20 -50 -44z"/>
<path d="M9055 9501 c-55 -9 -59 -12 -85 -79 -19 -49 -27 -58 -43 -54 -14 4
-18 1 -15 -9 3 -8 12 -13 21 -11 12 2 15 -2 10 -14 -5 -13 -3 -15 7 -9 10 6
12 4 7 -8 -14 -36 99 -104 152 -90 15 4 20 0 18 -14 -1 -17 -7 -19 -42 -16
-22 2 -60 8 -84 14 -24 5 -46 7 -49 4 -13 -13 19 -26 84 -36 38 -5 79 -14 91
-19 16 -7 25 -6 30 3 4 8 24 18 43 23 19 6 34 16 32 23 -1 7 2 9 8 6 14 -8 59
31 71 62 6 15 14 20 28 16 15 -4 21 -1 21 11 0 9 -8 16 -18 16 -18 0 -44 48
-46 82 -1 17 -6 20 -23 17 -42 -9 -52 -2 -118 74 -16 18 -32 19 -100 8z"/>
<path d="M10215 9303 c-28 -31 -51 -60 -53 -65 -3 -7 15 -12 45 -11 7 1 22
-15 34 -33 11 -19 22 -34 24 -34 9 0 85 86 85 96 0 6 -15 17 -32 25 -18 8 -33
21 -34 29 -4 65 -7 65 -69 -7z"/>
<path d="M10363 9078 c-14 -24 -27 -33 -47 -34 -15 -1 -30 -5 -34 -8 -8 -8
110 -126 120 -120 4 3 8 18 8 34 0 22 8 33 37 50 l36 21 -44 45 c-24 24 -46
44 -50 44 -4 0 -16 -15 -26 -32z"/>
<path d="M10160 8890 c0 -25 -7 -35 -36 -52 l-35 -21 48 -49 47 -48 18 35 c13
24 25 35 41 35 49 0 48 15 -7 73 -30 31 -59 57 -65 57 -6 0 -11 -14 -11 -30z"/>
<path d="M10015 8519 c6 -9 3 -11 -8 -6 -11 4 -17 1 -17 -7 0 -17 -45 -27 -59
-13 -8 8 -11 6 -11 -6 0 -9 -5 -17 -11 -17 -5 0 -7 5 -3 12 4 7 3 8 -4 4 -7
-4 -12 -13 -12 -21 0 -14 -27 -28 -40 -20 -5 3 -11 1 -15 -5 -4 -6 -11 -8 -16
-4 -5 3 -8 0 -7 -7 2 -7 -7 -15 -20 -18 -13 -3 -22 -10 -20 -15 2 -5 -8 -16
-22 -25 -24 -15 -25 -15 -10 4 10 15 10 17 0 8 -13 -12 -37 -67 -47 -110 -7
-31 -23 -29 -23 2 0 14 4 25 8 25 5 0 9 7 9 15 0 26 -16 5 -27 -36 -6 -22 -8
-65 -4 -98 l6 -59 67 -30 c113 -52 172 -63 371 -71 178 -7 188 -9 270 -41 207
-82 249 -73 320 65 17 32 30 74 30 94 0 45 -19 29 -21 -19 -3 -49 -17 -76 -32
-60 -8 9 -9 14 -1 16 6 3 8 18 6 36 -3 17 -1 28 5 25 5 -3 7 9 5 28 -2 18 1
36 7 39 6 4 11 13 11 19 0 7 -4 6 -10 -3 -8 -13 -11 -12 -24 5 -18 25 -10 40
12 23 12 -9 11 -6 -2 10 -11 12 -24 22 -30 22 -6 0 -4 -5 4 -10 8 -5 11 -10 7
-10 -8 0 -58 30 -67 41 -3 3 -26 16 -52 29 -26 13 -45 27 -42 32 3 4 -10 7
-28 6 -27 -3 -33 0 -31 15 1 14 -4 18 -19 14 -24 -7 -80 12 -72 24 3 5 -2 9
-10 9 -9 0 -16 6 -16 14 0 8 -7 17 -16 20 -8 3 -12 2 -9 -4 3 -6 -1 -10 -9
-10 -9 0 -16 4 -16 9 0 5 -11 12 -25 15 -15 4 -23 11 -19 17 4 7 -1 9 -15 4
-23 -7 -66 17 -53 30 4 4 -2 5 -13 1 -40 -15 -93 -18 -115 -6 -18 10 -21 9
-15 -1z m215 -110 c30 -11 71 -29 90 -38 72 -36 146 -71 190 -89 71 -30 110
-68 110 -107 0 -50 -18 -58 -102 -50 -40 4 -77 10 -83 14 -27 17 -169 33 -340
37 -206 4 -278 15 -312 44 -35 28 -30 70 12 106 47 39 114 76 126 69 5 -4 9
-2 9 3 0 14 25 22 89 29 31 3 58 8 61 10 9 9 95 -7 150 -28z m-455 -233 c75
-28 115 -33 295 -41 145 -6 193 -13 288 -41 12 -3 22 -10 22 -15 0 -4 8 -8 18
-8 9 0 37 -5 62 -12 25 -6 79 -14 120 -18 61 -5 70 -8 48 -15 -15 -4 -47 -6
-70 -4 -51 6 -166 35 -190 48 -10 6 -26 10 -36 10 -10 0 -23 5 -29 11 -7 7
-94 14 -235 19 -173 6 -232 11 -263 24 -21 9 -42 20 -45 24 -3 4 -17 15 -32
25 -16 10 -28 23 -28 30 1 8 5 7 13 -3 7 -8 35 -23 62 -34z"/>
<path d="M10087 8414 c-1 -2 -25 -4 -52 -5 -33 -2 -74 -16 -128 -42 -69 -35
-143 -87 -122 -87 4 0 3 -6 -3 -13 -9 -10 -4 -17 19 -31 25 -15 66 -20 237
-26 114 -5 228 -13 254 -19 70 -16 243 -41 282 -41 30 0 34 2 29 23 -7 28 -32
57 -50 57 -8 0 -11 5 -8 10 3 6 -1 10 -10 10 -20 0 -239 100 -243 112 -2 4
-13 8 -23 8 -11 0 -17 5 -14 10 4 6 3 10 -2 9 -27 -5 -53 2 -47 13 4 7 3 8 -4
4 -7 -4 -17 -4 -23 0 -11 6 -87 13 -92 8z m105 -78 c66 -18 180 -76 186 -95 4
-11 0 -12 -14 -6 -11 4 -59 11 -109 15 -49 5 -119 11 -155 15 -36 3 -102 2
-148 -2 -50 -6 -85 -5 -89 0 -9 14 40 57 83 72 51 18 179 19 246 1z"/>
<path d="M8784 8481 c-44 -11 -121 -51 -144 -76 -85 -90 3 -369 146 -464 50
-33 64 -37 64 -21 0 6 -7 10 -15 10 -13 0 -14 2 -3 14 18 19 23 13 27 -29 0
-8 8 -15 16 -15 8 0 15 -4 15 -9 0 -12 36 -21 47 -11 17 16 59 18 88 4 29 -14
29 -14 -22 -9 -67 7 -78 -10 -13 -19 55 -7 147 2 156 15 3 5 16 9 30 9 13 0
24 5 24 11 0 5 4 8 9 5 11 -7 91 50 91 65 0 6 7 17 15 25 8 9 18 27 22 42 3
15 11 30 16 34 16 10 12 198 -6 238 -25 58 -77 105 -77 70 0 -5 5 -10 11 -10
17 0 69 -126 69 -167 0 -21 -7 -59 -15 -85 -7 -26 -12 -57 -10 -68 2 -11 0
-20 -6 -20 -5 0 -9 -5 -9 -11 0 -6 -7 -17 -15 -26 -8 -8 -13 -19 -10 -24 4 -5
-3 -9 -14 -9 -11 0 -25 -8 -30 -17 -6 -10 -11 -15 -11 -11 0 4 -15 2 -32 -3
-18 -6 -54 -12 -79 -13 -26 -2 -52 -7 -58 -11 -7 -4 -15 -4 -18 -1 -4 3 -1 6
6 6 7 0 10 4 6 10 -3 5 -25 9 -49 8 -24 0 -49 3 -55 6 -6 4 -23 10 -38 12 -33
6 -89 62 -109 110 -14 34 -14 120 1 144 3 5 1 10 -4 10 -6 0 -11 -6 -11 -12 0
-9 -3 -8 -9 2 -12 18 -5 30 18 30 18 0 46 45 42 68 -1 6 3 12 9 12 19 0 110
65 116 84 5 14 13 17 39 13 38 -6 75 1 75 14 0 5 -19 9 -42 9 -32 0 -39 3 -28
10 20 13 90 13 90 0 0 -11 61 -12 100 -1 24 7 24 7 5 15 -86 35 -336 57 -421
37z"/>
<path d="M9828 7910 c-45 -24 -83 -73 -95 -120 -8 -32 -13 -35 -64 -45 -141
-29 -223 -128 -224 -270 0 -59 5 -78 30 -124 55 -100 145 -148 261 -138 143
11 236 112 241 261 l2 79 38 23 c62 38 88 86 88 164 0 76 -22 119 -83 161 -48
33 -142 37 -194 9z"/>
<path d="M9333 7817 c5 -12 -1 -15 -25 -11 -17 2 -46 -4 -65 -12 -25 -13 -36
-14 -47 -5 -10 9 -21 7 -45 -6 -17 -10 -31 -21 -31 -25 0 -5 -7 -8 -16 -8 -14
0 -15 -2 -3 -17 13 -17 13 -17 -5 -3 -16 13 -20 12 -35 -5 -9 -11 -25 -22 -36
-23 -11 -2 -22 -7 -25 -12 -3 -4 -22 -13 -42 -21 -21 -7 -38 -17 -38 -22 0 -5
-7 -7 -15 -4 -8 4 -17 2 -20 -3 -4 -6 -23 -10 -43 -11 -37 -1 -188 -36 -164
-38 23 -2 12 -22 -21 -36 -35 -14 -81 -56 -83 -74 -3 -24 -5 -25 -14 -11 -8
11 -9 7 -4 -15 15 -69 67 -92 178 -80 60 6 64 8 70 36 7 37 71 73 86 49 7 -11
3 -17 -13 -24 -24 -10 -33 -13 -45 -15 -18 -2 -31 -48 -19 -61 9 -10 9 -11 0
-6 -24 14 -13 -14 12 -30 37 -24 115 -14 255 31 150 49 252 98 284 136 29 34
34 84 12 114 -12 17 -11 24 5 54 21 39 25 91 8 91 -5 0 -7 4 -4 10 9 14 -12
48 -37 61 -18 9 -20 9 -15 -4z"/>
<path d="M11183 7620 c3 -11 1 -18 -3 -15 -5 3 -16 -10 -25 -30 -10 -19 -34
-50 -56 -69 -21 -20 -34 -38 -29 -41 6 -4 10 -11 10 -18 0 -6 -6 -3 -13 7 -12
16 -47 14 -47 -3 0 -4 -6 -8 -12 -9 -35 -3 -88 -29 -88 -42 0 -9 3 -11 8 -5 6
9 39 11 95 7 9 -1 17 -6 17 -12 0 -6 -32 -10 -75 -10 -43 0 -75 4 -75 10 0 6
5 10 12 10 6 0 8 3 4 7 -4 5 -14 -1 -22 -11 -8 -11 -14 -14 -14 -8 0 10 -5 10
-20 2 -12 -6 -43 -13 -71 -15 -27 -1 -55 -8 -62 -13 -7 -6 -31 -9 -55 -6 -23
2 -42 0 -42 -5 0 -9 -174 -6 -188 3 -4 3 -41 6 -81 7 -72 2 -113 12 -159 37
-12 7 -28 10 -34 6 -6 -4 -8 -3 -5 2 3 6 2 16 -4 24 -11 19 -12 -18 0 -78 19
-96 98 -132 306 -138 138 -4 347 16 387 37 10 5 29 9 43 9 14 0 25 4 25 8 0 4
14 9 31 10 17 1 49 11 72 22 22 11 45 20 50 20 16 0 38 30 31 42 -6 9 -3 9 9
-1 15 -12 21 -9 18 12 0 4 2 6 7 6 19 -3 25 2 12 12 -12 8 -10 9 10 7 19 -2
26 2 28 20 2 12 8 22 13 22 5 0 9 45 9 100 0 67 -4 100 -11 100 -6 0 -9 -9 -6
-20z"/>
<path d="M8075 7366 c-49 -7 -128 -25 -175 -41 l-85 -29 41 -12 c54 -16 82
-31 216 -115 127 -79 190 -135 221 -194 41 -79 18 -223 -46 -294 -21 -23 -21
-24 -2 -17 11 4 63 30 115 59 229 125 290 269 195 458 -90 178 -121 199 -285
198 -58 -1 -145 -7 -195 -13z"/>
<path d="M11138 7217 c-91 -26 -142 -74 -233 -217 -26 -41 -58 -84 -70 -95
-17 -15 -24 -33 -27 -69 l-3 -50 60 -11 c33 -7 92 -27 130 -46 69 -33 73 -34
200 -34 122 0 134 2 187 28 31 15 72 45 92 67 35 39 66 119 66 170 0 51 -31
131 -65 169 -71 78 -227 119 -337 88z m174 -33 c34 -6 78 -35 78 -53 0 -18
-15 -19 -61 0 -93 36 -183 18 -274 -57 -54 -44 -89 -45 -55 -2 44 56 198 131
250 123 14 -2 41 -7 62 -11z"/>
<path d="M9119 7195 c18 -8 41 -15 50 -15 13 0 13 -2 2 -9 -9 -6 -30 -3 -56 7
-23 8 -50 12 -61 8 -13 -5 14 -22 110 -66 70 -33 130 -60 133 -60 3 0 -2 9
-13 21 -16 18 -10 17 41 -9 142 -72 244 -108 157 -56 -24 14 -41 28 -39 30 2
3 52 -14 112 -37 l107 -42 -6 -41 c-6 -36 -5 -39 7 -26 8 8 17 30 21 48 6 35
13 30 -104 81 -23 10 -22 10 10 5 72 -13 13 12 -265 111 -66 23 -133 47 -148
54 -16 6 -43 11 -60 11 l-32 -1 34 -14z"/>
<path d="M10525 6299 c-4 -11 6 -39 26 -73 26 -48 30 -63 25 -97 -9 -56 -38
-110 -74 -136 -34 -25 -97 -39 -115 -26 -20 16 -47 23 -47 12 0 -6 13 -24 29
-40 25 -24 37 -29 81 -29 63 0 104 20 122 60 11 25 19 30 48 30 47 0 101 29
121 65 18 30 22 67 19 140 l-1 40 -19 -55 c-27 -79 -120 -158 -120 -102 0 39
-32 138 -48 150 -9 7 -22 27 -28 45 -9 25 -13 28 -19 16z"/>
<path d="M8943 6270 c-64 -37 -124 -110 -153 -187 -18 -48 -21 -72 -17 -138 2
-44 12 -98 22 -120 9 -22 17 -57 16 -78 -1 -40 17 -85 43 -106 9 -8 16 -21 16
-31 0 -16 23 -47 73 -98 14 -14 21 -32 19 -50 -4 -35 19 -57 78 -72 77 -19 80
-21 80 -41 0 -19 -4 -20 -72 -13 -40 3 -77 10 -82 15 -6 5 -22 9 -36 9 -14 0
-42 9 -61 19 -43 23 -79 18 -79 -12 0 -15 3 -18 11 -10 8 8 21 7 47 -3 109
-39 184 -56 227 -52 44 5 67 -4 45 -17 -10 -6 -117 -25 -150 -27 -8 0 -33 -14
-54 -29 -22 -16 -48 -29 -57 -29 -35 0 -53 -57 -21 -68 7 -2 10 2 7 10 -7 18
108 80 156 84 20 2 56 10 80 18 33 12 45 12 51 3 13 -21 9 -25 -39 -43 -76
-28 -90 -41 -97 -86 -4 -23 -14 -54 -24 -70 -12 -21 -14 -33 -6 -45 16 -26 32
-26 32 -1 0 44 34 148 49 148 7 0 31 9 53 20 22 11 42 20 45 20 13 0 22 -46
14 -69 -17 -43 -19 -150 -5 -217 15 -69 10 -105 -16 -121 -27 -16 -58 -66 -58
-93 0 -51 62 -85 109 -60 15 7 20 4 29 -15 14 -30 65 -34 94 -8 14 13 21 14
30 5 19 -19 71 -14 100 11 41 34 42 57 6 112 -19 30 -31 60 -29 75 4 36 28
107 47 135 14 21 14 36 5 108 -8 61 -8 92 0 115 l11 31 38 -19 c22 -11 48 -20
58 -20 13 0 23 -12 32 -42 8 -24 20 -56 28 -72 12 -24 12 -30 0 -37 -9 -6 -7
-9 10 -9 32 0 38 26 14 68 -11 20 -23 52 -27 70 -7 35 -32 52 -102 71 -33 9
-43 17 -43 33 0 16 4 19 23 14 12 -4 49 -9 82 -12 75 -7 198 -61 190 -84 -5
-12 -3 -12 11 2 19 19 13 46 -13 54 -10 3 -41 16 -69 30 -33 16 -78 27 -129
32 -48 4 -80 12 -83 20 -2 8 11 12 47 12 28 0 65 6 83 14 85 37 170 66 179 61
5 -4 9 3 9 14 0 25 -35 29 -66 7 -31 -22 -132 -53 -196 -61 -53 -7 -58 -6 -58
12 0 15 13 24 55 37 55 17 95 48 95 72 0 7 25 38 55 69 30 31 55 65 55 76 0
10 3 19 8 19 16 0 52 68 52 98 0 17 12 67 26 109 22 65 26 91 22 158 -5 96
-36 162 -111 236 -50 49 -114 83 -103 54 3 -8 1 -17 -4 -20 -5 -3 -7 -12 -3
-21 3 -8 -12 -62 -32 -120 -37 -104 -38 -107 -24 -162 7 -32 13 -94 14 -139 0
-76 3 -86 33 -128 17 -25 32 -49 32 -53 0 -7 -52 -42 -63 -42 -2 0 -10 13 -17
29 -6 16 -20 37 -30 46 -18 16 -19 16 -26 -10 -4 -14 -1 -38 5 -52 7 -14 10
-26 9 -27 -2 0 -19 -9 -39 -19 -20 -11 -45 -17 -55 -15 -31 6 -66 110 -73 218
-4 69 -8 87 -14 68 -11 -40 -27 -34 -28 10 -2 33 -2 34 -6 7 -5 -30 -23 -60
-23 -37 0 28 -20 9 -25 -25 -4 -21 -11 -53 -17 -72 -14 -45 -89 -169 -106
-176 -8 -3 -26 4 -42 15 -15 11 -35 20 -42 20 -22 0 -28 11 -17 31 7 13 6 27
-4 45 l-14 26 -21 -27 c-12 -15 -22 -32 -22 -37 0 -4 -11 -1 -25 8 l-25 16 31
35 c40 46 47 68 50 150 1 37 8 85 16 107 19 55 16 89 -13 185 -15 48 -27 107
-28 133 0 27 -3 48 -6 48 -3 0 -29 -14 -57 -30z"/>
<path d="M7359 5991 c-140 -45 -294 -143 -345 -221 -36 -54 -44 -130 -19 -176
22 -41 103 -84 157 -84 55 0 94 24 129 78 l31 47 -7 -52 c-5 -41 -3 -59 11
-82 22 -37 100 -81 144 -81 96 0 160 117 145 265 -15 145 -68 305 -100 305 -8
0 -22 -14 -30 -31 -20 -37 -30 -33 -15 5 19 51 -6 57 -101 27z m31 -91 c0 -78
-62 -195 -119 -224 -45 -24 -107 -3 -135 45 -30 50 5 111 101 175 110 74 153
75 153 4z"/>
<path d="M11140 5458 c58 -37 110 -80 110 -89 0 -19 -20 -8 -64 36 -26 25 -54
45 -63 45 -9 0 2 -13 25 -30 23 -17 42 -35 42 -40 0 -19 -27 -10 -55 20 -16
17 -33 30 -38 30 -5 0 2 -12 17 -26 31 -32 33 -44 7 -44 -10 0 -26 11 -35 25
-9 14 -22 25 -28 25 -6 0 -3 -9 7 -20 10 -11 15 -23 11 -27 -4 -4 -16 3 -27
17 l-20 25 7 -29 7 -28 -29 18 c-26 17 -28 17 -15 1 16 -20 9 -22 -22 -5 -21
10 -21 10 -7 -7 14 -17 13 -18 -13 -11 -21 5 -27 4 -21 -5 5 -9 1 -10 -14 -7
-12 4 -22 2 -22 -2 0 -5 -44 -33 -97 -62 -97 -52 -148 -74 -138 -58 12 19 -73
27 -110 9 -14 -6 -2 -8 40 -5 33 3 51 2 40 0 -45 -11 -50 -15 -36 -23 25 -16
-7 -49 -116 -122 -121 -81 -235 -139 -290 -146 -38 -5 -38 -4 -71 59 -41 81
-119 183 -137 182 -8 -1 -12 2 -10 7 8 12 -74 51 -93 44 -12 -4 1 -16 46 -43
34 -20 62 -40 62 -44 0 -4 -16 4 -36 17 -35 24 -54 31 -54 20 0 -2 13 -11 28
-19 16 -8 52 -36 80 -61 29 -26 52 -43 52 -38 1 9 70 -108 70 -118 0 -12 -31
-19 -48 -10 -27 13 -82 21 -82 12 0 -5 18 -12 40 -16 47 -8 46 -23 -2 -18
l-33 3 35 -11 c22 -7 86 -9 170 -6 149 5 233 26 347 88 191 103 283 150 283
142 0 -4 4 -3 8 4 12 19 153 70 227 81 70 11 157 5 273 -19 50 -10 52 -11 45
-37 -5 -15 -8 -67 -8 -117 0 -80 3 -95 28 -137 26 -46 95 -98 128 -98 8 0 -6
10 -30 22 -92 45 -135 155 -108 274 9 36 18 68 20 71 3 2 32 -4 66 -14 l61
-18 -26 -37 c-15 -20 -23 -42 -19 -48 5 -8 16 4 30 31 18 35 27 43 46 41 13
-1 26 -6 29 -10 3 -4 14 -7 25 -7 11 0 21 -7 21 -15 1 -8 2 -21 3 -27 0 -7 10
-13 21 -13 14 0 20 7 20 23 0 23 1 24 56 15 31 -5 59 -7 61 -4 2 2 -35 28 -84
58 -195 121 -303 180 -378 205 -55 18 -87 35 -104 55 -28 34 -84 72 -121 82
-20 6 -18 2 10 -16z m192 -143 c57 -14 211 -75 205 -81 -2 -2 -28 6 -57 17
-96 36 -236 60 -340 58 -158 -3 -274 -40 -442 -142 -40 -24 -89 -52 -108 -61
l-35 -17 25 20 c42 35 201 128 273 161 80 36 183 62 237 58 22 -1 43 1 47 6
10 9 122 -2 195 -19z"/>
<path d="M6900 5250 c-80 -21 -170 -56 -193 -73 -15 -11 -15 -13 8 -24 14 -6
25 -7 25 -2 0 8 60 44 63 37 1 -2 8 -14 15 -26 17 -30 13 -33 -45 -42 -36 -6
-50 -4 -56 6 -13 22 -32 16 -60 -18 -20 -23 -25 -38 -21 -57 8 -35 32 -71 51
-78 23 -9 117 43 152 83 16 18 32 31 35 28 3 -2 4 -1 1 2 -8 12 16 45 27 38 7
-5 9 -2 5 8 -4 11 2 17 21 21 15 3 36 9 46 13 14 5 17 4 12 -4 -8 -14 0 -14
29 -2 19 8 19 9 -3 9 -13 1 -21 5 -18 9 6 10 -72 -9 -92 -22 -18 -11 -62 1
-62 19 0 13 36 45 52 45 5 0 7 -6 6 -12 -2 -8 9 -14 25 -16 31 -4 38 21 10 37
-15 8 -12 11 17 24 46 20 30 19 -50 -3z"/>
<path d="M11025 5151 c-11 -5 -24 -6 -30 -4 -5 2 -1 -3 9 -11 12 -10 41 -16
70 -17 40 -1 45 -3 26 -9 -29 -8 -19 -14 45 -26 l40 -8 -35 -6 -35 -6 40 -8
c22 -4 47 -11 55 -16 10 -7 5 -8 -17 -4 -22 4 -33 3 -33 -5 0 -12 38 -15 64
-5 8 3 12 12 9 20 -6 17 9 18 26 2 10 -11 11 -10 6 3 -3 9 -27 28 -53 42 -26
15 -42 27 -36 27 7 0 35 -16 64 -35 62 -42 72 -44 39 -9 -54 58 -196 100 -254
75z"/>
<path d="M11931 4349 c-17 -23 -18 -29 -6 -53 8 -15 15 -30 16 -34 1 -4 4 -13
6 -20 7 -17 -5 -62 -17 -62 -6 0 -10 4 -10 8 0 5 -7 17 -16 28 -8 10 -13 15
-11 9 2 -5 12 -27 22 -48 20 -42 12 -57 -28 -57 -25 0 -77 -28 -110 -59 -74
-69 -78 -210 -7 -226 26 -6 37 -2 59 19 l27 26 34 -25 c44 -33 71 -32 103 5
33 37 45 37 73 3 l22 -28 32 18 c30 18 32 18 44 1 12 -16 14 -14 26 20 37 112
-43 232 -165 251 -43 6 -56 17 -36 29 5 3 19 25 30 48 l22 43 -27 -29 c-21
-23 -28 -26 -35 -15 -12 19 -12 19 9 59 25 47 34 87 22 95 -6 4 -8 11 -4 16 3
5 -8 8 -25 7 -19 -1 -37 -12 -50 -29z"/>
<path d="M11176 4312 c-12 -19 47 -41 92 -35 51 7 72 -9 96 -70 12 -32 26 -47
61 -66 50 -27 48 -22 50 -111 1 -36 5 -82 10 -103 7 -35 5 -39 -40 -85 -40
-39 -50 -56 -56 -97 -10 -57 -23 -70 -79 -79 -27 -4 -45 -15 -60 -36 -27 -38
-57 -46 -106 -25 -28 12 -54 15 -90 10 -60 -7 -94 4 -151 51 -24 20 -43 33
-43 29 0 -17 111 -120 151 -141 118 -59 290 -50 436 24 51 27 99 81 132 152
23 49 26 67 26 170 0 89 -4 122 -17 145 -9 17 -27 52 -40 80 -28 60 -90 122
-160 160 -41 22 -69 30 -129 33 -48 3 -79 0 -83 -6z"/>
<path d="M9908 4280 c-62 -11 -143 -56 -179 -100 -76 -91 -69 -230 14 -280 40
-25 80 -25 118 -3 36 21 46 53 29 93 -16 39 -32 39 -17 1 21 -55 -40 -107
-101 -85 -57 20 -88 119 -63 196 38 115 215 184 366 143 121 -32 185 -104 185
-205 0 -110 -76 -173 -144 -119 -27 21 -36 71 -16 84 6 3 10 11 10 17 0 6 -9
3 -20 -7 -13 -12 -20 -31 -20 -56 0 -101 150 -108 200 -9 69 135 -36 297 -214
329 -66 12 -80 12 -148 1z"/>
<path d="M6730 4216 c-4 -25 -11 -31 -52 -41 -61 -15 -116 -58 -139 -109 -34
-75 -18 -149 45 -212 53 -54 110 -71 184 -56 129 27 184 114 151 237 -15 54
-108 145 -149 145 -25 0 -29 4 -32 33 l-4 32 -4 -29z"/>
<path d="M12655 4215 c-14 -13 -25 -33 -25 -45 0 -13 -7 -20 -18 -20 -28 0
-43 -20 -31 -42 6 -11 9 -22 6 -24 -2 -3 8 -18 24 -34 16 -16 29 -39 29 -51 0
-12 3 -19 7 -15 13 12 11 35 -3 47 -8 6 -14 16 -14 21 0 6 6 5 15 -2 20 -17
35 -4 35 30 0 16 7 33 16 38 9 5 24 27 34 50 19 41 19 42 -3 57 -30 21 -44 19
-72 -10z"/>
<path d="M9052 4157 c-32 -30 -86 -73 -120 -96 -115 -78 -161 -141 -170 -232
-9 -95 45 -186 137 -234 105 -54 313 -54 421 1 95 47 143 119 143 214 0 104
-38 157 -182 259 -53 38 -107 82 -121 98 -41 48 -45 47 -108 -10z"/>
<path d="M8458 4064 c25 -44 -24 -102 -75 -89 l-28 7 22 -19 c19 -17 20 -21 8
-50 -7 -17 -22 -36 -33 -42 -11 -6 -24 -23 -30 -39 -13 -39 -39 -62 -68 -62
-19 0 -24 -5 -24 -25 0 -13 -7 -30 -15 -37 -9 -7 -22 -19 -31 -26 -8 -8 -20
-12 -28 -9 -7 3 -19 1 -26 -3 -27 -17 36 -22 73 -7 76 32 243 239 266 331 12
49 8 86 -10 86 -6 0 -7 -6 -1 -16z"/>
<path d="M7595 3903 c-117 -63 -159 -170 -93 -240 32 -35 103 -32 155 6 74 54
105 179 57 232 -21 24 -77 25 -119 2z"/>
<path d="M10427 3821 c4 -16 0 -18 -22 -13 -15 2 -30 1 -34 -5 -3 -5 -26 -15
-51 -22 -96 -28 -159 -141 -146 -263 16 -154 114 -228 299 -228 140 1 227 42
269 129 34 69 33 198 -2 260 -33 58 -87 100 -136 107 -21 3 -50 7 -63 10 -23
5 -23 5 -5 26 19 20 19 21 -2 14 -39 -12 -84 -15 -89 -5 -11 16 -23 10 -18
-10z"/>
<path d="M6405 3556 c-25 -24 -45 -46 -45 -48 0 -3 42 -7 93 -10 97 -4 153
-23 206 -71 l24 -22 -13 25 c-38 75 -151 170 -203 170 -9 0 -37 -20 -62 -44z"/>
<path d="M9395 3573 c-10 -15 -33 -69 -51 -121 -18 -51 -44 -111 -59 -133 -30
-46 -96 -91 -177 -121 -32 -11 -58 -25 -58 -29 0 -15 126 -10 200 7 38 8 88
28 112 44 87 59 178 212 178 298 0 52 -9 60 -57 57 -31 -2 -43 2 -43 11 0 23
-27 16 -45 -13z"/>
<path d="M9645 3492 c-19 -12 -50 -55 -85 -118 -60 -108 -144 -205 -199 -234
-50 -25 -145 -52 -210 -59 -30 -3 -56 -11 -58 -18 -8 -23 79 -38 227 -38 145
0 145 0 215 34 133 66 275 242 278 345 1 41 -18 70 -32 47 -7 -11 -10 -9 -16
8 -6 19 -12 21 -37 16 -25 -6 -29 -4 -26 11 4 25 -21 28 -57 6z"/>
<path d="M5934 3398 c-4 -6 -2 -14 4 -16 7 -2 12 -10 12 -18 0 -9 5 -25 11
-36 9 -17 13 -18 20 -7 6 10 8 7 7 -11 -2 -16 2 -24 10 -22 8 1 11 -2 8 -6 -7
-12 28 -44 39 -35 4 5 5 3 2 -3 -8 -15 40 -47 55 -38 6 4 8 3 5 -3 -9 -14 63
-43 103 -43 42 0 42 39 0 63 -16 10 -30 22 -30 26 0 5 -11 12 -25 15 -14 4
-24 10 -22 15 3 12 -85 81 -95 75 -4 -3 -8 -1 -8 4 0 10 -64 52 -80 52 -5 0
-12 -5 -16 -12z"/>
<path d="M6375 3354 c-59 -30 -61 -41 -11 -48 25 -4 48 -11 51 -17 4 -5 11 -6
17 -3 6 4 8 2 4 -4 -3 -6 -1 -14 6 -19 18 -11 61 -70 86 -118 l21 -40 1 31 c0
62 -30 134 -76 180 -24 25 -48 42 -53 39 -5 -3 -11 -1 -13 5 -2 6 -15 3 -33
-6z"/>
<path d="M13370 3317 c-23 -18 -55 -68 -68 -103 -9 -27 -6 -40 16 -85 24 -49
27 -65 27 -164 0 -60 -4 -119 -9 -130 -8 -17 -11 -11 -24 35 -8 30 -15 67 -16
82 0 14 -4 24 -8 22 -4 -3 -10 7 -14 22 -4 14 -15 42 -26 62 -18 35 -19 36
-13 7 4 -16 7 -40 8 -52 1 -13 5 -23 9 -23 3 0 11 -14 17 -31 10 -28 9 -30
-12 -24 -20 5 -19 4 3 -9 20 -11 30 -32 48 -103 25 -94 53 -265 45 -273 -6 -6
-36 35 -67 92 -15 27 -35 57 -46 68 -11 11 -20 27 -20 35 0 8 -4 15 -10 15 -5
0 -27 19 -48 41 -26 28 -39 36 -39 25 0 -9 5 -16 11 -16 6 0 28 -23 48 -50 21
-28 33 -50 27 -50 -6 0 5 -15 24 -32 55 -52 115 -153 128 -216 17 -80 49 -102
89 -62 11 11 20 33 20 50 0 60 40 141 101 204 33 33 59 63 59 66 0 4 11 13 25
20 14 7 25 19 25 26 0 8 11 16 25 20 14 3 23 10 20 14 -3 5 5 16 17 24 12 9
19 18 16 21 -3 3 -19 -6 -37 -20 -17 -15 -36 -23 -42 -19 -7 4 -9 3 -6 -3 4
-6 -4 -20 -17 -32 -23 -21 -24 -22 -29 -4 -3 13 -5 11 -6 -7 0 -14 -14 -40
-31 -58 -16 -18 -30 -31 -30 -29 0 24 41 159 54 180 24 35 85 86 112 93 28 7
54 68 54 127 0 57 -11 71 -54 69 -58 -2 -72 -15 -79 -71 -8 -71 -38 -123 -114
-196 l-65 -65 7 38 c3 20 16 45 28 55 18 14 19 16 3 11 -15 -6 -17 -3 -13 12
3 10 11 38 17 61 6 23 18 47 28 52 10 6 12 11 5 11 -7 0 -13 8 -14 18 0 9 -5
2 -10 -16 -6 -20 -14 -30 -21 -26 -7 5 -8 3 -4 -5 8 -12 -30 -167 -45 -185
-11 -13 -22 139 -15 200 3 30 16 74 28 98 19 41 20 48 8 91 -14 49 -53 105
-73 105 -7 0 -19 -6 -27 -13z"/>
<path d="M11270 3194 c0 -22 6 -49 14 -59 8 -11 11 -34 9 -59 -4 -34 -1 -45
21 -65 33 -31 33 -41 1 -41 -24 0 -25 -2 -25 -75 0 -62 4 -79 20 -95 25 -25
26 -50 1 -50 -16 0 -19 -11 -24 -82 -4 -46 -7 -129 -7 -185 l0 -103 55 0 55 0
0 54 c0 29 -3 81 -6 115 -6 56 -9 61 -30 61 -31 0 -30 15 1 46 24 24 26 31 23
117 -3 80 -5 92 -20 89 -27 -4 -31 16 -6 41 21 21 23 30 20 116 -3 88 -5 93
-24 88 -31 -9 -71 36 -64 71 3 15 2 34 -4 42 -7 11 -10 5 -10 -26z"/>
<path d="M10530 3154 c-19 -8 -45 -24 -56 -35 -21 -19 -24 -20 -52 -5 -38 20
-63 20 -107 2 -36 -16 -65 -59 -65 -101 0 -23 -4 -25 -41 -25 -86 0 -132 -101
-74 -164 13 -14 28 -26 34 -26 5 0 12 -18 16 -40 9 -51 44 -80 97 -80 45 0 95
25 104 52 8 27 18 22 49 -22 30 -43 43 -40 40 10 -1 20 4 31 14 34 9 2 26 7
39 11 21 6 22 3 22 -44 0 -28 3 -51 8 -51 4 0 18 16 32 34 19 26 29 32 45 26
11 -3 31 -4 45 0 18 5 33 0 55 -18 24 -20 36 -23 69 -19 78 11 114 99 65 161
-19 24 -19 27 -5 48 25 36 20 94 -10 125 -22 22 -32 25 -75 21 -43 -4 -49 -3
-55 16 -10 34 -65 85 -104 96 -45 13 -48 12 -90 -6z"/>
<path d="M12670 3111 c-5 -11 -10 -44 -10 -73 l0 -53 -59 0 c-48 0 -64 -4 -83
-22 -14 -13 -34 -23 -47 -23 -30 0 -77 -25 -86 -47 -30 -71 -21 -221 20 -352
29 -91 60 -126 105 -116 22 5 31 1 44 -20 16 -24 20 -25 126 -25 103 0 110 1
127 24 15 18 29 24 55 23 47 -1 63 13 88 81 49 129 66 313 35 372 -19 38 -52
60 -88 60 -17 0 -42 11 -60 26 -25 21 -39 25 -79 22 -46 -3 -48 -2 -48 23 0
15 9 38 20 51 19 25 19 25 -1 47 -25 26 -45 27 -59 2z"/>
<path d="M8255 2876 c-18 -118 28 -254 108 -320 45 -37 110 -69 166 -81 l34
-7 -22 23 c-36 39 -21 109 25 113 10 1 108 31 216 66 196 64 198 64 204 95 3
18 4 45 2 60 l-3 29 -25 -37 c-64 -95 -392 -190 -497 -145 -79 34 -149 117
-191 228 -9 23 -10 21 -17 -24z"/>
<path d="M11489 2837 c2 -31 10 -56 22 -68 25 -25 24 -37 -3 -41 -23 -3 -23
-5 -26 -175 l-2 -173 45 0 45 0 0 125 c0 106 -2 124 -15 119 -26 -10 -31 27
-7 47 24 19 26 38 16 137 -4 34 -11 59 -16 56 -4 -3 -21 1 -36 8 l-27 14 4
-49z"/>
<path d="M11100 2836 c0 -30 6 -48 20 -61 25 -23 26 -45 1 -45 -23 0 -27 -26
-30 -220 l-2 -135 51 4 51 3 -5 37 c-3 20 -5 76 -6 124 0 76 -2 87 -16 85 -25
-5 -28 18 -5 41 18 18 21 33 21 112 0 68 -3 90 -12 86 -7 -2 -25 0 -40 4 -27
7 -28 7 -28 -35z"/>
<path d="M9740 2754 c-41 -36 -93 -77 -114 -92 -38 -26 -39 -26 -50 -7 -20 36
-73 84 -99 91 -78 19 -158 -35 -183 -125 -18 -63 -46 -94 -78 -86 -20 6 -20 5
3 -14 13 -12 31 -21 41 -21 10 0 47 -23 81 -50 70 -56 93 -65 145 -57 79 13
119 73 112 168 l-3 50 70 20 c39 11 79 23 90 26 34 10 87 4 112 -12 13 -9 28
-13 34 -10 5 4 15 2 22 -3 14 -11 105 -13 112 -2 2 4 15 5 29 3 18 -4 26 0 30
15 4 11 16 22 26 25 23 6 27 42 6 54 -8 4 -16 19 -18 33 -2 18 -10 26 -27 28
-14 2 -34 10 -46 18 -18 12 -24 12 -41 0 -11 -9 -30 -12 -46 -9 -23 4 -29 1
-38 -21 -5 -14 -14 -26 -19 -26 -6 0 -21 -12 -35 -26 -16 -18 -30 -25 -41 -20
-11 4 -22 0 -29 -9 -8 -12 -21 -13 -54 -7 l-43 7 54 45 c44 36 87 82 75 79 -2
0 -37 -29 -78 -65z"/>
<path d="M6706 2751 c-45 -27 -59 -87 -31 -141 24 -47 52 -60 125 -60 60 0 69
3 95 30 22 23 29 41 33 84 6 74 -15 96 -95 97 -32 0 -68 2 -80 3 -12 1 -33 -4
-47 -13z"/>
<path d="M6516 2721 c-4 -6 -18 -8 -31 -5 -27 7 -80 -18 -95 -45 -24 -46 -3
-124 42 -155 31 -22 136 -21 167 0 26 19 51 71 51 108 0 58 -48 104 -92 90
-12 -3 -24 -1 -28 6 -5 9 -9 9 -14 1z"/>
<path d="M6150 2080 c-59 -12 -88 -28 -133 -69 -63 -58 -91 -120 -95 -213 -5
-91 13 -154 64 -229 19 -28 34 -53 34 -55 0 -2 -32 -18 -71 -36 -80 -36 -101
-64 -75 -104 26 -39 48 -37 154 10 l100 44 60 -34 c33 -19 68 -35 78 -37 11
-2 27 -7 37 -12 9 -4 24 -4 33 -1 8 3 12 2 9 -4 -9 -15 81 -12 142 3 59 16
165 76 156 90 -3 4 12 0 33 -11 88 -43 183 -75 209 -68 31 8 48 46 35 80 -6
17 -28 31 -82 51 -40 15 -77 31 -81 35 -5 4 -1 21 9 36 l18 29 -22 -19 c-35
-31 -38 -10 -7 52 27 51 30 69 33 172 3 64 9 118 15 121 16 11 -43 84 -93 115
-40 26 -54 29 -130 29 -69 0 -95 -5 -138 -24 -52 -25 -52 -25 -33 -45 64 -69
94 -206 45 -206 -8 0 -14 7 -14 15 0 30 -22 116 -33 128 -36 37 -87 102 -87
109 0 5 9 6 20 3 35 -11 22 2 -22 23 -52 23 -120 33 -168 22z m121 -136 c44
-22 52 -38 39 -82 -12 -39 -10 -123 4 -154 6 -12 -7 -27 -56 -61 -98 -70 -113
-75 -143 -47 -69 65 -95 191 -56 268 47 92 126 120 212 76z m346 -15 c43 -16
92 -69 104 -112 13 -48 -5 -111 -53 -188 -35 -57 -33 -57 -118 1 -66 45 -86
70 -68 88 14 14 16 104 5 149 -8 30 -6 34 25 53 37 22 64 25 105 9z m-89 -438
c4 -12 -91 -41 -133 -41 -47 0 -135 29 -135 44 1 6 30 32 66 57 l66 47 66 -50
c37 -28 68 -54 70 -57z"/>
<path d="M7645 2084 c-110 -16 -168 -38 -211 -79 -37 -35 -44 -48 -44 -81 0
-26 9 -52 26 -78 l26 -38 -36 -227 c-20 -124 -36 -238 -36 -253 0 -19 10 -34
33 -50 32 -23 33 -23 417 -26 336 -3 390 -1 427 13 24 9 48 26 54 36 9 17 -18
217 -66 491 -2 16 2 31 11 39 8 7 22 26 31 42 34 67 -18 147 -124 188 -53 20
-77 23 -268 25 -115 1 -223 0 -240 -2z m380 -23 c107 -13 148 -27 193 -69 52
-48 57 -94 17 -132 -14 -13 -25 -31 -25 -39 -1 -9 16 -126 37 -260 l37 -243
-22 -18 c-33 -27 -111 -32 -479 -28 -321 3 -333 4 -360 24 -34 26 -34 22 13
313 l35 214 -25 26 c-65 69 -26 152 90 186 100 30 344 43 489 26z"/>
<path d="M13730 1994 c-173 -24 -442 -61 -598 -82 -155 -21 -285 -42 -289 -45
-3 -4 -4 -10 0 -13 6 -6 377 34 951 102 158 19 290 34 293 34 2 0 3 10 1 23
-2 14 -10 23 -23 23 -11 1 -162 -18 -335 -42z"/>
<path d="M12850 1820 c-8 -5 -12 -11 -10 -13 5 -4 987 -27 1153 -27 97 0 97 0
97 25 l0 25 -612 0 c-361 0 -619 -4 -628 -10z"/>
<path d="M14365 1573 c-37 -114 -74 -233 -84 -263 l-18 -55 -57 3 c-47 3 -56
0 -56 -13 0 -9 9 -19 20 -22 10 -3 22 -14 25 -24 4 -10 11 -19 16 -19 5 0 9
-6 9 -14 0 -19 29 -48 41 -41 5 4 9 1 9 -4 0 -6 6 -11 13 -11 7 0 24 -12 36
-26 21 -24 23 -25 41 -9 18 16 20 16 47 -9 15 -14 33 -26 40 -26 6 0 14 -9 18
-19 4 -12 12 -18 21 -14 8 3 32 -7 54 -22 37 -25 42 -32 39 -51 0 -4 5 -10 12
-14 20 -13 3 -37 -58 -77 -110 -74 -205 -102 -373 -110 -190 -9 -351 18 -477
78 -71 34 -84 51 -59 78 9 10 16 25 16 34 0 9 10 17 22 19 13 2 29 15 36 31 7
15 18 27 23 27 19 0 55 35 52 50 -2 8 7 20 19 25 17 8 22 17 20 38 -2 19 2 29
15 34 27 10 63 46 63 64 0 8 6 21 13 28 15 16 -16 10 -129 -25 -94 -29 -164
-72 -208 -128 -29 -36 -31 -42 -30 -122 3 -150 66 -296 171 -395 52 -49 53
-51 53 -109 l0 -59 67 -21 c153 -47 334 -48 503 -2 l65 17 3 60 c3 57 5 62 52
107 105 100 168 238 178 384 3 61 1 87 -11 110 -22 43 -70 87 -130 119 -29 16
-53 29 -55 30 -1 1 50 109 113 240 88 180 113 240 103 246 -7 5 -17 7 -23 6
-5 -2 -59 -107 -120 -234 -60 -128 -113 -234 -116 -238 -4 -3 -26 -1 -49 5
-33 9 -40 15 -35 28 34 84 172 512 165 512 -4 0 -15 3 -23 6 -12 4 -29 -37
-82 -203z"/>
<path d="M13153 1163 c-14 -3 -23 -12 -23 -24 0 -11 -17 -30 -40 -45 -31 -20
-38 -30 -28 -36 10 -7 10 -9 -2 -5 -11 3 -14 16 -13 43 l2 39 -15 -28 c-9 -16
-13 -35 -10 -43 3 -9 -2 -17 -12 -20 -9 -3 -25 -10 -34 -15 -10 -5 -27 -9 -37
-9 -11 0 -23 -5 -27 -11 -5 -8 -43 -10 -124 -7 -100 4 -122 8 -148 27 -40 28
-51 27 -22 -4 22 -24 23 -25 3 -25 -21 0 -63 38 -63 58 0 18 -18 24 -41 12
-17 -9 -18 -14 -9 -23 10 -9 14 -9 17 1 3 6 9 12 15 12 6 0 7 -7 4 -16 -4 -9
-1 -23 5 -30 10 -12 -2 -14 -70 -13 -59 2 -81 6 -81 15 0 18 -64 -9 -67 -28
-1 -7 33 -161 76 -343 l78 -330 228 -3 227 -2 133 85 133 86 81 332 c45 183
81 338 81 345 0 9 -26 12 -97 11 -54 -1 -108 -4 -120 -6z"/>
</g>
</svg>
