<?xml version="1.0" standalone="no"?>
<!DOCTYPE svg PUBLIC "-//W3C//DTD SVG 20010904//EN"
 "http://www.w3.org/TR/2001/REC-SVG-20010904/DTD/svg10.dtd">
<svg version="1.0" xmlns="http://www.w3.org/2000/svg"
 width="225.000000pt" height="225.000000pt" viewBox="0 0 225.000000 225.000000"
 preserveAspectRatio="xMidYMid meet">
<metadata>
Created by potrace 1.15, written by Peter Selinger 2001-2017
</metadata>
<g transform="translate(0.000000,225.000000) scale(0.100000,-0.100000)"
fill="#000000" stroke="none">
<path d="M1012 1940 c-204 -28 -403 -138 -534 -294 -65 -78 -147 -235 -173
-331 -9 -33 -19 -112 -22 -175 -7 -150 17 -271 79 -402 143 -299 430 -480 763
-480 332 0 615 177 761 477 64 132 88 253 80 405 -7 142 -23 207 -86 335 -136
277 -401 452 -712 469 -51 2 -121 1 -156 -4z m281 -96 c93 -20 236 -90 312
-151 202 -164 309 -425 277 -677 -50 -393 -366 -676 -757 -676 -326 0 -610
200 -719 509 -150 421 102 885 539 992 91 23 253 24 348 3z"/>
<path d="M683 1511 c-69 -23 -114 -60 -144 -115 -27 -53 -20 -79 24 -84 22 -3
29 4 46 37 35 67 103 101 208 101 62 0 83 22 57 58 -13 19 -25 22 -77 22 -34
-1 -85 -9 -114 -19z"/>
<path d="M1384 1522 c-17 -11 -22 -35 -12 -54 7 -14 21 -18 61 -18 105 0 173
-34 208 -101 17 -33 24 -40 46 -37 43 5 49 29 23 83 -27 55 -83 99 -153 120
-53 16 -154 20 -173 7z"/>
<path d="M735 1218 c-44 -16 -79 -43 -94 -72 -13 -23 -12 -28 4 -46 24 -26 37
-25 65 5 51 54 141 56 206 4 44 -35 46 -35 70 -8 17 19 17 23 3 47 -34 61
-176 100 -254 70z"/>
<path d="M1370 1221 c-68 -22 -120 -65 -120 -98 0 -13 27 -43 39 -43 5 0 25
13 45 29 67 53 149 50 209 -7 29 -28 48 -25 70 10 14 22 -23 71 -70 94 -42 20
-134 28 -173 15z"/>
<path d="M907 789 c-38 -22 -13 -96 53 -151 91 -79 239 -79 330 0 68 57 91
130 50 152 -22 12 -35 1 -89 -70 -41 -54 -121 -75 -188 -49 -35 13 -82 57 -94
86 -11 29 -40 44 -62 32z"/>
</g>
</svg>
