<?xml version="1.0" standalone="no"?>
<!DOCTYPE svg PUBLIC "-//W3C//DTD SVG 20010904//EN"
 "http://www.w3.org/TR/2001/REC-SVG-20010904/DTD/svg10.dtd">
<svg version="1.0" xmlns="http://www.w3.org/2000/svg"
 width="1400.000000pt" height="980.000000pt" viewBox="0 0 1400.000000 980.000000"
 preserveAspectRatio="xMidYMid meet">
<metadata>
Created by potrace 1.15, written by Peter Selinger 2001-2017
</metadata>
<g transform="translate(0.000000,980.000000) scale(0.100000,-0.100000)"
fill="#000000" stroke="none">
<path d="M10442 7737 c-141 -464 -139 -458 -182 -495 l-39 -33 -346 -30 -347
-29 -38 -43 c-21 -23 -58 -67 -83 -97 l-46 -55 107 -107 c59 -60 109 -108 112
-108 3 0 20 26 37 58 l32 57 15 -36 c62 -149 79 -412 40 -649 -19 -116 -20
-111 30 -143 85 -54 136 -127 123 -178 -3 -11 -2 -19 1 -17 4 2 48 24 97 49
166 85 299 116 455 105 l96 -6 -13 103 c-25 204 -15 356 38 554 45 173 36 163
141 163 48 0 88 3 88 7 0 19 -77 139 -119 185 -26 29 -46 58 -44 64 2 6 -53
37 -122 69 -69 32 -125 63 -125 70 0 6 9 39 21 73 20 61 23 64 270 283 137
122 249 225 249 229 0 15 -22 70 -29 70 -3 0 -100 -94 -216 -210 -115 -115
-210 -208 -212 -206 -2 1 42 128 97 281 55 153 100 282 100 287 0 4 -24 8 -52
8 l-53 0 -83 -273z m-697 -587 c-3 -5 3 -10 14 -10 11 0 24 -8 30 -17 9 -17
11 -17 39 0 35 20 63 22 80 5 9 -9 15 -9 24 0 17 17 38 15 38 -5 0 -14 3 -13
23 5 32 31 47 28 47 -10 0 -29 1 -30 18 -16 36 31 45 33 39 6 -9 -35 1 -41 33
-18 26 19 31 19 103 5 42 -8 83 -12 91 -9 8 3 31 -4 53 -15 l38 -20 -60 -1
c-33 -1 -165 -4 -294 -6 -232 -5 -234 -5 -315 22 -95 31 -114 44 -64 44 19 0
41 7 48 15 13 16 1 21 -15 6 -17 -15 -89 -18 -120 -6 -29 12 -27 13 40 19 67
7 106 12 113 15 2 0 0 -3 -3 -9z m-157 -33 c26 -13 74 -34 107 -47 33 -13 61
-24 63 -26 2 -1 -15 -26 -37 -55 -22 -29 -64 -93 -93 -142 l-52 -88 -99 99
-99 100 77 91 c43 50 79 91 82 91 2 0 25 -11 51 -23z m1032 -125 c41 -43 110
-147 110 -166 0 -3 -46 -6 -102 -6 -93 0 -311 -11 -493 -25 l-70 -5 -100 111
c-55 61 -101 115 -103 119 -1 4 113 8 255 9 142 1 258 3 260 4 1 1 45 4 99 5
l97 3 47 -49z m-801 -14 c64 -162 93 -350 93 -598 0 -176 -10 -300 -33 -418
l-11 -53 -17 33 c-10 18 -45 53 -79 78 l-62 45 5 45 c2 25 9 86 16 135 23 183
0 428 -56 584 -15 44 -15 45 11 85 46 70 85 116 99 116 7 0 22 -24 34 -52z
m108 -57 c43 -47 90 -101 105 -120 l28 -32 246 16 c135 10 247 15 249 13 2 -2
-7 -40 -20 -83 -70 -227 -87 -451 -50 -681 l7 -41 -63 10 c-126 19 -324 -22
-473 -98 -38 -19 -71 -33 -73 -31 -2 2 5 52 16 110 60 311 42 676 -47 950 -17
52 -23 82 -15 79 6 -3 47 -44 90 -92z"/>
<path d="M1669 7755 c-52 -28 -75 -97 -49 -146 8 -14 17 -18 34 -13 18 4 30
-2 52 -29 22 -26 44 -39 90 -52 46 -13 65 -23 72 -41 6 -13 30 -33 53 -44 42
-22 119 -98 150 -150 10 -16 28 -34 41 -41 19 -9 17 -5 -9 23 -18 19 -33 38
-33 44 0 15 -112 119 -143 132 -15 7 -35 25 -45 41 -13 23 -29 33 -77 46 -47
12 -67 24 -88 51 -20 24 -36 34 -57 34 -40 0 -50 46 -21 93 24 39 58 57 106
57 74 0 286 -169 456 -364 l78 -89 -27 -14 c-38 -20 -38 -22 6 -16 33 4 42 2
56 -18 23 -33 20 -73 -7 -105 -23 -26 -28 -27 -168 -35 -153 -8 -281 -32 -400
-73 -79 -27 -103 -27 -46 0 20 10 33 22 30 27 -4 6 -1 7 6 3 7 -5 35 2 63 14
27 12 82 30 121 40 40 10 62 19 50 19 -12 1 -57 -10 -100 -24 -42 -13 -78 -23
-80 -21 -2 1 40 22 92 46 52 23 95 48 95 56 0 19 -46 51 -85 58 -85 16 -191
-52 -202 -130 -4 -28 -1 -45 10 -55 13 -13 7 -20 -54 -54 -61 -34 -73 -46 -97
-94 -25 -51 -27 -66 -27 -171 0 -113 21 -220 45 -235 5 -3 3 10 -5 29 -32 77
-37 250 -10 343 18 61 29 70 148 119 122 49 248 74 426 84 128 6 157 11 180
27 41 31 55 67 41 109 -31 92 -389 445 -522 515 -43 22 -112 24 -149 4z"/>
<path d="M1580 7514 c-8 -8 -28 -21 -45 -28 -23 -10 -53 -45 -109 -128 -73
-109 -77 -116 -70 -156 6 -36 4 -43 -14 -49 -12 -5 -52 -53 -91 -109 l-70
-101 -66 -7 c-121 -12 -258 -79 -398 -194 -88 -72 -127 -120 -171 -211 -45
-94 -59 -165 -54 -266 6 -112 45 -190 135 -276 103 -97 342 -215 494 -244 108
-20 337 -20 460 1 95 16 261 65 289 85 13 9 13 10 0 5 -227 -77 -330 -96 -515
-96 -223 0 -302 20 -540 139 -239 119 -345 295 -302 504 22 105 79 220 142
282 75 75 180 151 272 196 79 39 195 71 221 61 16 -6 15 -27 -3 -46 -12 -12
-13 -20 -3 -40 6 -14 18 -26 27 -26 10 0 12 3 5 8 -30 19 -14 96 16 77 24 -15
92 7 130 43 50 49 66 104 46 163 -21 60 -9 72 80 87 88 14 140 38 183 88 41
46 51 73 51 135 0 59 -24 89 -71 89 -27 0 -30 2 -19 15 7 8 10 15 7 15 -2 0
-10 -7 -17 -16z"/>
<path d="M8229 7501 c-48 -26 -97 -83 -126 -148 -19 -40 -31 -54 -51 -59 -81
-18 -166 -48 -237 -82 -100 -49 -298 -206 -420 -333 -79 -82 -249 -282 -269
-316 -3 -7 -20 -74 -37 -150 -27 -121 -31 -163 -36 -347 l-6 -209 69 7 c38 3
204 15 369 26 536 36 536 36 723 84 95 25 188 54 207 66 63 39 107 101 181
256 l73 153 73 49 c100 68 114 95 122 242 7 127 -2 172 -47 233 -13 17 -30 54
-36 81 -7 27 -18 61 -26 76 -15 28 -99 110 -114 110 -5 0 -8 22 -8 49 2 42 -2
54 -27 80 -15 16 -51 39 -80 51 -28 12 -76 38 -107 56 -71 44 -138 53 -190 25z
m173 -47 l32 -17 -61 -27 c-63 -29 -97 -59 -52 -47 170 47 289 15 289 -78 0
-25 -5 -37 -17 -41 -10 -3 -29 -10 -43 -16 -23 -10 -20 -12 39 -24 113 -24
171 -79 171 -161 l0 -43 -44 6 c-82 12 -134 -17 -55 -30 93 -15 153 -67 165
-141 9 -61 0 -70 -44 -40 -22 15 -51 25 -71 25 l-35 0 40 -29 c56 -41 88 -102
81 -154 -7 -54 -32 -85 -101 -127 -55 -34 -59 -39 -99 -135 -66 -154 -158
-284 -226 -320 -29 -14 -146 -41 -381 -86 -146 -28 -547 -70 -807 -86 l-113
-6 0 54 c0 74 6 80 60 68 28 -7 132 -9 270 -6 185 4 263 10 435 36 314 48 396
74 466 148 40 43 149 264 149 304 0 32 -31 62 -90 87 -82 35 -176 47 -355 46
-153 0 -185 -3 -320 -33 -248 -53 -547 -113 -550 -109 -2 2 -1 15 2 30 5 25
16 31 127 67 273 90 487 131 730 138 258 8 341 -10 441 -98 l34 -30 17 32 c19
38 52 68 74 69 13 0 13 1 0 10 -24 15 -37 12 -73 -20 l-35 -30 -56 34 c-144
87 -382 96 -746 30 -166 -30 -298 -65 -381 -99 -35 -15 -71 -29 -79 -33 -25
-10 138 174 280 318 163 164 243 225 378 290 252 122 321 119 464 -22 l70 -69
-28 52 c-35 63 -90 111 -159 140 -60 25 -60 28 -11 97 58 82 147 113 218 76z"/>
<path d="M11925 7427 c-9 -14 -25 -27 -36 -30 -11 -3 -25 -19 -32 -36 -7 -20
-17 -29 -30 -28 -19 2 -30 -10 -42 -47 -5 -19 -6 -18 -22 3 -15 23 -33 24 -75
6 -13 -5 -17 0 -20 26 -2 18 -11 37 -21 43 -15 9 -23 6 -43 -19 -13 -16 -29
-49 -35 -72 -13 -48 -20 -51 -56 -23 -14 11 -39 20 -55 20 -33 0 -48 -28 -48
-90 l0 -39 -57 -3 -58 -3 2 -50 c2 -44 -1 -52 -20 -60 -27 -12 -35 -55 -13
-67 22 -12 20 -25 -9 -60 -31 -37 -31 -43 2 -74 24 -23 25 -25 10 -42 -25 -28
-21 -49 13 -61 17 -5 30 -14 30 -18 0 -4 3 -39 5 -78 18 -259 154 -444 383
-519 99 -33 173 -44 352 -52 338 -15 534 76 654 306 27 51 43 70 57 70 30 0
77 27 84 49 3 11 17 26 30 35 50 33 80 129 55 176 -8 15 -3 25 25 53 28 28 35
43 35 75 0 48 -28 86 -73 101 -30 10 -32 14 -32 57 0 36 -5 50 -24 65 -25 21
-62 25 -90 9 -16 -8 -20 -5 -24 20 -8 37 -56 63 -104 58 -30 -4 -36 0 -44 20
-5 13 -23 29 -39 35 -17 6 -30 19 -30 28 0 9 -9 24 -20 34 -17 15 -24 16 -45
7 -21 -10 -26 -9 -35 8 -7 14 -21 20 -43 20 -21 0 -36 7 -45 20 -7 11 -21 20
-32 20 -12 0 -20 7 -20 16 0 9 -9 18 -19 21 -11 3 -21 13 -24 24 -8 29 -37 35
-56 11 -18 -23 -61 -21 -81 4 -6 7 -18 10 -25 7 -8 -2 -25 7 -37 22 -16 18
-29 24 -41 20 -9 -4 -17 -11 -17 -16 0 -5 -11 -2 -24 6 -23 16 -25 15 -41 -8z
m-273 -89 c0 -7 2 -18 2 -24 1 -6 7 -23 15 -37 12 -23 11 -28 -8 -53 -18 -23
-25 -24 -23 -4 0 3 -14 6 -31 5 -26 0 -36 -8 -60 -43 -28 -41 -32 -43 -64 -37
-32 6 -35 4 -51 -33 -12 -28 -25 -42 -47 -48 -36 -11 -56 -54 -37 -84 16 -27
15 -57 -3 -64 -20 -7 -19 -53 1 -64 13 -8 14 -13 4 -31 -6 -13 -10 -24 -8 -26
2 -2 35 -17 74 -34 50 -21 94 -32 157 -37 76 -6 87 -9 87 -25 0 -25 -57 -49
-88 -38 -13 5 -43 9 -66 9 -65 0 -159 21 -181 40 -11 9 -28 20 -37 23 -20 7
-24 32 -8 42 16 10 11 41 -10 60 -26 23 -25 31 5 57 30 26 31 38 5 71 -27 35
-25 46 10 54 32 6 36 17 20 59 -15 38 2 52 63 56 l52 3 5 60 c4 52 8 60 26 63
12 2 35 -9 53 -24 31 -25 32 -26 51 -9 11 10 20 24 20 32 0 25 40 93 55 93 8
0 16 -6 17 -12z m679 -40 c1 -7 1 -18 0 -25 -2 -17 19 -27 32 -14 16 16 47 14
52 -4 16 -51 14 -49 34 -30 29 25 59 12 57 -25 -1 -16 1 -27 5 -24 4 2 10 0
14 -6 4 -6 11 -7 17 -4 7 4 8 2 4 -5 -4 -6 -13 -8 -19 -4 -7 4 -24 6 -40 4
-17 -1 -29 3 -33 13 -7 18 -36 21 -63 6 -12 -6 -29 -5 -51 3 -31 12 -33 11
-69 -30 -42 -50 -53 -52 -69 -18 -17 38 -16 43 25 94 61 74 101 101 104 69z
m-621 -78 c0 -5 0 -13 -1 -17 -2 -14 33 -25 41 -13 4 7 10 8 13 3 8 -13 -41
-36 -55 -27 -6 4 -8 3 -5 -2 3 -6 2 -16 -3 -24 -8 -13 -12 -11 -25 8 -20 27
-40 28 -62 2 -10 -11 -25 -20 -34 -20 -9 0 -22 -13 -29 -30 -7 -16 -19 -30
-27 -30 -16 0 -67 -50 -84 -82 -11 -21 -3 -58 12 -58 6 0 7 -9 4 -21 -4 -13
-1 -27 9 -38 15 -16 15 -19 1 -31 -36 -30 -2 -62 63 -59 44 1 142 -22 142 -35
0 -4 -44 -6 -97 -4 -80 4 -109 10 -156 33 -51 24 -58 30 -53 50 4 14 0 28 -9
35 -19 16 -19 46 0 54 18 6 20 39 4 68 -16 30 3 65 40 73 22 5 31 13 36 35 8
38 28 54 52 41 23 -12 30 -7 66 42 31 41 42 45 68 21 17 -15 20 -15 41 10 23
26 48 34 48 16z m-45 -90 c16 -31 45 -41 45 -16 0 39 54 42 66 4 5 -17 8 -18
16 -7 7 11 8 9 5 -6 -2 -11 -7 -19 -13 -18 -11 2 -12 -83 -1 -94 5 -4 6 -1 4
7 -2 8 -2 12 0 7 3 -4 9 -4 15 -1 5 3 4 -3 -3 -14 -7 -12 -17 -18 -22 -15 -6
4 -7 -5 -3 -21 4 -15 2 -26 -4 -26 -13 0 -21 36 -17 79 3 43 -19 53 -28 13 -4
-18 0 -45 11 -71 14 -35 20 -42 38 -37 12 3 28 1 36 -5 12 -8 11 -9 -5 -5 -11
3 -27 1 -35 -4 -12 -8 -10 -10 10 -11 14 0 19 -3 12 -6 -6 -2 -10 -9 -6 -14 8
-13 -10 -11 -27 4 -12 10 -12 10 -2 -2 10 -11 3 -23 -34 -59 l-46 -45 -46 13
c-25 7 -70 13 -99 15 -68 3 -83 17 -54 48 26 27 28 37 8 37 -26 0 -30 23 -6
42 l22 18 -25 0 c-32 0 -42 26 -22 57 11 16 22 22 35 18 15 -5 17 -2 13 14 -6
24 24 41 37 21 4 -7 13 -9 19 -6 6 4 9 12 5 17 -10 17 5 59 20 53 7 -3 21 6
30 20 21 34 32 33 51 -4z m668 -70 c17 -13 24 -26 20 -37 -4 -9 0 -21 9 -27
17 -12 19 -90 3 -103 -6 -5 -9 -7 -8 -5 1 2 -6 13 -15 24 -54 66 -78 91 -103
104 -28 14 -30 39 -5 56 21 15 74 8 99 -12z m-923 -396 c8 -2 28 -29 44 -59
15 -30 52 -80 81 -110 47 -49 50 -54 27 -48 -15 3 -30 11 -34 17 -5 7 -8 4 -8
-8 0 -15 -3 -16 -14 -7 -10 8 -16 9 -21 1 -4 -7 -12 -7 -25 0 -11 6 -38 11
-60 13 -37 2 -41 5 -50 37 -6 19 -13 68 -17 109 l-6 73 34 -7 c19 -3 41 -8 49
-11z m909 -48 c21 -25 25 -110 7 -148 -24 -50 -96 -80 -96 -39 0 10 -9 25 -20
32 -20 13 -20 16 -5 65 26 89 80 131 114 90z m386 -180 c13 -5 12 -12 -9 -53
-13 -27 -39 -68 -56 -92 -27 -37 -35 -42 -44 -30 -6 9 -31 16 -61 18 -27 1
-57 9 -65 16 -8 7 -35 12 -60 11 -34 -1 -49 4 -62 19 -24 28 -23 32 20 39 70
13 187 56 242 91 l55 34 12 -23 c7 -13 19 -26 28 -30z m-684 34 c19 -10 19
-12 2 -35 -10 -13 -24 -25 -31 -25 -18 0 -5 -20 14 -20 8 0 14 7 14 15 0 7 6
18 13 22 6 4 17 17 23 28 16 29 64 33 71 5 5 -18 11 -21 32 -17 35 7 61 -7 44
-24 -10 -10 -9 -15 5 -26 16 -12 15 -13 -3 -6 -24 8 -18 0 12 -16 18 -9 22 -9
17 2 -5 14 24 33 34 22 3 -3 0 -5 -7 -5 -8 0 -6 -7 6 -17 10 -10 13 -14 6 -9
-8 5 -18 4 -26 -3 -8 -6 -17 -8 -20 -4 -4 3 -7 1 -7 -5 0 -7 5 -12 11 -12 5 0
7 -5 4 -10 -4 -6 -11 -7 -17 -4 -6 4 -8 -2 -4 -17 3 -13 3 -18 0 -11 -10 20
-34 13 -44 -13 -7 -17 -17 -25 -34 -25 -35 0 -56 10 -56 26 0 23 -26 16 -44
-11 -20 -30 -46 -33 -53 -5 -4 15 -11 19 -24 15 -13 -4 -19 -1 -19 9 0 26 -21
29 -51 7 -36 -27 -65 -24 -62 6 2 16 -2 20 -17 16 -14 -4 -20 0 -20 11 0 9 5
16 12 16 6 0 4 6 -6 13 -13 10 -16 20 -12 35 8 23 40 30 52 11 3 -6 14 2 25
21 20 31 20 32 46 15 25 -17 26 -16 50 9 26 29 35 31 64 16z"/>
<path d="M5435 7315 c-76 -17 -193 -59 -266 -96 -209 -104 -314 -274 -326
-525 l-6 -112 -33 -16 c-40 -19 -91 -86 -100 -132 -14 -76 44 -164 156 -239
39 -26 70 -52 70 -60 0 -32 85 -137 145 -180 131 -94 238 -124 463 -132 236
-8 386 23 525 107 117 71 226 201 263 313 10 32 34 71 61 100 65 70 85 122 82
215 -1 42 1 85 5 94 4 9 3 25 -3 36 -11 21 -68 52 -95 52 -12 0 -16 10 -16 39
0 40 -14 62 -51 81 -11 7 -19 21 -19 37 0 42 -41 112 -102 177 -32 33 -58 65
-58 71 0 17 -22 35 -43 35 -10 0 -32 9 -47 20 -55 39 -196 100 -265 115 -85
18 -258 18 -340 0z m325 -25 c99 -24 270 -103 277 -129 5 -19 35 -41 66 -47
30 -5 101 -78 132 -136 17 -31 28 -68 30 -101 4 -74 -27 -117 -134 -189 -175
-117 -272 -152 -468 -168 -200 -17 -327 -13 -459 14 -66 13 -141 27 -169 31
-105 13 -175 74 -175 150 0 63 27 181 55 243 32 69 124 165 205 212 220 128
436 168 640 120z m668 -586 c27 -19 28 -50 2 -64 -11 -6 -35 -43 -53 -83 -19
-39 -40 -77 -48 -83 -8 -6 -45 -22 -84 -34 -38 -13 -100 -39 -136 -58 -57 -30
-68 -41 -78 -72 l-11 -37 -127 -6 c-146 -7 -204 -20 -285 -66 l-58 -33 -47 17
c-69 23 -170 30 -246 15 -94 -17 -122 -8 -158 50 -29 48 -55 65 -140 95 -81
29 -158 86 -185 137 -13 25 -12 29 13 53 33 30 50 32 58 6 8 -26 65 -76 117
-102 124 -63 253 -82 383 -56 72 15 84 15 123 1 94 -32 187 -39 280 -21 48 9
117 21 154 27 124 22 338 167 338 231 0 19 10 29 51 47 27 13 53 30 56 38 7
19 53 18 81 -2z m20 -161 c-3 -44 -12 -91 -21 -108 -20 -39 -93 -115 -102
-107 -3 4 -3 -1 1 -11 4 -12 1 -17 -11 -17 -12 0 -15 -5 -11 -17 4 -10 4 -14
0 -11 -3 4 -15 -3 -26 -15 -11 -12 -17 -16 -13 -9 4 7 0 12 -9 12 -8 0 -17 4
-20 9 -4 5 3 7 14 4 12 -3 20 0 20 8 0 7 10 23 22 36 12 13 16 23 10 23 -7 0
-12 -4 -12 -10 0 -5 -7 -10 -15 -10 -25 0 -17 25 13 37 l27 11 -35 -1 c-25 -2
-35 2 -35 13 0 8 -9 18 -20 22 -14 5 -11 7 12 5 17 -2 31 1 30 6 -1 5 16 15
37 23 53 19 62 28 75 77 12 50 46 107 62 107 8 0 10 -23 7 -77z m-183 -370
c-55 -94 -115 -161 -185 -208 -145 -96 -334 -141 -555 -131 -221 9 -369 61
-475 166 -47 46 -95 118 -86 127 1 2 62 -17 135 -42 187 -63 280 -79 416 -71
61 4 164 9 230 11 77 2 148 11 200 24 96 25 245 96 300 144 22 19 42 33 44 31
2 -1 -9 -25 -24 -51z"/>
<path d="M3185 7149 c-51 -12 -125 -60 -150 -99 -18 -26 -26 -30 -68 -30 -62
0 -105 -23 -123 -65 -16 -39 -19 -111 -5 -120 5 -3 -14 -29 -43 -58 -56 -56
-76 -105 -77 -187 -2 -140 3 -262 13 -310 45 -233 303 -398 686 -439 l70 -7 6
28 c3 16 19 49 36 73 34 50 37 67 13 86 -15 13 -15 12 -4 -8 12 -24 5 -49 -23
-72 -12 -10 -16 -9 -25 6 -9 16 -10 17 -16 1 -6 -15 -8 -15 -27 4 -12 12 -28
18 -40 15 -11 -3 -27 1 -35 9 -8 8 -25 14 -39 14 -13 0 -32 5 -42 10 -20 12
-130 50 -154 54 -9 1 -33 9 -55 18 -69 27 -133 46 -127 36 4 -6 -14 1 -39 15
-41 23 -46 24 -50 9 -4 -15 -5 -15 -6 -1 -1 10 -13 19 -30 22 -23 5 -35 18
-60 68 -25 51 -31 74 -31 127 l0 66 68 -71 c91 -94 196 -169 317 -229 55 -27
102 -51 105 -54 3 -3 10 -5 15 -5 6 0 43 -9 83 -19 46 -11 86 -16 110 -12 20
4 47 8 59 9 19 2 20 4 9 15 -12 12 -18 11 -39 -3 -22 -14 -34 -15 -74 -6 -72
17 -155 40 -160 45 -11 10 88 30 182 36 55 4 86 8 69 8 -29 2 -74 45 -74 72 0
14 0 14 65 -16 74 -34 163 -31 243 10 29 15 58 24 64 20 6 -4 8 -3 4 4 -11 18
9 22 31 7 26 -18 35 -65 22 -104 -13 -37 -56 -58 -154 -74 -58 -9 -75 -15 -75
-28 0 -9 -11 -47 -25 -83 -39 -105 -39 -106 53 -106 166 0 298 38 423 122 141
94 222 203 250 336 14 69 6 205 -15 257 -15 35 -15 39 7 69 14 20 22 45 22 74
0 37 -5 48 -33 73 -36 32 -80 38 -122 15 -23 -13 -26 -12 -43 16 -16 28 -22
30 -58 25 l-39 -5 0 41 c-1 96 -72 176 -175 197 -85 18 -164 -10 -203 -71
l-19 -30 -12 41 c-37 124 -251 202 -436 159z m255 -30 c109 -31 165 -92 172
-189 l3 -35 -70 -7 c-73 -6 -144 -32 -194 -69 l-30 -22 -30 31 c-38 41 -98 44
-152 8 -32 -22 -39 -23 -85 -13 -27 6 -52 15 -55 20 -22 31 33 185 79 225 95
80 206 96 362 51z m427 -85 c13 -4 21 -9 19 -13 -2 -3 8 -7 22 -8 24 -1 38
-13 84 -74 19 -24 32 -89 26 -133 -2 -23 -11 -30 -55 -45 l-53 -18 0 36 c0 64
-29 115 -81 145 -60 33 -100 28 -149 -20 -31 -29 -60 -44 -60 -30 0 13 52 105
67 119 43 38 122 56 180 41z m-211 -197 c51 -35 94 -88 94 -116 0 -10 -22 -26
-54 -42 l-54 -26 -38 23 c-64 39 -179 41 -274 6 -12 -5 -13 -3 -2 10 7 9 11
35 10 58 -3 42 -2 44 51 76 30 18 57 31 61 29 3 -2 12 0 20 6 8 5 43 9 76 9
54 0 68 -4 110 -33z m-552 -54 c46 -32 67 -80 68 -150 0 -43 -22 -89 -37 -75
-5 4 -5 1 -1 -6 11 -18 -59 -83 -123 -115 -29 -14 -85 -33 -126 -43 -73 -17
-75 -17 -96 2 -41 37 -53 74 -53 164 1 55 6 98 16 122 17 39 86 118 103 118 6
0 3 -5 -5 -10 -12 -7 -10 -9 7 -8 12 1 19 7 16 14 -7 18 23 23 111 19 68 -3
85 -7 120 -32z m941 -39 c20 -13 72 -120 63 -129 -2 -2 -30 -18 -64 -37 -33
-18 -71 -42 -85 -53 -40 -33 -110 -118 -131 -158 -23 -45 -38 -39 -57 22 -7
26 -19 42 -34 47 -18 6 -14 9 26 19 62 16 98 43 112 84 6 18 14 29 18 25 3 -4
-6 18 -22 49 -27 53 -28 57 -12 72 10 8 21 12 25 8 4 -5 6 -2 4 6 -4 16 76 60
110 61 12 0 34 -7 47 -16z m-481 -60 c9 -3 16 -10 16 -15 0 -5 9 -9 19 -9 36
0 101 -100 101 -155 0 -35 -12 -38 -72 -15 -102 38 -219 12 -253 -56 -11 -21
-24 -45 -29 -52 -6 -8 -12 -23 -13 -35 -6 -35 -62 -114 -120 -167 -30 -27 -59
-50 -64 -50 -16 0 -133 62 -161 85 -15 13 -24 26 -20 30 4 4 2 5 -5 3 -17 -4
-103 65 -98 79 2 7 -1 15 -7 19 -7 4 -8 3 -4 -4 10 -17 1 -15 -13 2 -9 11 1
17 56 31 122 31 230 101 272 176 25 44 30 45 72 23 48 -24 45 -10 -3 19 -29
18 -37 26 -24 27 10 0 57 15 105 34 47 19 95 36 106 39 23 6 116 0 139 -9z
m659 -95 c104 -28 64 -176 -88 -324 -39 -38 -91 -81 -116 -94 -70 -39 -153
-81 -162 -81 -4 0 -4 24 -1 53 6 47 3 56 -20 84 -14 16 -22 34 -18 38 4 5 1 5
-6 1 -20 -12 -4 41 31 99 59 98 151 183 236 216 53 21 91 23 144 8z m76 -272
c-11 -80 -41 -156 -75 -188 -13 -12 -24 -19 -24 -15 0 5 -8 2 -17 -5 -15 -12
-16 -12 -8 1 7 12 6 13 -6 4 -8 -6 -50 -19 -94 -29 -44 -10 -83 -23 -87 -29
-5 -8 -11 -7 -19 1 -9 9 -15 8 -27 -3 -8 -8 -21 -13 -28 -10 -8 3 -14 1 -14
-4 0 -5 -17 -12 -37 -15 -72 -11 -173 -39 -173 -47 0 -4 -5 -8 -11 -8 -5 0 -7
4 -4 10 3 6 -1 7 -9 4 -9 -3 -14 -9 -12 -13 3 -4 -4 -7 -15 -7 -14 0 -19 7
-19 27 0 26 3 27 93 43 103 19 225 65 312 117 82 49 198 176 238 259 l32 68 6
-46 c4 -26 3 -78 -2 -115z m-621 141 c33 -33 -5 -114 -71 -152 -43 -25 -125
-46 -177 -46 -23 0 -30 5 -30 19 0 15 10 19 59 24 120 13 181 56 181 128 0 40
15 50 38 27z m66 -44 c9 -8 16 -32 16 -53 0 -84 -133 -147 -267 -126 l-48 8
70 18 c39 10 73 18 78 18 19 2 97 86 107 117 13 38 21 41 44 18z m46 -123 l0
-48 -67 -31 c-96 -44 -165 -50 -231 -22 -28 12 -57 29 -64 38 -11 14 -10 15 7
8 11 -5 57 -11 102 -14 71 -4 88 -1 129 19 26 12 64 40 83 60 20 21 37 38 39
39 1 0 2 -22 2 -49z m-401 -28 c2 -38 17 -87 38 -124 2 -3 -7 -5 -19 -5 -35 0
-162 -24 -178 -34 -11 -7 -40 0 -58 15 -8 7 112 114 121 108 6 -3 7 -1 3 6 -4
6 5 31 21 55 24 37 31 42 49 34 16 -7 21 -20 23 -55z"/>
<path d="M1210 6847 c0 -9 -6 -18 -12 -21 -7 -3 -3 -3 10 0 32 8 75 -4 66 -18
-4 -7 -3 -8 5 -4 28 18 20 -30 -17 -102 -35 -67 -60 -127 -102 -236 -17 -46
-21 -25 -5 34 8 30 12 56 10 58 -11 12 -77 -12 -104 -37 -37 -34 -39 -54 -9
-75 23 -17 85 -21 103 -8 6 4 19 32 29 62 10 30 41 102 68 159 48 103 61 115
71 61 4 -24 4 -24 6 3 3 60 -36 114 -96 132 -17 4 -23 2 -23 -8z"/>
<path d="M995 6840 c-12 -4 -27 -15 -35 -25 -7 -9 -39 -29 -69 -45 -70 -35
-176 -113 -190 -138 -7 -12 -7 -31 -1 -51 8 -28 6 -33 -23 -53 -40 -28 -47
-37 -47 -67 0 -13 -11 -36 -25 -53 -28 -33 -32 -60 -11 -80 7 -8 17 -29 21
-48 12 -53 44 -122 69 -150 13 -14 36 -45 51 -70 30 -49 43 -62 95 -102 38
-29 235 -99 272 -97 20 1 21 2 3 6 -11 2 -68 20 -126 39 -118 39 -162 69 -232
162 -77 100 -86 117 -103 182 -9 36 -22 72 -30 81 -20 22 -17 40 11 79 14 19
25 47 25 62 0 23 7 32 35 45 35 17 35 18 29 60 -6 42 -4 46 36 84 23 22 76 60
118 85 42 25 90 55 105 67 19 15 49 24 90 28 l62 6 -55 1 c-30 0 -64 -3 -75
-8z"/>
<path d="M1841 6816 c-13 -7 -34 -30 -47 -51 l-23 -38 65 -30 c62 -29 64 -31
64 -68 0 -30 6 -42 27 -56 15 -10 51 -44 81 -75 31 -32 60 -58 67 -58 24 0 43
-37 49 -95 6 -53 3 -69 -24 -134 -42 -101 -37 -102 11 -2 38 78 40 88 30 122
-6 20 -11 47 -11 61 0 27 -23 52 -57 62 -13 4 -37 27 -55 52 -17 24 -46 53
-65 64 -27 16 -33 25 -33 53 0 39 -16 56 -83 86 l-47 22 15 29 c49 95 148 74
296 -63 63 -58 134 -148 164 -207 14 -28 28 -50 31 -50 11 0 -60 122 -105 176
-56 71 -172 170 -226 195 -47 22 -91 24 -124 5z"/>
<path d="M1705 6710 c-16 -4 -57 -20 -90 -36 -52 -25 -60 -32 -57 -54 6 -39
21 -50 71 -50 82 0 133 50 117 114 -4 15 -1 26 7 29 19 8 -13 6 -48 -3z"/>
<path d="M829 6653 c-29 -18 -59 -62 -59 -86 0 -64 129 -60 174 5 19 27 21 69
4 86 -17 17 -88 14 -119 -5z"/>
<path d="M1905 6391 c-26 -11 -51 -40 -60 -69 -5 -17 1 -29 24 -52 24 -25 38
-30 76 -30 38 0 52 5 76 29 16 16 29 39 29 51 0 12 -13 35 -29 51 -30 30 -73
37 -116 20z"/>
<path d="M1390 6331 c-100 -53 -39 -170 82 -157 81 9 123 56 102 114 -11 31
-68 62 -114 62 -19 0 -51 -8 -70 -19z"/>
<path d="M803 6319 c-35 -10 -73 -52 -73 -80 0 -10 10 -30 23 -44 61 -71 204
-18 181 68 -11 44 -75 71 -131 56z"/>
<path d="M1027 6130 c-84 -25 -97 -105 -25 -151 49 -30 128 -22 168 16 34 32
38 60 14 94 -30 42 -95 59 -157 41z"/>
<path d="M1445 6068 c-22 -12 -45 -37 -45 -50 0 -4 9 -17 20 -28 41 -41 170
-11 170 39 0 43 -93 68 -145 39z"/>
<path d="M783 5450 l-52 -40 96 -148 c53 -81 122 -185 153 -232 71 -106 197
-343 184 -347 -5 -2 -38 -21 -74 -43 -51 -30 -67 -36 -75 -26 -5 7 -113 139
-240 294 l-229 282 -64 -62 -63 -63 103 -100 c57 -56 177 -171 267 -258 l164
-157 -24 -19 c-35 -27 -75 -107 -83 -163 -15 -105 33 -307 110 -460 86 -173
217 -309 368 -383 136 -67 196 -80 361 -79 164 1 276 26 418 92 163 76 260
160 355 305 92 141 142 290 142 422 0 229 -123 394 -357 478 -217 78 -581 75
-928 -7 -34 -8 -61 -11 -63 -6 -2 5 -45 79 -95 163 -51 85 -141 254 -202 375
-60 122 -112 222 -115 222 -3 0 -28 -18 -57 -40z m131 -155 c74 -163 109 -226
363 -653 129 -217 155 -272 126 -272 -4 0 -30 34 -57 75 -27 41 -51 75 -54 75
-3 0 -3 -3 1 -6 7 -7 -49 -64 -63 -64 -10 0 -14 21 -10 50 1 8 10 24 21 36 26
27 24 35 -15 96 -18 29 -50 87 -71 128 -60 121 -109 202 -259 429 l-140 214
34 29 c19 15 38 27 42 26 5 -2 41 -75 82 -163z m-252 -282 c63 -76 173 -212
243 -303 162 -208 259 -317 282 -317 10 0 25 5 33 12 8 8 29 15 45 17 22 2 30
8 30 22 0 39 24 26 59 -32 34 -56 35 -60 23 -99 -14 -49 -27 -65 -27 -35 0 47
-60 73 -112 48 l-32 -17 -176 178 c-97 98 -264 266 -373 373 -108 107 -197
197 -197 201 0 9 71 89 79 89 5 0 60 -62 123 -137z m1090 -430 c9 -10 23 -33
32 -50 19 -38 32 -42 41 -13 9 28 40 25 53 -5 6 -14 16 -25 22 -25 5 0 10 11
10 25 0 15 6 25 14 25 8 0 21 2 28 5 11 5 14 -5 14 -42 -1 -36 3 -48 14 -48
11 0 14 9 12 32 -2 23 2 34 16 42 27 14 50 -10 27 -29 -39 -33 -3 -40 48 -10
31 18 35 19 41 5 4 -12 10 -14 26 -5 16 9 22 6 36 -15 14 -22 22 -24 50 -19
27 5 38 1 58 -20 15 -14 26 -32 26 -41 0 -8 7 -15 15 -15 24 0 18 -59 -10
-116 -32 -64 -82 -123 -145 -169 -43 -32 -51 -34 -69 -23 -26 16 -21 34 7 30
32 -5 28 26 -5 34 -19 5 -30 2 -40 -11 -18 -25 -17 -72 3 -83 12 -7 -2 -16
-58 -41 -150 -68 -348 -102 -507 -89 -103 9 -229 44 -213 60 9 9 9 15 1 25
-19 22 15 16 45 -8 23 -18 31 -19 58 -10 25 9 35 8 48 -4 21 -19 40 -19 40 0
0 24 -45 48 -79 40 -19 -4 -41 -1 -60 9 -61 32 -111 10 -82 -36 11 -18 10 -18
-27 1 -77 39 -212 184 -212 228 0 21 75 65 107 61 39 -4 44 -35 6 -44 -36 -9
-63 -32 -63 -56 0 -24 27 -23 35 2 7 23 45 27 45 5 0 -8 7 -15 15 -15 10 0 15
10 15 28 0 41 22 75 59 94 25 12 39 14 53 7 27 -15 22 -30 -24 -69 -26 -23
-39 -41 -34 -48 5 -9 14 -7 33 8 31 24 56 26 74 4 10 -12 10 -19 1 -32 -7 -10
-16 -27 -22 -39 -5 -13 -15 -23 -21 -23 -8 0 -8 5 1 15 20 24 -1 38 -28 19
-15 -10 -22 -24 -20 -37 2 -17 11 -23 40 -25 32 -3 40 1 50 23 16 36 35 26 52
-28 3 -10 10 -15 16 -12 17 10 11 61 -9 79 -10 9 -21 29 -24 44 -2 15 -7 35
-11 44 -7 15 -2 16 39 13 44 -4 75 -18 75 -36 0 -4 -13 -16 -30 -26 -33 -19
-39 -38 -15 -47 8 -3 15 -17 15 -32 0 -28 17 -29 34 -1 8 12 7 22 -1 37 -9 14
-10 21 -1 26 16 10 40 -27 33 -51 -16 -51 -17 -65 -3 -65 7 0 19 14 25 30 14
37 35 38 61 5 26 -33 38 -32 51 5 7 22 18 32 41 36 17 4 29 12 27 18 -7 20
-39 18 -68 -3 -25 -19 -30 -19 -55 -6 -15 8 -30 12 -34 10 -3 -2 -19 20 -35
50 -28 55 -69 85 -114 85 -25 0 -26 11 -7 49 21 40 42 54 84 55 31 1 36 4 34
21 -14 82 -14 93 7 114 25 25 59 27 87 6 19 -14 19 -14 -2 -15 -46 0 -60 -66
-17 -85 12 -5 24 -20 26 -35 14 -66 14 -65 -25 -68 -29 -2 -38 1 -38 12 0 19
-48 32 -69 19 -18 -11 -28 -63 -12 -63 6 0 11 -7 11 -15 0 -19 19 -19 44 0 23
17 64 19 86 5 16 -10 14 -11 -35 -13 -28 -2 -30 -5 -30 -41 0 -23 5 -41 13
-43 8 -3 12 6 12 25 0 25 3 29 19 25 32 -8 61 14 61 47 0 39 31 41 65 4 29
-31 30 -37 10 -54 -17 -14 -19 -47 -6 -69 11 -17 33 -5 30 17 -3 33 1 42 20
42 25 0 45 -26 36 -47 -4 -10 -9 -25 -10 -33 -1 -8 -6 -23 -10 -32 -11 -27 20
-23 39 4 16 22 16 22 30 3 11 -15 17 -17 26 -8 10 9 6 19 -14 46 -14 18 -26
38 -26 42 0 14 -42 55 -56 55 -23 0 -21 25 4 37 29 15 72 17 72 3 0 -5 7 -10
16 -10 10 0 14 7 12 23 -2 16 -11 23 -30 25 -20 2 -28 9 -28 23 0 31 -27 88
-60 125 -16 19 -30 45 -30 58 0 38 -26 39 -52 3 -12 -18 -27 -35 -32 -39 -15
-10 -29 3 -17 15 6 6 11 20 11 32 0 28 27 65 49 65 10 0 25 -8 33 -17z m9
-135 c24 -21 39 -44 49 -76 7 -25 4 -36 -15 -61 -20 -28 -24 -30 -35 -15 -8 8
-30 24 -51 34 -70 36 -64 130 10 130 15 0 34 -6 42 -12z"/>
<path d="M1828 4482 c-10 -2 -18 -10 -18 -18 0 -10 13 -14 48 -14 54 0 88 -15
59 -26 -9 -3 -17 -13 -17 -21 0 -12 7 -14 33 -8 73 17 82 14 85 -32 2 -24 0
-43 -3 -43 -4 0 -21 11 -37 26 -19 15 -40 24 -55 22 -33 -4 -29 -21 7 -31 16
-4 34 -16 40 -27 6 -12 21 -20 35 -20 14 0 30 -9 37 -20 15 -23 38 -27 38 -5
0 8 4 15 9 15 16 0 42 -51 36 -70 -5 -15 0 -19 22 -22 20 -2 29 -9 31 -25 2
-13 10 -23 18 -23 22 0 17 47 -8 72 -35 35 -68 87 -67 106 0 10 3 12 6 5 2 -7
11 -13 19 -13 17 0 19 46 2 53 -7 3 3 6 23 6 42 1 66 -15 71 -48 5 -39 28 -38
28 1 0 18 -4 38 -8 44 -10 16 -47 34 -69 34 -10 0 -24 14 -33 33 -8 17 -23 34
-33 35 -21 4 -57 -24 -57 -45 0 -19 27 -16 39 5 9 14 12 15 20 2 14 -21 4 -30
-35 -30 -21 0 -43 8 -56 20 -12 11 -32 20 -45 20 -13 0 -36 9 -51 20 -27 19
-80 30 -114 22z"/>
<path d="M7013 5010 c-89 -18 -158 -79 -151 -132 4 -24 1 -28 -19 -28 -28 0
-61 -31 -75 -71 l-10 -29 -32 25 c-18 14 -43 25 -56 25 -12 0 -35 11 -52 25
-22 19 -41 25 -76 25 -37 0 -50 5 -60 21 -15 23 -44 19 -78 -12 -20 -19 -21
-19 -42 6 -28 32 -47 31 -95 -2 -35 -25 -40 -26 -48 -10 -12 21 -52 22 -84 1
-13 -9 -36 -37 -51 -62 -34 -60 -31 -57 -48 -43 -22 18 -69 9 -81 -15 -10 -20
-13 -21 -39 -7 -31 16 -66 11 -90 -13 -18 -17 -21 -95 -7 -156 8 -34 7 -38
-11 -38 -30 0 -58 -19 -58 -38 0 -10 16 -33 35 -52 19 -19 35 -37 35 -40 0 -3
-16 -12 -35 -19 -44 -16 -75 -55 -75 -96 0 -27 6 -35 34 -49 19 -9 42 -16 53
-16 45 -1 45 -1 40 -195 -1 -77 37 -152 103 -202 25 -19 55 -54 68 -79 12 -24
23 -44 25 -44 1 0 2 19 2 42 0 51 -16 49 195 24 471 -54 709 -17 1025 160 55
31 108 56 118 56 9 -1 15 3 12 9 -4 5 -18 9 -33 9 -46 0 -69 24 -75 77 -5 44
-25 74 -57 85 -5 2 -6 18 0 41 11 50 -4 93 -38 111 -26 14 -26 14 53 54 44 23
99 53 122 67 44 27 68 19 39 -14 -9 -10 -16 -26 -16 -35 0 -15 6 -17 35 -12
31 6 35 4 35 -14 0 -11 -7 -23 -15 -26 -17 -7 -18 -13 -5 -34 7 -12 13 -11 34
10 36 33 36 86 1 102 -17 8 -25 19 -25 38 0 14 -5 31 -12 38 -22 22 118 129
157 120 10 -2 2 -20 -26 -61 -44 -63 -38 -79 22 -58 43 15 42 15 35 -16 -4
-16 -21 -40 -38 -55 -38 -33 -33 -62 9 -53 27 6 27 6 -10 -27 -60 -54 -43 -80
24 -35 29 19 34 29 35 63 0 21 6 58 13 82 15 52 7 80 -23 88 -20 5 -22 9 -13
27 9 19 95 67 120 67 11 0 8 -35 -4 -47 -15 -15 -3 -33 21 -33 58 0 66 -35 18
-76 -20 -16 -28 -29 -21 -31 7 -3 22 -12 34 -22 18 -15 20 -21 10 -39 -6 -12
-16 -22 -22 -22 -5 0 -2 -11 7 -25 23 -35 11 -58 -26 -53 -35 5 -35 5 -14 -27
22 -34 12 -52 -38 -66 -58 -17 -62 -22 -44 -57 9 -17 13 -37 10 -45 -6 -17
-47 -37 -74 -37 -14 0 -20 -7 -20 -21 0 -43 -18 -59 -68 -59 -43 0 -47 -2 -48
-25 -3 -39 -62 -130 -126 -193 -101 -100 -203 -151 -403 -202 -220 -56 -493
-66 -615 -22 -76 26 -170 75 -211 108 l-34 28 35 -38 c47 -50 157 -103 253
-121 141 -27 406 -13 596 31 213 49 427 195 506 346 25 48 34 57 63 62 37 5
82 40 82 62 0 7 20 22 45 33 47 21 63 49 51 96 -5 21 -3 25 17 25 12 0 33 7
46 16 19 14 22 23 18 49 -4 27 -2 34 14 38 25 7 34 33 23 66 -7 19 -6 33 6 53
14 25 13 29 -2 44 -16 16 -16 19 2 43 34 49 30 76 -14 92 -31 11 -34 16 -29
40 4 22 0 31 -22 45 -26 17 -29 17 -74 0 -25 -10 -63 -17 -84 -16 -25 0 -54
-8 -81 -24 -61 -36 -139 -103 -148 -127 -5 -12 -13 -17 -19 -13 -14 8 -7 138
11 222 9 39 16 52 29 52 25 0 69 46 76 81 8 38 -2 85 -28 128 -46 76 -142 95
-215 41 -30 -22 -42 -26 -42 -15 0 37 -90 61 -167 45z m119 -37 c9 -10 18 -35
22 -55 8 -44 17 -47 43 -15 36 44 94 87 118 87 13 0 40 -14 60 -31 70 -62 84
-127 38 -171 -16 -14 -37 -28 -48 -30 -28 -5 -46 -87 -48 -220 l-2 -108 -32
-15 c-17 -8 -46 -18 -64 -22 -28 -5 -31 -4 -25 12 7 19 -45 93 -138 195 -38
44 -49 50 -61 40 -13 -11 -7 -21 40 -72 81 -87 88 -106 27 -68 -27 16 -53 30
-58 30 -33 0 -84 23 -89 40 -4 11 -23 29 -43 39 -33 17 -40 17 -64 5 -15 -8
-32 -23 -38 -34 -7 -12 -21 -20 -38 -20 -15 0 -36 -7 -46 -15 -11 -8 -28 -13
-37 -10 -22 7 -66 -15 -97 -48 -15 -16 -30 -23 -43 -20 -14 4 -31 -6 -57 -34
-20 -21 -51 -45 -69 -52 -41 -17 -50 -28 -73 -92 -10 -30 -24 -55 -32 -56 -65
-9 -91 -17 -124 -39 -25 -17 -71 -32 -138 -45 -134 -26 -170 -16 -131 35 25
33 18 43 -39 50 -80 9 -106 21 -106 49 0 32 44 75 86 83 45 8 45 35 -1 71 -43
34 -45 53 -6 53 25 0 41 -17 125 -125 54 -69 102 -125 107 -125 13 0 8 8 -66
105 -88 117 -114 156 -135 214 -49 129 5 188 92 101 45 -45 64 -51 54 -17 -4
12 -9 37 -13 55 -5 27 -3 32 13 32 11 0 28 -6 39 -13 46 -31 51 -29 80 44 20
51 32 69 46 69 12 0 21 -9 25 -25 8 -33 34 -26 87 21 44 41 52 41 73 9 21 -32
41 -32 77 3 28 26 29 27 43 8 8 -11 14 -26 14 -33 0 -17 30 -16 54 2 28 21 34
19 71 -21 29 -32 36 -34 55 -24 26 14 50 7 50 -15 0 -8 9 -15 20 -15 16 0 20
-7 20 -34 0 -39 21 -66 52 -66 19 0 20 2 6 18 -25 28 -30 58 -14 95 19 46 55
70 92 61 24 -6 26 -5 19 12 -18 40 -9 77 26 106 63 53 171 75 201 41z m-275
-408 c16 -11 23 -28 25 -63 2 -34 7 -47 18 -47 8 0 16 10 18 23 3 19 9 23 30
20 23 -3 28 -9 34 -48 9 -53 -2 -68 -33 -46 -43 29 -106 19 -156 -26 -16 -15
-29 -18 -51 -13 -28 6 -30 9 -36 72 -7 69 -1 83 36 83 12 0 18 -13 23 -48 3
-26 5 -54 3 -62 -2 -8 4 -15 14 -17 22 -5 32 42 19 98 -8 35 -7 49 5 67 17 26
23 27 51 7z m-308 -179 c22 -89 14 -142 -34 -214 -1 -1 -10 0 -19 4 -12 5 -16
19 -16 58 0 28 -5 68 -11 90 -13 49 -5 84 24 96 38 15 44 11 56 -34z m-126
-220 c54 -27 78 -45 112 -85 l20 -23 -28 13 c-41 18 -54 1 -31 -42 10 -19 17
-38 15 -44 -1 -5 3 -4 10 3 21 20 33 14 14 -8 -20 -22 -8 -28 15 -7 12 10 12
9 3 -3 -17 -25 -22 -69 -6 -63 7 3 13 0 13 -6 0 -6 -5 -11 -11 -11 -5 0 -7 -5
-3 -12 12 -20 -80 -1 -150 31 -76 34 -112 81 -124 157 -11 70 -4 132 16 136
27 6 79 -8 135 -36z"/>
<path d="M6313 4768 c-13 -6 -25 -19 -28 -30 -6 -17 -8 -17 -28 -3 -65 45
-141 -19 -123 -105 5 -28 4 -29 -24 -24 -22 5 -34 1 -54 -19 -31 -31 -32 -59
-6 -134 27 -78 48 -107 65 -93 11 9 8 22 -16 75 -50 105 -27 167 42 116 15
-11 35 -18 43 -15 14 5 14 10 1 41 -40 95 9 178 63 108 27 -33 49 -32 57 4 12
55 47 61 84 17 12 -14 16 -14 42 -1 44 23 66 19 78 -15 12 -35 9 -34 51 -16
18 7 41 11 50 9 18 -5 40 -43 40 -68 0 -8 9 -15 20 -15 23 0 24 5 9 51 -20 57
-38 71 -89 67 -36 -2 -49 1 -67 20 -25 24 -48 27 -89 12 -20 -8 -31 -7 -43 4
-24 20 -53 26 -78 14z"/>
<path d="M12615 4851 c-83 -14 -157 -39 -206 -70 -81 -51 -188 -226 -189 -308
0 -37 6 -36 -240 -53 -85 -6 -207 -15 -270 -20 -63 -6 -134 -7 -157 -4 l-43 6
0 61 c0 57 -2 62 -39 97 -122 116 -341 51 -341 -102 0 -44 52 -150 89 -181
l28 -23 -45 -39 c-56 -48 -86 -113 -77 -162 19 -102 131 -193 238 -193 55 0
87 16 129 65 23 26 58 119 58 152 l0 26 78 -6 c42 -4 154 -9 247 -13 189 -7
363 -33 376 -57 25 -44 108 -143 150 -180 112 -97 217 -145 404 -185 99 -21
147 -26 275 -26 150 -1 157 0 218 28 113 52 149 110 227 361 60 190 65 270 23
331 -15 22 -35 60 -43 85 -13 38 -44 72 -185 206 -100 95 -188 170 -215 183
-41 20 -64 22 -243 25 -108 2 -220 0 -247 -4z m331 -62 c162 -15 176 -21 231
-87 40 -47 122 -131 181 -185 21 -19 123 -177 138 -213 24 -56 17 -121 -26
-252 -63 -195 -118 -289 -190 -327 -40 -21 -222 -38 -319 -31 -321 25 -514
129 -633 341 l-34 60 -84 15 c-81 15 -84 16 -98 50 -11 28 -12 41 -2 71 12 35
10 71 -5 110 -5 14 8 18 87 28 51 7 94 13 95 15 2 2 12 38 24 81 43 166 114
258 226 296 118 39 225 46 409 28z m-1550 -244 c37 -24 54 -57 62 -121 6 -51
11 -60 36 -72 31 -16 115 -17 328 -6 149 7 178 0 193 -47 9 -27 -8 -39 -59
-39 l-38 0 57 -65 c54 -62 55 -65 28 -60 -46 7 -533 28 -539 23 -2 -3 3 -21
11 -41 29 -70 13 -109 -68 -168 -52 -37 -92 -38 -143 0 -46 33 -72 69 -81 112
-5 25 0 36 27 64 18 18 55 43 81 55 48 20 49 21 49 65 0 42 -2 46 -45 70 -61
36 -105 89 -105 126 0 97 122 159 206 104z"/>
<path d="M12649 4611 c-26 -10 -74 -38 -108 -61 -58 -40 -60 -44 -45 -61 15
-17 18 -17 53 6 20 13 72 38 116 55 92 36 106 46 98 66 -7 19 -58 17 -114 -5z"/>
<path d="M3795 4801 c-96 -20 -315 -75 -345 -86 -19 -8 -47 -16 -61 -19 -35
-7 -84 -49 -146 -121 -28 -33 -67 -76 -86 -95 -19 -19 -42 -51 -52 -70 -10
-19 -27 -47 -38 -62 -16 -21 -20 -43 -21 -102 0 -69 2 -78 37 -130 20 -31 37
-61 37 -68 0 -7 10 -28 23 -47 12 -19 36 -55 52 -81 34 -51 121 -135 177 -168
20 -13 39 -29 42 -37 3 -9 18 -15 35 -15 22 0 35 -8 52 -32 28 -40 38 -48 56
-41 7 3 30 -6 51 -20 28 -19 56 -27 117 -32 69 -6 83 -10 100 -32 l20 -25 28
23 c21 16 31 19 40 10 6 -6 23 -11 37 -11 18 0 30 -7 37 -22 8 -18 19 -21 69
-24 32 -1 83 2 113 8 35 6 56 7 63 0 7 -7 29 -4 66 9 30 10 68 19 84 19 16 0
46 9 66 19 20 10 64 22 97 26 66 8 97 22 231 101 76 45 98 64 129 112 21 31
43 60 49 64 41 25 49 39 61 103 20 106 11 165 -43 280 -64 135 -117 204 -209
272 -82 61 -312 196 -450 265 l-81 40 -66 -12 c-51 -11 -87 -11 -173 -2 -114
13 -150 13 -198 3z m563 -130 c65 -46 99 -131 72 -181 -6 -12 -37 -34 -68 -48
-50 -23 -70 -27 -162 -27 -89 0 -112 3 -150 22 -51 26 -90 76 -90 117 0 31 35
83 45 66 3 -5 1 -10 -6 -10 -7 0 -9 -3 -5 -7 4 -5 13 -1 19 8 14 19 57 43 64
36 2 -3 -5 -8 -16 -12 -21 -6 -36 -38 -26 -55 3 -5 23 -15 44 -21 51 -15 81 0
81 42 0 29 -2 31 -65 55 -16 6 -13 9 20 14 22 4 33 8 25 9 -11 2 -10 5 5 12
11 5 56 7 101 6 64 -3 87 -8 112 -26z m-784 -262 c4 6 29 11 55 11 102 0 196
-49 236 -123 18 -34 18 -35 -6 -83 -30 -61 -77 -94 -133 -94 -23 0 -82 9 -133
19 -168 35 -262 119 -207 187 13 15 15 16 10 2 -3 -12 -1 -15 10 -11 7 3 14
11 14 19 0 8 7 14 15 14 8 0 15 -5 15 -12 0 -8 7 -6 18 5 13 13 14 20 5 25 -8
5 -2 12 17 19 17 6 28 7 25 2 -4 -5 1 -6 9 -3 9 3 14 10 11 14 -7 12 19 19 26
7 4 -5 9 -5 13 2z m1185 -45 c46 -18 107 -93 117 -143 8 -39 -19 -72 -88 -107
-40 -20 -62 -24 -145 -24 -112 0 -172 22 -204 74 -26 42 -24 59 10 96 l28 32
-1 -39 c-1 -38 -1 -38 40 -41 61 -5 94 11 94 47 0 39 -21 54 -74 50 -41 -4
-43 -3 -28 12 10 9 19 12 20 8 2 -5 8 -9 14 -9 6 0 8 6 5 13 -3 8 1 14 9 14 7
0 11 -4 8 -9 -3 -4 1 -8 9 -8 10 0 14 7 10 23 -3 16 -2 18 5 8 5 -7 15 -10 22
-6 8 5 9 10 1 14 -24 15 109 11 148 -5z m-340 -282 c48 -33 98 -102 107 -150
11 -57 -34 -101 -119 -116 -58 -11 -181 -8 -227 4 -47 13 -106 65 -115 103 -7
27 9 67 26 67 6 0 7 5 3 12 -4 7 -3 8 5 4 6 -4 9 -11 6 -16 -3 -5 -1 -19 5
-30 22 -41 149 -15 137 29 -3 13 4 16 33 16 20 0 49 9 64 19 24 15 28 23 23
52 -3 19 -2 34 2 34 4 0 27 -13 50 -28z m-654 -43 c52 -14 100 -61 119 -115
13 -40 13 -45 -4 -67 -54 -68 -256 -101 -357 -57 -62 26 -82 47 -89 91 -4 25
-1 40 13 54 23 26 76 55 100 55 15 0 16 2 3 10 -12 8 -12 10 5 10 11 0 31 7
45 14 31 17 111 20 165 5z"/>
<path d="M4192 4658 c-28 -28 -6 -68 37 -68 19 0 22 -3 13 -12 -19 -19 -15
-66 7 -78 22 -11 80 -13 105 -4 37 14 4 78 -46 89 l-32 7 28 15 c15 8 25 20
23 26 -10 32 -110 50 -135 25z"/>
<path d="M4209 3918 c-23 -53 26 -103 95 -96 43 4 66 50 45 87 -13 23 -22 26
-72 29 -51 3 -58 1 -68 -20z"/>
<path d="M3533 3989 c-30 -9 -32 -11 -20 -29 6 -11 20 -23 30 -26 17 -5 17 -7
3 -23 -25 -27 -20 -60 10 -67 33 -9 95 2 106 18 9 15 -25 48 -51 48 -9 0 -1 8
17 16 35 18 40 34 16 58 -17 18 -61 19 -111 5z"/>
<path d="M9295 4760 c-143 -22 -204 -41 -266 -83 -54 -36 -79 -72 -83 -123
l-3 -37 -174 2 c-204 2 -253 -8 -312 -65 -68 -66 -85 -190 -38 -281 43 -85
153 -157 287 -190 l70 -18 0 -60 c-1 -81 30 -142 115 -228 153 -153 400 -209
1052 -238 280 -13 384 -7 479 27 131 46 189 151 132 241 -13 21 -12 22 44 33
166 34 249 113 260 245 3 41 0 76 -8 95 -32 78 -202 187 -384 246 -83 27 -86
29 -92 64 -11 54 -39 113 -74 153 -65 74 -241 166 -397 208 -115 31 -439 36
-608 9z m635 -69 c196 -42 351 -149 385 -265 9 -32 15 -59 13 -61 -1 -1 -66 6
-143 16 -352 48 -928 107 -1100 112 l-90 3 -3 36 c-4 52 46 100 131 127 60 18
220 46 317 55 113 10 397 -3 490 -23z m-1033 -216 c94 -8 353 -35 575 -60 222
-24 462 -49 533 -54 128 -9 378 -58 519 -101 73 -23 206 -112 206 -138 0 -9
-9 -36 -19 -59 -35 -76 -89 -83 -175 -23 -121 85 -142 87 -253 29 -96 -50
-120 -48 -215 17 -79 54 -141 78 -177 69 -14 -3 -64 -17 -110 -32 -99 -32
-132 -27 -235 36 -165 101 -198 110 -316 82 -86 -20 -131 -25 -208 -22 -36 1
-50 8 -101 55 -92 85 -133 84 -221 -4 -55 -55 -80 -62 -102 -28 -12 17 -23 21
-61 20 -26 -1 -51 -3 -55 -3 -46 -7 -60 26 -42 101 9 37 21 58 48 80 64 52
135 58 409 35z m-16 -240 c28 -29 59 -49 84 -56 46 -13 144 -5 226 16 92 25
170 20 240 -15 37 -19 57 -35 53 -42 -4 -6 -3 -8 3 -5 14 9 55 -22 47 -35 -4
-6 -2 -8 3 -5 13 8 76 -16 67 -25 -3 -4 3 -4 15 -1 17 4 21 1 21 -16 0 -12 4
-20 10 -16 5 3 6 13 3 22 -4 11 -3 14 5 9 7 -4 12 -15 12 -24 0 -13 4 -12 19
7 13 17 25 22 39 19 12 -3 22 -3 24 2 2 4 17 10 33 14 19 4 25 3 17 -2 -26
-17 16 -22 45 -6 l28 16 -27 -6 c-48 -11 -30 10 20 22 40 11 54 10 85 -3 44
-18 48 -28 10 -20 -16 3 -22 2 -14 -1 25 -12 -9 -22 -59 -17 -30 3 -51 0 -55
-7 -5 -8 4 -9 32 -5 28 5 34 4 23 -4 -12 -9 -10 -11 10 -11 23 -1 23 -2 6 -11
-12 -8 -25 -8 -40 -1 -15 7 -25 6 -34 -4 -20 -21 -112 -23 -186 -3 -29 8 -36
13 -25 20 8 5 9 9 4 9 -6 0 -15 -4 -21 -10 -6 -6 -44 -3 -109 10 -275 53 -574
48 -656 -11 -31 -22 -77 -20 -170 6 -108 31 -219 116 -219 168 0 18 5 19 50
14 28 -3 62 -15 77 -27 31 -24 66 -26 84 -4 7 9 36 32 64 50 70 48 101 46 156
-11z m381 -201 c199 -25 498 -86 791 -160 322 -81 477 -155 477 -226 0 -32
-37 -92 -67 -109 -99 -58 -341 -73 -718 -45 -484 36 -634 74 -780 193 -74 60
-122 129 -131 189 -8 58 5 86 56 120 81 54 175 63 372 38z"/>
<path d="M3003 4538 c-113 -126 -157 -289 -118 -443 46 -182 233 -429 416
-551 232 -154 662 -233 974 -179 125 22 369 105 511 175 l121 59 141 149 c147
156 162 181 162 267 l-1 40 -33 -70 c-35 -73 -139 -201 -237 -289 -70 -63
-144 -97 -414 -187 l-220 -74 -210 1 c-115 0 -244 6 -285 12 -398 60 -751 331
-856 657 -50 152 -34 294 46 412 33 48 34 54 3 21z"/>
<path d="M9375 2644 c-16 -8 -41 -25 -54 -37 -29 -27 -82 -118 -75 -129 3 -4
1 -8 -5 -8 -13 0 -73 -112 -67 -127 3 -7 -1 -10 -10 -6 -7 3 -14 1 -14 -4 0
-5 -25 -51 -55 -102 -30 -51 -52 -98 -48 -104 3 -6 1 -7 -5 -3 -7 4 -12 1 -12
-7 0 -8 -7 -20 -15 -27 -10 -8 -13 -21 -9 -33 4 -12 2 -17 -4 -13 -13 8 -85
-112 -76 -126 5 -7 2 -8 -6 -3 -10 6 -12 4 -7 -9 4 -9 3 -15 -2 -11 -5 3 -26
-25 -47 -62 -20 -38 -44 -78 -51 -90 -14 -21 -13 -22 31 -19 55 3 52 27 30
-237 l-17 -198 -49 -25 -48 -24 0 -70 c0 -62 2 -70 19 -70 29 0 434 76 556
105 328 77 651 171 792 232 64 27 87 43 106 72 68 102 107 217 107 316 0 67
-25 162 -55 205 -13 19 -29 47 -36 63 -11 24 -21 31 -40 29 -4 -1 -15 9 -25
21 l-19 22 23 -19 c19 -16 22 -17 22 -3 0 9 -10 23 -22 31 -12 9 -19 16 -15
16 4 0 2 6 -5 14 -7 8 -15 12 -17 11 -2 -2 -15 10 -28 26 -14 16 -28 28 -30
25 -7 -6 -30 13 -69 57 -6 7 -9 18 -6 25 7 21 -48 104 -64 98 -9 -3 -12 -1 -9
4 3 6 1 11 -4 11 -15 2 -23 4 -43 13 -9 4 -22 5 -27 1 -6 -3 -22 1 -35 10 -14
9 -30 14 -36 10 -6 -4 -9 -1 -8 6 2 7 -6 17 -17 23 -11 6 -32 19 -46 29 -29
19 -60 29 -100 31 -15 0 -35 9 -45 18 -28 25 -112 58 -147 58 -18 0 -45 -7
-62 -16z m-90 -204 c-3 -5 1 -10 9 -10 9 0 57 -16 108 -36 51 -20 101 -37 110
-37 9 -1 14 -5 12 -9 -3 -5 8 -11 25 -14 17 -4 31 -10 31 -15 0 -5 5 -9 10 -9
17 0 183 -107 209 -134 13 -14 28 -23 34 -19 6 3 7 2 4 -3 -9 -15 7 -34 33
-39 12 -2 25 -7 29 -11 3 -4 -2 -4 -12 -1 -14 5 -17 3 -13 -11 5 -16 -4 -22
-56 -37 -35 -10 -67 -19 -73 -21 -5 -1 -23 -8 -40 -14 -16 -7 -42 -14 -57 -15
-42 -4 -287 -78 -283 -86 3 -3 -8 -4 -23 -2 -21 4 -24 2 -12 -6 11 -8 8 -10
-16 -5 -21 4 -36 1 -46 -10 -9 -8 -18 -13 -21 -10 -8 8 -57 -8 -51 -17 3 -5
-1 -7 -8 -4 -19 7 -170 -40 -161 -50 4 -4 2 -5 -5 -1 -16 9 -104 -13 -114 -28
-5 -8 -11 -7 -19 1 -9 9 -9 15 0 26 6 8 10 21 8 28 -2 8 -2 10 1 6 4 -8 35 37
101 151 23 40 39 77 36 82 -4 6 -2 9 4 8 6 -2 21 15 34 37 12 22 28 46 35 53
6 7 12 17 12 22 0 5 11 26 25 46 14 21 23 45 20 53 -3 9 -3 12 1 8 10 -9 44
42 44 66 0 10 4 16 9 13 12 -8 23 22 14 37 -3 7 -3 9 2 5 4 -4 17 -1 29 7 24
18 29 19 21 5z m661 -622 c12 -23 16 -56 16 -118 -1 -144 56 -116 -541 -264
-286 -71 -523 -127 -526 -124 -3 3 2 87 11 186 l18 181 65 11 c37 7 262 45
501 85 239 40 436 73 437 74 1 1 10 -13 19 -31z"/>
<path d="M12397 2579 c-430 -25 -489 -30 -505 -46 -13 -13 -29 -67 -50 -178
-18 -88 -32 -168 -32 -178 0 -16 73 -124 214 -317 23 -31 61 -86 86 -123 l45
-68 70 5 c39 3 285 24 548 47 263 22 481 39 483 36 9 -9 -24 -279 -34 -286 -6
-4 -251 -31 -544 -60 -293 -29 -551 -55 -573 -57 -38 -4 -42 -2 -70 38 -119
169 -300 409 -302 402 -2 -5 -11 -49 -22 -99 -14 -64 -16 -96 -9 -110 6 -11
76 -134 157 -272 139 -241 147 -253 176 -253 37 0 1161 172 1174 179 5 3 30
195 56 426 l47 420 -153 263 -152 262 -61 -1 c-34 -1 -280 -14 -549 -30z"/>
<path d="M6305 2540 c-123 -20 -231 -65 -318 -133 -58 -45 -137 -144 -137
-172 0 -16 -9 -28 -27 -37 -24 -11 -29 -22 -36 -73 -11 -82 -2 -266 19 -356
61 -272 219 -472 469 -595 138 -67 248 -89 400 -80 129 7 211 27 310 76 157
76 274 199 365 385 72 147 124 345 90 345 -41 0 50 56 152 93 175 63 290 179
292 294 1 59 -34 94 -102 101 -58 5 -64 1 -249 -145 l-113 -88 -77 75 c-168
162 -365 259 -598 295 -125 19 -361 27 -440 15z m435 -51 c24 -6 48 -15 52
-22 6 -9 8 -9 8 1 0 6 5 12 11 12 5 0 8 -3 6 -7 -3 -5 5 -9 16 -9 34 -2 78
-14 101 -26 12 -7 29 -13 38 -15 48 -8 179 -82 283 -159 88 -66 119 -99 111
-120 -3 -8 -2 -12 4 -9 6 3 15 3 20 0 6 -3 -17 -29 -51 -57 l-60 -51 -37 34
c-20 19 -39 36 -42 39 -10 10 -69 50 -74 50 -2 0 -30 15 -63 33 -32 18 -94 46
-138 63 -44 17 -89 35 -100 39 -25 10 -27 11 -100 30 -33 8 -72 22 -87 30 -30
17 -50 20 -28 4 12 -9 12 -10 -3 -5 -10 3 -24 6 -31 6 -7 0 -13 6 -13 14 0 8
6 12 14 9 8 -3 13 3 13 17 0 11 -4 18 -10 15 -18 -11 -10 7 12 26 l21 19 -26
0 c-17 0 -27 -5 -27 -15 0 -8 -7 -15 -15 -15 -8 0 -15 5 -15 10 0 6 6 10 13
10 8 0 7 4 -3 10 -11 7 -7 10 20 11 21 1 27 3 16 6 -11 3 -27 12 -35 21 -15
14 -14 15 2 9 9 -3 17 -2 17 4 0 12 104 5 180 -12z m1088 -155 c45 -31 14
-135 -59 -198 -49 -42 -143 -92 -207 -111 -26 -8 -86 -37 -132 -65 -46 -28
-97 -58 -114 -66 l-31 -15 28 25 c27 25 18 36 -13 16 -9 -6 -17 -5 -22 3 -6 9
-8 9 -8 0 0 -7 -4 -13 -10 -13 -5 0 -7 7 -3 16 5 14 3 15 -15 5 -40 -21 -22 4
36 49 31 25 109 88 172 141 63 53 155 126 204 162 94 72 130 82 174 51z
m-1179 -24 c215 -52 536 -207 587 -285 17 -27 21 -23 -101 -124 -49 -41 -51
-42 -104 -36 -30 4 -61 9 -69 13 -10 3 -13 1 -8 -6 8 -13 82 -35 196 -57 47
-9 93 -19 102 -21 12 -4 16 -1 13 9 -4 9 15 26 54 50 32 20 62 37 65 37 15 0
-82 -125 -127 -162 -58 -50 -107 -81 -115 -74 -2 3 3 8 12 12 9 3 16 11 16 16
0 6 -12 3 -26 -7 -26 -16 -26 -16 -19 7 5 19 4 20 -4 6 -9 -13 -29 -17 -98
-18 -49 -1 -100 -1 -116 -1 -15 1 -30 -5 -33 -12 -3 -8 -12 -14 -20 -14 -12 0
-10 5 7 18 19 14 21 20 10 33 -11 13 -9 19 13 41 22 22 32 25 61 19 28 -5 35
-3 35 10 0 9 -11 22 -25 28 -35 16 -111 -20 -126 -59 -25 -63 -3 -58 -309 -61
-71 -1 -159 7 -192 16 -24 6 -38 7 -38 1 0 -14 -35 7 -135 82 -97 73 -192 165
-220 215 -17 31 -17 33 4 77 65 134 223 238 406 266 79 13 203 5 304 -19z
m-740 -325 c18 -32 70 -95 115 -139 175 -174 381 -282 606 -317 69 -10 244 -8
340 6 29 4 31 3 10 -4 -18 -7 -20 -9 -7 -10 10 -1 16 -5 12 -10 -3 -5 7 -12
22 -14 22 -3 20 -4 -12 -6 -22 -2 -34 -5 -27 -8 7 -2 12 -22 12 -44 0 -32 -4
-39 -19 -39 -16 0 -20 -11 -26 -76 -6 -67 -5 -77 12 -89 14 -11 15 -15 3 -15
-8 -1 -28 -7 -45 -15 l-30 -14 30 5 30 5 -25 -15 c-14 -8 -28 -12 -32 -10 -4
3 -18 -2 -30 -10 -34 -22 -190 -40 -277 -32 -122 11 -170 25 -276 76 -272 131
-431 367 -465 690 -5 52 -7 133 -3 180 l6 85 21 -61 c12 -33 36 -87 55 -119z"/>
<path d="M6564 2210 c-16 -5 -41 -21 -54 -35 -21 -23 -22 -28 -11 -65 14 -46
41 -58 94 -41 56 19 80 48 73 89 -3 19 -9 39 -13 43 -14 14 -57 18 -89 9z"/>
<path d="M4125 2479 c-308 -75 -628 -368 -746 -685 -102 -272 -37 -510 167
-610 51 -25 72 -29 164 -32 72 -3 126 1 173 12 452 106 864 629 798 1012 -17
94 -44 148 -105 209 -109 109 -261 140 -451 94z m317 -48 c72 -28 142 -96 177
-171 24 -50 26 -66 26 -180 0 -103 -4 -138 -23 -199 l-23 -74 -122 6 c-67 4
-200 10 -295 13 -95 4 -175 10 -177 14 -5 7 43 582 49 587 1 1 27 9 57 17 83
23 257 17 331 -13z m-409 -37 c-1 -10 -14 -145 -29 -299 -15 -154 -28 -281
-29 -283 -3 -3 -508 80 -514 85 -16 12 97 176 181 263 75 78 187 163 282 212
50 26 96 46 101 44 6 -1 9 -11 8 -22z m-325 -555 c125 -23 229 -43 231 -45 8
-7 -62 -83 -442 -478 l-29 -29 -21 24 c-49 54 -70 118 -75 225 -5 112 5 174
44 277 20 52 30 67 46 67 11 0 122 -19 246 -41z m872 -53 c0 -20 -63 -130
-112 -196 -64 -86 -185 -201 -273 -258 -43 -29 -84 -52 -90 -52 -12 0 -126
498 -118 513 2 4 137 7 299 7 246 0 294 -2 294 -14z m-606 -48 c11 -36 106
-455 106 -464 0 -13 -92 -52 -175 -75 -29 -8 -93 -14 -155 -13 -114 0 -186 20
-245 68 l-30 24 240 236 c132 129 244 235 248 236 4 0 9 -6 11 -12z"/>
<path d="M3592 1725 c-63 -53 -66 -135 -4 -135 44 0 102 66 102 115 0 20 -28
45 -50 45 -10 0 -32 -11 -48 -25z"/>
<path d="M4269 1703 c-56 -34 -79 -121 -39 -143 59 -31 155 101 108 148 -16
16 -38 15 -69 -5z"/>
<path d="M3834 1496 c-41 -41 -48 -98 -14 -116 28 -15 53 -5 89 36 74 84 4
159 -75 80z"/>
<path d="M1097 2299 c-84 -12 -156 -36 -202 -65 -40 -26 -95 -82 -95 -96 0 -5
0 -10 0 -13 0 -3 3 -4 7 -2 5 1 7 9 5 17 -2 11 1 10 8 -2 6 -10 15 -18 20 -18
5 0 7 8 4 18 -5 16 -5 16 6 0 9 -15 26 -18 100 -18 53 0 90 -4 90 -10 0 -6 27
-10 60 -10 33 0 60 4 60 10 0 6 9 10 20 10 11 0 20 -4 20 -9 0 -5 66 -12 148
-15 81 -4 181 -9 222 -12 41 -3 73 -4 70 -1 -3 3 -34 7 -70 10 -80 7 -245 49
-299 77 -46 23 -58 40 -67 99 -7 46 -5 45 -107 30z"/>
<path d="M2574 2245 c-54 -73 -304 -147 -546 -161 -107 -7 -134 -18 -59 -26
23 -2 37 1 34 6 -4 6 46 6 128 2 74 -4 217 -8 319 -8 112 1 173 -3 155 -8 -28
-7 -28 -8 -5 -9 14 0 43 3 65 8 22 5 66 12 98 16 31 3 55 11 52 16 -3 5 1 6 9
3 57 -22 -47 95 -125 141 -84 49 -101 52 -125 20z"/>
<path d="M1143 1988 c-30 -62 -44 -148 -31 -195 6 -21 27 -54 47 -73 62 -59
95 -65 376 -65 138 -1 313 -7 390 -14 395 -38 644 38 662 202 5 48 -13 109
-26 88 -5 -7 -21 -11 -38 -10 -20 2 -43 -5 -69 -23 -51 -35 -80 -46 -189 -70
-183 -40 -825 -35 -986 7 -95 25 -135 74 -111 137 6 17 8 37 3 45 -5 10 -13 3
-28 -29z"/>
</g>
</svg>
