<?xml version="1.0" standalone="no"?>
<!DOCTYPE svg PUBLIC "-//W3C//DTD SVG 20010904//EN"
 "http://www.w3.org/TR/2001/REC-SVG-20010904/DTD/svg10.dtd">
<svg version="1.0" xmlns="http://www.w3.org/2000/svg"
 width="225.000000pt" height="225.000000pt" viewBox="0 0 225.000000 225.000000"
 preserveAspectRatio="xMidYMid meet">
<metadata>
Created by potrace 1.15, written by Peter Selinger 2001-2017
</metadata>
<g transform="translate(0.000000,225.000000) scale(0.100000,-0.100000)"
fill="#000000" stroke="none">
<path d="M1055 2214 c-199 -26 -297 -54 -427 -121 -364 -187 -591 -558 -591
-968 0 -820 875 -1346 1599 -961 580 308 756 1054 376 1591 -160 227 -411 389
-681 439 -84 16 -229 26 -276 20z m200 -55 c106 -12 274 -66 364 -115 374
-205 587 -610 542 -1028 -37 -344 -237 -643 -543 -810 -35 -19 -110 -51 -168
-70 -421 -140 -888 5 -1155 359 -75 100 -118 183 -159 305 -140 421 5 888 359
1155 100 75 183 118 305 159 155 52 289 65 455 45z"/>
<path d="M454 1754 c-3 -13 -4 -30 -1 -37 3 -9 444 -157 470 -157 6 0 21 60
15 65 -2 2 -91 31 -198 65 -107 33 -214 67 -237 75 -42 14 -43 13 -49 -11z"/>
<path d="M1570 1703 c-129 -40 -236 -76 -238 -78 -6 -6 9 -65 16 -65 4 0 111
33 237 73 202 64 230 75 233 95 8 54 0 54 -248 -25z"/>
<path d="M598 1541 c-87 -28 -140 -93 -146 -179 -4 -70 24 -131 81 -176 51
-40 143 -49 203 -18 182 93 135 355 -68 377 -24 2 -55 0 -70 -4z"/>
<path d="M1537 1536 c-172 -64 -186 -285 -23 -368 60 -31 152 -22 203 18 146
116 85 338 -98 359 -26 3 -60 -1 -82 -9z"/>
<path d="M900 801 c-211 -46 -348 -142 -367 -255 l-6 -36 39 0 c37 0 41 3 59
43 55 118 300 198 564 184 231 -13 416 -91 453 -193 11 -32 15 -34 55 -34 42
0 43 1 37 28 -29 118 -137 201 -329 253 -116 31 -384 37 -505 10z"/>
</g>
</svg>
