<?xml version="1.0" standalone="no"?>
<!DOCTYPE svg PUBLIC "-//W3C//DTD SVG 20010904//EN"
 "http://www.w3.org/TR/2001/REC-SVG-20010904/DTD/svg10.dtd">
<svg version="1.0" xmlns="http://www.w3.org/2000/svg"
 width="626.000000pt" height="626.000000pt" viewBox="0 0 626.000000 626.000000"
 preserveAspectRatio="xMidYMid meet">
<metadata>
Created by potrace 1.15, written by Peter Selinger 2001-2017
</metadata>
<g transform="translate(0.000000,626.000000) scale(0.100000,-0.100000)"
fill="#000000" stroke="none">
<path d="M2964 5201 c-139 -127 -305 -308 -430 -471 -108 -139 -284 -423 -284
-457 0 -13 52 -14 753 -18 l62 0 6 520 c4 286 5 521 4 523 -1 1 -51 -42 -111
-97z"/>
<path d="M3240 5024 c0 -154 -3 -390 -7 -525 l-6 -247 409 -4 c225 -2 411 -2
414 0 10 7 -96 197 -184 331 -153 233 -373 493 -573 676 l-53 48 0 -279z"/>
<path d="M2765 5273 c-58 -8 -271 -65 -350 -93 -381 -136 -700 -358 -959 -670
-66 -79 -166 -220 -166 -234 0 -3 173 -6 385 -6 l384 0 45 89 c125 250 326
526 578 794 66 70 118 126 116 126 -2 -1 -16 -4 -33 -6z"/>
<path d="M3602 5178 c271 -299 445 -543 586 -825 l56 -113 141 0 c78 0 251 -3
384 -7 277 -7 259 -16 188 92 -257 386 -649 694 -1086 850 -88 31 -316 94
-345 95 -5 0 29 -42 76 -92z"/>
<path d="M16 3728 c-3 -117 -9 -466 -12 -775 l-7 -563 150 0 150 0 6 212 c4
116 7 356 7 534 0 177 3 330 6 339 5 13 8 12 19 -7 7 -13 65 -117 130 -233 65
-115 131 -235 148 -265 17 -30 42 -76 56 -101 14 -25 82 -145 150 -267 l123
-222 164 0 164 0 0 333 c0 182 3 531 7 775 l6 442 -150 0 -151 0 -7 -535 c-4
-294 -10 -535 -14 -535 -3 0 -25 35 -48 78 -73 132 -116 209 -231 414 -38 67
-122 220 -187 338 -65 118 -125 223 -133 233 -13 15 -35 17 -177 17 l-163 0
-6 -212z"/>
<path d="M1586 3149 c-4 -424 -5 -773 -4 -774 2 -2 264 -6 584 -10 l581 -8 5
26 c3 14 5 77 4 139 l-1 113 -421 3 c-384 2 -423 4 -428 19 -4 9 -4 102 0 206
l7 189 376 -3 376 -4 0 130 0 130 -373 3 c-323 2 -374 4 -379 17 -3 9 -2 84 2
168 l7 152 402 -4 403 -3 6 68 c4 38 7 99 7 135 l0 66 -337 6 c-186 4 -444 7
-574 7 l-236 0 -7 -771z"/>
<path d="M5450 3906 c-204 -36 -348 -149 -406 -317 -22 -65 -26 -232 -6 -296
18 -59 70 -133 117 -165 62 -42 192 -94 338 -133 370 -101 407 -116 438 -177
74 -145 -55 -261 -291 -261 -166 -1 -264 45 -314 144 -14 29 -26 65 -26 80 l0
28 -156 3 -156 3 6 -61 c30 -294 261 -462 636 -464 255 0 444 75 552 220 105
142 101 402 -9 534 -59 70 -234 149 -433 196 -224 52 -377 110 -397 151 -21
44 -23 60 -13 105 23 102 108 155 248 156 175 1 289 -67 327 -196 l12 -41 157
-3 157 -3 -5 23 c-3 13 -10 47 -16 77 -21 107 -103 231 -200 302 -44 32 -141
75 -200 89 -76 17 -277 21 -360 6z"/>
<path d="M2913 3888 c2 -13 21 -84 42 -158 20 -74 47 -175 60 -225 13 -49 49
-184 80 -300 31 -115 65 -241 75 -280 10 -38 39 -149 65 -245 26 -96 54 -201
61 -233 25 -103 14 -97 183 -97 l149 0 6 26 c4 14 25 112 47 218 56 266 83
398 119 566 17 80 40 189 51 242 23 115 35 150 42 128 5 -15 29 -133 87 -440
17 -91 40 -208 50 -260 10 -52 35 -181 56 -287 l37 -192 71 -6 c39 -3 109 -5
155 -3 l84 3 47 165 c45 156 120 415 225 775 26 88 62 214 82 280 19 66 45
156 57 200 13 44 26 90 30 103 l7 22 -164 0 -164 0 -51 -207 c-27 -115 -87
-365 -133 -556 -52 -218 -86 -341 -90 -329 -4 10 -17 72 -29 138 -23 129 -57
308 -95 504 -13 69 -38 200 -56 293 l-31 167 -172 0 -171 0 -22 -108 c-34
-160 -62 -296 -83 -402 -10 -52 -35 -171 -55 -265 -20 -93 -43 -207 -52 -252
-8 -46 -19 -83 -23 -83 -4 0 -15 37 -24 83 -13 69 -111 525 -200 927 l-23 105
-168 3 -167 2 5 -22z"/>
<path d="M1270 1999 c0 -22 145 -220 237 -324 257 -287 582 -502 938 -620 124
-41 306 -85 351 -85 13 0 -14 33 -82 103 -246 250 -461 543 -609 828 l-49 96
-180 6 c-284 11 -606 9 -606 -4z"/>
<path d="M2250 1990 c0 -20 102 -197 179 -310 136 -199 265 -354 451 -540
l145 -145 9 493 c4 271 7 495 5 497 -2 1 -181 6 -396 10 -313 6 -393 5 -393
-5z"/>
<path d="M3206 1739 c-9 -361 -12 -739 -6 -739 9 0 106 86 180 160 131 130
266 283 376 425 36 48 204 302 204 310 0 3 11 23 25 45 l25 40 -107 0 c-60 0
-239 3 -399 7 l-292 6 -6 -254z"/>
<path d="M4156 1909 c-103 -202 -311 -497 -480 -678 -28 -30 -97 -102 -153
-160 -56 -58 -101 -107 -99 -109 7 -7 192 30 296 60 449 126 828 377 1119 741
74 91 145 196 138 203 -2 2 -179 7 -394 11 l-390 6 -37 -74z"/>
</g>
</svg>
