<?xml version="1.0" standalone="no"?>
<!DOCTYPE svg PUBLIC "-//W3C//DTD SVG 20010904//EN"
 "http://www.w3.org/TR/2001/REC-SVG-20010904/DTD/svg10.dtd">
<svg version="1.0" xmlns="http://www.w3.org/2000/svg"
 width="900.000000pt" height="520.000000pt" viewBox="0 0 900.000000 520.000000"
 preserveAspectRatio="xMidYMid meet">
<metadata>
Created by potrace 1.15, written by Peter Selinger 2001-2017
</metadata>
<g transform="translate(0.000000,520.000000) scale(0.100000,-0.100000)"
fill="#000000" stroke="none">
<path d="M4305 5194 c-378 -38 -670 -122 -982 -284 -607 -314 -1070 -869
-1272 -1525 -78 -254 -106 -452 -105 -750 0 -237 12 -353 54 -545 143 -643
534 -1212 1088 -1583 132 -88 388 -218 537 -273 129 -47 368 -107 520 -130
168 -25 542 -25 710 0 152 23 391 83 520 130 150 55 405 185 535 272 506 338
876 838 1044 1412 77 258 101 433 100 727 0 293 -28 488 -105 740 -250 811
-895 1456 -1704 1703 -238 73 -426 102 -695 107 -113 1 -223 1 -245 -1z m515
-270 c923 -127 1688 -814 1915 -1719 52 -207 69 -343 68 -565 0 -224 -17 -364
-68 -566 -209 -822 -851 -1463 -1670 -1669 -207 -52 -343 -69 -565 -68 -222 0
-361 16 -565 68 -763 191 -1380 768 -1626 1518 -81 245 -111 438 -112 712 -1
262 27 450 100 685 278 900 1084 1546 2023 1620 136 11 355 4 500 -16z"/>
<path d="M2802 3038 c-28 -51 -54 -100 -57 -109 -5 -13 43 -44 234 -150 133
-74 241 -136 241 -139 0 -3 -108 -65 -240 -138 -132 -74 -240 -136 -240 -139
0 -20 114 -214 124 -211 22 5 876 481 876 488 0 7 -853 482 -875 488 -6 1 -35
-39 -63 -90z"/>
<path d="M5693 2887 c-238 -132 -433 -243 -433 -247 0 -7 854 -483 875 -488
11 -3 125 189 125 209 0 4 -108 67 -240 141 -132 73 -240 135 -240 138 0 3
108 65 241 139 191 106 239 137 234 150 -17 45 -110 201 -119 200 -6 0 -206
-109 -443 -242z"/>
<path d="M4360 1773 c-186 -31 -371 -133 -481 -265 -88 -105 -148 -255 -149
-365 l0 -43 125 0 125 0 0 28 c0 43 35 136 69 186 140 203 457 274 698 156
142 -70 253 -218 253 -337 l0 -33 131 0 131 0 -6 48 c-22 158 -74 275 -171
380 -155 167 -364 254 -603 251 -54 -1 -108 -4 -122 -6z"/>
</g>
</svg>
