<?xml version="1.0" standalone="no"?>
<!DOCTYPE svg PUBLIC "-//W3C//DTD SVG 20010904//EN"
 "http://www.w3.org/TR/2001/REC-SVG-20010904/DTD/svg10.dtd">
<svg version="1.0" xmlns="http://www.w3.org/2000/svg"
 width="300.000000pt" height="300.000000pt" viewBox="0 0 300.000000 300.000000"
 preserveAspectRatio="xMidYMid meet">
<metadata>
Created by potrace 1.15, written by Peter Selinger 2001-2017
</metadata>
<g transform="translate(0.000000,300.000000) scale(0.100000,-0.100000)"
fill="#000000" stroke="none">
<path d="M1379 2790 c-294 -26 -548 -157 -624 -322 -78 -170 -13 -349 141
-394 107 -31 279 -1 351 61 l27 22 -28 64 c-34 75 -44 181 -26 249 25 93 129
160 226 145 174 -26 252 -311 163 -602 -45 -146 -99 -234 -289 -468 -159 -195
-203 -294 -204 -455 0 -89 3 -113 22 -156 45 -100 137 -158 252 -158 73 0 130
16 154 43 17 18 48 156 38 166 -3 3 -26 5 -51 5 -129 0 -169 127 -81 256 37
52 86 94 314 264 205 153 285 224 368 329 106 133 148 239 148 376 0 155 -51
275 -160 378 -72 68 -125 101 -223 141 -122 48 -335 71 -518 56z"/>
<path d="M1340 665 c-59 -19 -113 -65 -139 -118 -25 -51 -28 -150 -8 -200 78
-186 349 -194 433 -14 41 89 30 184 -32 255 -65 76 -164 106 -254 77z"/>
</g>
</svg>
