<?xml version="1.0" standalone="no"?>
<!DOCTYPE svg PUBLIC "-//W3C//DTD SVG 20010904//EN"
 "http://www.w3.org/TR/2001/REC-SVG-20010904/DTD/svg10.dtd">
<svg version="1.0" xmlns="http://www.w3.org/2000/svg"
 width="225.000000pt" height="225.000000pt" viewBox="0 0 225.000000 225.000000"
 preserveAspectRatio="xMidYMid meet">
<metadata>
Created by potrace 1.15, written by Peter Selinger 2001-2017
</metadata>
<g transform="translate(0.000000,225.000000) scale(0.100000,-0.100000)"
fill="#000000" stroke="none">
<path d="M0 1125 l0 -1125 1125 0 1125 0 0 1125 0 1125 -1125 0 -1125 0 0
-1125z m1385 1046 c413 -106 713 -422 800 -845 21 -103 21 -299 0 -402 -47
-226 -140 -400 -299 -560 -210 -210 -464 -315 -761 -315 -297 0 -551 105 -761
315 -210 210 -315 464 -315 761 0 500 329 921 816 1046 155 40 364 40 520 0z"/>
<path d="M631 1584 c-60 -50 -48 -147 23 -180 75 -36 156 16 156 101 0 93
-107 140 -179 79z"/>
<path d="M1391 1579 c-25 -25 -31 -39 -31 -74 0 -118 156 -157 206 -51 53 110
-89 212 -175 125z"/>
<path d="M1030 829 c-175 -27 -403 -136 -578 -277 -41 -32 -42 -35 -26 -53 16
-18 18 -17 73 26 143 112 305 195 459 237 111 30 280 30 385 0 135 -38 251
-104 379 -215 66 -56 71 -58 86 -42 16 16 13 20 -43 72 -73 67 -202 154 -279
188 -137 61 -315 86 -456 64z"/>
</g>
</svg>
