<?xml version="1.0" standalone="no"?>
<!DOCTYPE svg PUBLIC "-//W3C//DTD SVG 20010904//EN"
 "http://www.w3.org/TR/2001/REC-SVG-20010904/DTD/svg10.dtd">
<svg version="1.0" xmlns="http://www.w3.org/2000/svg"
 width="192.000000pt" height="240.000000pt" viewBox="0 0 192.000000 240.000000"
 preserveAspectRatio="xMidYMid meet">
<metadata>
Created by potrace 1.15, written by Peter Selinger 2001-2017
</metadata>
<g transform="translate(0.000000,240.000000) scale(0.100000,-0.100000)"
fill="#000000" stroke="none">
<path d="M1242 2256 c-55 -18 -114 -59 -147 -102 -25 -32 -77 -128 -81 -149
-1 -5 -7 -30 -13 -55 -6 -25 -11 -64 -11 -87 0 -48 -9 -52 -65 -29 -78 33 -66
114 22 160 48 25 48 25 16 26 -39 0 -90 -40 -109 -87 -12 -27 -12 -38 -1 -65
10 -27 10 -40 1 -68 -7 -19 -13 -69 -13 -110 -1 -114 44 -196 130 -240 47 -24
183 -60 228 -60 44 0 80 -19 41 -21 -14 -1 -31 -2 -38 -2 -7 1 -11 -1 -8 -4 3
-3 60 -7 127 -9 114 -4 154 -13 135 -31 -11 -12 -269 -15 -285 -4 -12 8 -13
12 -1 25 7 9 10 19 7 22 -9 9 -27 -6 -36 -30 -7 -17 -25 -25 -99 -40 -103 -20
-202 -63 -226 -97 -21 -31 -20 -68 4 -99 13 -17 20 -41 20 -76 0 -109 54 -215
145 -289 45 -36 50 -44 47 -74 -2 -19 4 -62 14 -97 16 -60 16 -66 0 -108 -10
-25 -42 -72 -71 -105 -73 -82 -80 -97 -64 -128 49 -91 379 -118 637 -52 86 22
128 53 118 87 -4 11 -32 49 -63 83 -31 35 -65 83 -76 108 -19 44 -19 46 -1
123 12 56 15 87 8 106 -8 23 -5 30 34 66 68 63 109 159 127 304 5 36 13 55 25
62 38 20 33 74 -9 108 -46 37 -161 82 -209 82 -18 0 -21 4 -17 23 8 30 -14 49
-68 58 l-42 6 41 2 c54 1 182 35 232 60 44 23 110 93 118 128 4 13 14 23 24
23 10 0 28 8 40 18 30 24 21 61 -18 83 -24 14 -30 25 -36 67 -3 27 -13 55 -21
62 -9 7 -12 22 -9 40 12 58 -53 137 -127 155 -18 4 -32 20 -47 51 -30 61 -108
143 -157 165 -58 25 -123 31 -173 15z m165 -35 c88 -41 171 -158 198 -285 7
-34 14 -50 14 -36 0 14 -3 42 -8 63 -10 41 -5 45 39 22 91 -47 94 -165 3 -165
-18 0 -33 -1 -33 -2 -2 -42 -45 -198 -64 -237 -106 -209 -316 -240 -447 -66
-133 176 -125 471 17 634 72 83 189 113 281 72z m-460 -421 c39 -12 39 -12 50
-80 14 -90 60 -187 120 -251 54 -58 56 -58 -62 -24 -122 35 -189 118 -190 235
0 86 12 143 30 137 7 -3 30 -11 52 -17z m797 3 c16 -58 17 -83 4 -83 -7 0 -21
9 -31 20 -9 11 -27 20 -39 19 l-23 0 22 -9 c12 -5 25 -16 31 -25 5 -10 33 -27
63 -39 54 -21 63 -33 36 -50 -21 -13 -62 0 -99 32 -18 16 -41 32 -51 35 -13 5
-16 13 -11 32 4 15 2 25 -5 25 -6 0 -11 7 -11 15 0 9 9 15 23 15 12 1 33 7 47
15 33 19 38 18 44 -2z m-49 -155 c11 -10 29 -24 39 -31 19 -14 19 -15 -7 -60
-35 -59 -66 -80 -162 -112 -97 -31 -120 -32 -81 -3 39 29 102 129 122 194 17
51 18 52 43 41 14 -7 35 -20 46 -29z m-125 -382 c94 -32 155 -78 148 -113 -8
-42 -169 -95 -348 -114 -103 -11 -366 5 -437 26 -133 40 -139 118 -13 172 82
35 191 48 396 48 167 -1 208 -4 254 -19z m90 -275 c-14 -85 -56 -177 -102
-223 -89 -88 -261 -130 -393 -94 -110 29 -216 109 -261 197 -21 43 -53 174
-43 183 2 2 38 -5 79 -15 115 -30 375 -37 509 -15 57 10 129 26 160 35 31 9
58 14 59 9 2 -5 -1 -39 -8 -77z m-143 -317 c3 -10 -2 -50 -12 -90 -28 -114
-24 -129 94 -279 41 -52 43 -56 27 -74 -52 -57 -393 -91 -560 -56 -76 16 -129
43 -134 67 -2 9 25 49 59 89 94 112 103 145 73 265 -11 41 -13 69 -7 75 6 6
31 1 69 -12 88 -31 208 -29 299 4 86 31 84 31 92 11z"/>
<path d="M1242 1233 c-164 -6 -112 -23 67 -23 258 0 347 -43 166 -80 -89 -19
-407 -15 -446 5 -41 22 -36 41 16 61 52 19 61 40 13 30 -38 -8 -77 -31 -85
-52 -8 -21 34 -62 76 -74 20 -5 107 -10 194 -10 163 0 290 17 335 46 31 20 28
50 -7 68 -34 18 -141 37 -191 34 -19 -1 -81 -4 -138 -5z"/>
<path d="M230 1719 c-23 -4 -4 -7 60 -8 101 -3 105 -5 25 -17 -46 -6 -48 -7
-24 -16 65 -22 75 -212 14 -240 -31 -14 -50 0 -65 48 -14 40 -6 56 13 30 7
-10 22 -16 33 -14 16 3 19 12 19 53 0 47 -1 49 -32 57 -32 8 -44 30 -23 43 15
9 12 25 -5 25 -9 0 -18 -7 -21 -15 -4 -8 -21 -22 -40 -31 -44 -21 -49 -68 -9
-86 17 -8 29 -24 36 -52 6 -23 18 -49 27 -59 8 -9 13 -19 11 -21 -9 -8 -100
22 -119 39 -49 44 -46 143 7 205 29 35 26 48 -6 28 -31 -19 -61 -87 -61 -137
0 -90 53 -144 155 -158 37 -5 45 -9 39 -22 -38 -88 -43 -144 -19 -191 8 -15
42 -45 75 -65 32 -20 69 -48 80 -62 24 -31 26 -86 5 -127 -9 -16 -13 -31 -11
-33 9 -9 312 -9 324 0 15 12 16 107 2 159 -6 20 -32 64 -58 99 -94 123 -96
128 -97 183 0 49 1 51 29 54 16 2 40 10 52 19 60 39 84 175 44 241 -35 56 -81
69 -265 74 -88 2 -176 1 -195 -3z m361 -29 c81 -23 118 -107 85 -195 -18 -45
-56 -85 -83 -85 -10 0 -8 8 8 30 31 41 30 132 -2 198 l-24 47 -65 6 -65 6 55
1 c30 1 71 -3 91 -8z m-13 -70 c31 -62 30 -133 -3 -165 -22 -23 -31 -25 -126
-25 -92 0 -101 1 -94 18 21 49 17 139 -10 205 -7 16 0 17 101 15 l109 -3 23
-45z m-36 -269 c-5 -68 7 -95 85 -195 59 -76 89 -156 79 -212 l-7 -34 -136 0
c-125 0 -135 1 -128 18 32 82 9 137 -84 196 -38 25 -75 55 -82 67 -18 35 -14
89 12 157 l24 62 121 -1 120 -1 -4 -57z"/>
</g>
</svg>
