<?xml version="1.0" standalone="no"?>
<!DOCTYPE svg PUBLIC "-//W3C//DTD SVG 20010904//EN"
 "http://www.w3.org/TR/2001/REC-SVG-20010904/DTD/svg10.dtd">
<svg version="1.0" xmlns="http://www.w3.org/2000/svg"
 width="321.000000pt" height="470.000000pt" viewBox="0 0 321.000000 470.000000"
 preserveAspectRatio="xMidYMid meet">
<metadata>
Created by potrace 1.15, written by Peter Selinger 2001-2017
</metadata>
<g transform="translate(0.000000,470.000000) scale(0.100000,-0.100000)"
fill="#000000" stroke="none">
<path d="M2373 4452 c-74 -59 -115 -112 -212 -272 -48 -80 -128 -214 -179
-299 -51 -84 -98 -173 -104 -197 -11 -40 -10 -45 11 -68 26 -28 205 -131 244
-141 53 -14 53 -24 -5 -215 -58 -191 -74 -224 -134 -275 -40 -35 -63 -65 -87
-116 l-32 -69 -47 0 -48 0 0 36 c0 19 -4 65 -9 102 -5 37 -15 123 -21 192 -6
69 -21 179 -32 245 -40 237 -94 345 -198 398 l-55 28 -52 207 c-29 114 -58
230 -65 257 -6 28 -19 59 -27 69 -28 33 -92 56 -159 56 -71 0 -124 -18 -165
-58 -55 -51 -59 -71 -67 -291 -5 -113 -6 -225 -3 -248 5 -38 3 -42 -24 -57
-51 -26 -91 -81 -115 -159 -21 -66 -23 -88 -21 -272 1 -110 9 -265 18 -345 18
-176 18 -170 1 -170 -25 0 -190 -51 -244 -75 -62 -29 -88 -56 -97 -105 -4 -19
-7 -181 -6 -360 2 -724 60 -1314 153 -1548 55 -140 245 -230 578 -274 332 -43
770 6 927 105 47 30 87 80 117 150 39 87 85 293 106 472 11 94 29 247 40 340
11 94 24 220 29 280 6 61 15 169 21 240 6 72 17 238 23 369 l12 240 -21 26
c-24 28 -95 63 -161 80 -49 12 -47 9 -29 70 10 34 11 63 4 121 -11 83 -4 117
59 319 51 160 73 200 141 256 53 43 65 59 93 129 18 44 35 85 39 90 4 6 31 66
60 135 29 69 75 170 102 225 26 55 48 105 48 112 0 17 -89 73 -115 73 -26 0
-82 57 -149 151 -31 44 -60 75 -72 77 -13 2 -41 -13 -71 -36z m-1224 -239 c6
-71 12 -167 14 -215 3 -75 1 -87 -14 -91 -19 -5 -23 29 -35 291 -6 123 -5 142
8 142 12 0 18 -26 27 -127z m1137 -8 c-3 -9 -11 -13 -18 -9 -8 5 -9 2 -5 -10
4 -10 1 -19 -8 -22 -8 -4 -15 -14 -15 -23 0 -9 -13 -37 -28 -62 -15 -24 -34
-59 -41 -77 -9 -22 -19 -31 -29 -27 -10 4 -12 0 -8 -11 7 -18 -17 -57 -29 -46
-5 4 -5 1 -1 -5 4 -7 2 -22 -4 -34 -11 -20 -12 -20 -26 -2 -14 16 -14 16 -2
-7 7 -14 11 -29 10 -33 -2 -8 -10 -48 -11 -58 -1 -4 -20 -19 -42 -34 -33 -21
-43 -24 -50 -13 -6 9 -9 7 -9 -8 0 -12 -7 -28 -17 -35 -15 -13 -16 -11 -10 12
4 15 21 49 39 76 18 28 38 59 45 69 10 16 13 17 22 4 6 -8 11 -10 11 -4 0 5
-5 15 -11 21 -8 8 -4 19 18 40 16 16 27 35 25 43 -3 7 2 18 10 24 8 6 15 15
16 21 0 5 6 11 13 14 7 2 9 -1 5 -8 -4 -6 -4 -11 1 -11 15 0 31 48 20 59 -15
15 19 61 46 62 17 1 18 2 5 6 -21 5 -24 23 -4 23 8 0 13 8 12 18 0 9 5 16 12
15 7 -2 12 7 12 20 0 12 8 33 17 47 l17 24 9 -22 c5 -11 7 -28 3 -37z m326
-26 c-2 -13 -15 -44 -29 -69 -13 -25 -48 -97 -78 -160 -29 -63 -62 -135 -73
-160 -12 -25 -31 -70 -42 -100 -12 -30 -39 -82 -59 -115 -66 -104 -201 -531
-208 -660 -3 -49 -13 -97 -25 -125 -11 -25 -28 -67 -38 -95 -29 -81 -60 -145
-70 -145 -14 0 -15 -3 34 112 59 138 64 167 34 201 -13 15 -33 28 -45 30 -38
5 -35 13 15 52 27 20 59 54 70 74 27 48 108 299 123 381 6 36 17 70 23 75 35
31 113 170 154 275 39 97 85 201 121 270 15 30 38 85 51 123 23 64 49 87 42
36z m78 14 c14 -9 27 -18 29 -19 2 -2 -3 -14 -12 -28 -9 -13 -50 -102 -92
-197 -42 -96 -85 -192 -96 -214 -10 -22 -27 -62 -37 -90 -11 -27 -23 -50 -28
-52 -5 -1 -20 6 -33 16 l-23 18 26 72 c14 40 69 160 121 267 52 108 95 203 95
213 0 34 15 38 50 14z m-1281 -444 c119 -19 165 -59 210 -184 24 -67 61 -241
61 -287 l0 -29 -97 7 c-184 12 -565 -27 -706 -73 -27 -8 -51 -12 -54 -9 -3 3
-6 77 -6 163 1 242 31 316 155 377 34 17 69 26 102 27 28 0 83 6 121 13 72 13
104 12 214 -5z m205 -548 c38 -3 71 -10 73 -16 2 -6 -69 -10 -199 -11 -235 0
-409 -24 -558 -74 -95 -32 -124 -32 -94 1 57 63 524 123 778 100z m40 -57 c27
-4 46 -12 46 -19 0 -10 -40 -13 -177 -13 -205 -1 -420 -27 -561 -69 -124 -36
-135 -38 -130 -22 9 27 214 89 363 108 141 19 373 26 459 15z m40 -54 c13 -13
36 -277 36 -412 l0 -147 -52 -6 c-29 -4 -125 -2 -213 4 -229 15 -439 31 -520
39 l-70 7 -3 40 c-1 22 -9 94 -17 160 -8 67 -15 141 -15 165 0 40 3 47 28 57
82 34 199 61 352 82 47 6 96 13 110 15 37 6 357 2 364 -4z m502 -7 c-23 -82
-26 -106 -16 -141 5 -20 10 -54 10 -75 0 -44 -94 -285 -118 -305 -36 -28 -30
12 23 141 45 111 55 146 55 194 0 65 29 203 43 203 4 0 6 -8 3 -17z m-1388
-360 c-2 -11 -22 -20 -63 -29 -97 -20 -147 -43 -143 -67 3 -18 16 -24 88 -38
47 -10 90 -18 97 -18 16 -1 44 -31 38 -40 -6 -11 -151 15 -191 34 -18 8 -38
15 -46 15 -19 0 -78 38 -78 50 0 15 93 55 194 85 98 29 108 30 104 8z m1464
-52 c78 -27 118 -49 118 -66 0 -26 -77 -66 -176 -91 -53 -14 -98 -23 -101 -20
-13 13 22 47 60 56 67 17 87 28 87 49 0 13 -13 25 -40 37 -38 17 -49 32 -33
47 10 11 26 8 85 -12z m-1749 -122 c24 -11 24 -14 30 -182 4 -95 9 -289 12
-432 10 -423 35 -710 86 -975 41 -214 78 -280 186 -337 131 -69 288 -93 605
-93 278 0 391 11 498 46 142 47 200 134 235 354 8 52 31 237 50 410 37 321 45
405 65 635 6 72 18 182 26 245 8 63 14 147 14 187 0 61 3 75 22 93 12 11 25
17 29 13 8 -8 -13 -414 -30 -593 -6 -58 -16 -159 -21 -225 -6 -66 -18 -163
-25 -215 -8 -52 -17 -133 -20 -180 -10 -131 -42 -328 -70 -442 -34 -134 -75
-218 -127 -262 -141 -121 -694 -171 -1047 -95 -183 40 -332 109 -377 176 -100
148 -174 833 -174 1596 0 158 2 287 5 287 2 0 15 -5 28 -11z m602 -24 c352
-27 418 -31 512 -31 80 1 93 -1 93 -15 0 -23 -18 -26 -160 -23 -238 5 -406 16
-535 35 -71 10 -136 19 -142 19 -7 0 -13 9 -13 20 0 16 5 19 23 16 12 -3 112
-12 222 -21z m-348 -49 c25 -3 47 -7 50 -10 6 -6 37 -208 53 -346 6 -52 22
-183 36 -290 50 -401 65 -617 53 -733 -5 -51 -8 -110 -7 -132 l3 -40 -94 -32
c-109 -37 -128 -50 -108 -77 12 -17 16 -17 43 -3 68 35 165 57 221 50 48 -5
63 -13 112 -56 136 -119 170 -130 267 -82 42 21 60 36 70 61 11 27 20 34 42
34 15 0 76 11 136 24 84 18 119 21 155 14 51 -9 178 -55 199 -71 9 -7 18 -6
29 6 15 15 15 18 0 34 -8 10 -45 29 -81 43 -36 13 -66 27 -66 31 0 3 24 14 54
23 30 10 60 24 67 32 12 15 4 75 -32 227 -23 98 -54 344 -69 542 -6 83 -12
173 -14 200 -3 42 4 70 49 180 63 155 78 188 85 195 4 3 17 33 29 67 22 59 24
62 64 68 23 4 72 15 109 25 37 10 70 15 73 10 3 -5 1 -49 -4 -97 -6 -48 -20
-198 -31 -333 -12 -135 -32 -339 -45 -455 -14 -115 -29 -257 -35 -315 -28
-275 -62 -465 -96 -531 -40 -80 -73 -105 -192 -146 -76 -27 -80 -27 -397 -31
-283 -3 -333 -1 -430 16 -273 48 -340 111 -391 363 -44 218 -92 685 -92 879 0
8 -3 169 -7 356 l-7 342 77 -19 c42 -10 97 -20 122 -23z m188 -31 c71 -13 87
-15 275 -30 102 -8 245 -15 319 -15 122 0 133 -1 128 -17 -31 -99 -191 -494
-321 -793 -53 -124 -42 -118 -230 -122 l-131 -3 -3 50 c-2 43 -35 334 -73 637
-6 47 -12 101 -14 120 -2 18 -8 65 -14 103 -14 90 -14 87 7 82 9 -3 35 -8 57
-12z m1045 -40 c0 -9 -7 -29 -15 -45 -68 -131 -253 -635 -470 -1275 -98 -287
-98 -289 -139 -308 -21 -10 -40 -16 -42 -14 -4 4 12 49 41 112 22 50 144 371
195 515 27 74 82 214 124 312 42 97 96 232 120 300 24 67 67 184 95 258 29 74
54 141 56 148 6 17 35 15 35 -3z m-70 -2 c0 -5 -23 -69 -51 -143 -28 -74 -75
-200 -104 -280 -29 -80 -81 -208 -115 -285 -34 -77 -82 -198 -107 -270 -44
-128 -134 -360 -216 -563 -22 -56 -46 -102 -52 -102 -31 0 -156 115 -149 135
9 21 14 19 59 -21 47 -42 84 -68 89 -63 3 2 32 78 66 169 33 91 70 188 82 215
11 28 34 82 50 120 30 72 130 335 193 510 36 99 63 166 156 380 26 61 55 131
64 158 10 26 22 47 26 47 5 0 9 -3 9 -7z m-87 -645 c3 -35 9 -95 13 -135 l6
-72 -53 -15 c-90 -27 -90 -27 -65 52 38 120 80 232 87 232 3 0 9 -28 12 -62z
m47 -426 c0 -20 11 -84 25 -142 13 -58 21 -108 17 -112 -7 -6 -185 -48 -294
-68 -29 -6 -61 -13 -70 -16 -29 -9 -22 28 35 186 59 163 37 142 192 179 44 10
83 16 88 14 4 -2 7 -21 7 -41z m-650 -30 c0 -23 -120 -297 -129 -296 -6 1 -31
2 -56 3 l-45 1 5 138 c4 97 9 138 18 140 6 1 53 6 102 11 50 4 93 9 98 10 4 0
7 -3 7 -7z"/>
</g>
</svg>
