<?xml version="1.0" standalone="no"?>
<!DOCTYPE svg PUBLIC "-//W3C//DTD SVG 20010904//EN"
 "http://www.w3.org/TR/2001/REC-SVG-20010904/DTD/svg10.dtd">
<svg version="1.0" xmlns="http://www.w3.org/2000/svg"
 width="200.000000pt" height="200.000000pt" viewBox="0 0 200.000000 200.000000"
 preserveAspectRatio="xMidYMid meet">
<metadata>
Created by potrace 1.15, written by Peter Selinger 2001-2017
</metadata>
<g transform="translate(0.000000,200.000000) scale(0.100000,-0.100000)"
fill="#000000" stroke="none">
<path d="M802 1771 c-272 -67 -502 -299 -572 -575 -25 -100 -27 -276 -4 -379
33 -146 120 -295 235 -401 l63 -58 -12 -44 c-23 -85 -10 -130 50 -174 47 -36
112 -35 161 3 19 15 38 27 41 27 3 0 19 -27 36 -60 35 -70 65 -94 106 -84 55
13 102 44 146 94 l45 51 17 -46 c19 -48 39 -65 78 -65 28 0 80 45 102 88 l16
32 33 -20 c50 -31 93 -26 134 15 l35 35 -7 80 -7 80 65 69 c113 120 180 240
211 378 23 103 21 279 -4 379 -70 279 -295 504 -574 574 -104 26 -289 26 -394
1z m382 -81 c186 -47 359 -186 451 -362 52 -98 75 -200 75 -328 0 -178 -49
-320 -158 -454 l-47 -58 -5 43 c-5 39 -11 47 -74 95 -82 63 -169 107 -251 129
-110 28 -316 14 -418 -30 -61 -25 -220 -115 -241 -135 -17 -16 -18 -23 -7 -65
7 -26 10 -49 7 -52 -11 -11 -122 139 -157 212 -55 115 -70 181 -70 315 0 136
15 202 71 315 89 183 261 325 452 375 102 26 269 27 372 0z m9 -1024 c67 -24
180 -91 210 -124 12 -13 16 -51 18 -167 4 -171 1 -178 -66 -125 -21 16 -47 30
-59 30 -35 0 -66 -28 -66 -59 0 -16 -9 -39 -19 -52 l-19 -24 -11 28 c-6 16
-11 34 -11 41 0 18 -38 56 -56 56 -30 0 -70 -29 -103 -75 -32 -45 -83 -85
-108 -85 -7 0 -26 27 -43 59 -30 60 -61 91 -90 91 -8 0 -39 -16 -67 -35 -62
-42 -72 -43 -103 -10 l-24 25 19 71 c13 52 16 86 11 132 -4 34 -8 73 -9 86 -2
22 11 31 110 82 126 64 174 76 318 78 82 0 112 -4 168 -23z"/>
<path d="M672 1400 c-48 -44 -120 -74 -200 -85 -44 -6 -53 -11 -58 -32 -4 -16
-1 -30 9 -41 37 -36 238 30 311 102 37 38 45 63 24 84 -20 20 -41 13 -86 -28z"/>
<path d="M1243 1433 c-7 -2 -13 -15 -13 -27 0 -67 136 -151 278 -171 58 -8 82
3 82 37 0 20 -52 48 -89 48 -41 0 -136 44 -176 81 -41 38 -55 43 -82 32z"/>
<path d="M552 1158 c-28 -28 -12 -49 94 -117 l106 -69 -91 -78 c-90 -77 -97
-87 -85 -118 13 -35 53 -16 161 76 59 51 111 97 116 102 20 28 -3 52 -128 132
-133 85 -152 93 -173 72z"/>
<path d="M1275 1087 c-103 -66 -131 -88 -133 -107 -2 -21 17 -42 112 -122 114
-97 142 -112 166 -83 19 23 3 46 -85 120 -47 39 -85 72 -85 75 0 3 47 35 105
73 105 67 121 87 93 115 -21 21 -41 13 -173 -71z"/>
<path d="M740 563 c-36 -13 -60 -47 -60 -84 0 -51 8 -67 41 -84 43 -23 77 -18
110 14 49 50 37 121 -26 147 -37 15 -42 15 -65 7z"/>
</g>
</svg>
