<?xml version="1.0" standalone="no"?>
<!DOCTYPE svg PUBLIC "-//W3C//DTD SVG 20010904//EN"
 "http://www.w3.org/TR/2001/REC-SVG-20010904/DTD/svg10.dtd">
<svg version="1.0" xmlns="http://www.w3.org/2000/svg"
 width="240.000000pt" height="240.000000pt" viewBox="0 0 240.000000 240.000000"
 preserveAspectRatio="xMidYMid meet">
<metadata>
Created by potrace 1.15, written by Peter Selinger 2001-2017
</metadata>
<g transform="translate(0.000000,240.000000) scale(0.100000,-0.100000)"
fill="#000000" stroke="none">
<path d="M0 1200 l0 -1200 1200 0 1200 0 0 1200 0 1200 -1200 0 -1200 0 0
-1200z m1055 688 c22 -20 37 -65 100 -303 41 -153 81 -285 89 -293 19 -20 36
-7 36 27 0 16 -14 123 -30 237 -38 260 -39 277 -16 303 24 27 70 27 94 1 13
-14 39 -119 92 -365 42 -196 81 -358 92 -375 20 -34 47 -39 71 -12 8 9 38 73
66 142 28 69 61 133 72 143 29 24 71 22 96 -5 33 -37 34 -54 7 -135 -13 -43
-42 -143 -63 -223 -80 -297 -150 -415 -285 -480 -200 -95 -407 -73 -524 55
-42 46 -56 75 -121 251 -52 140 -102 251 -168 374 -52 96 -97 187 -100 203
-12 58 62 90 104 45 11 -13 60 -94 108 -180 86 -154 110 -183 122 -153 3 9
-39 133 -93 276 -94 249 -98 262 -83 287 8 15 27 31 42 36 40 14 73 -15 106
-94 167 -398 173 -410 192 -410 12 0 19 7 19 19 0 11 -31 137 -70 281 -38 144
-70 276 -70 294 0 32 18 57 50 69 27 10 39 7 65 -15z"/>
</g>
</svg>
