<?xml version="1.0" standalone="no"?>
<!DOCTYPE svg PUBLIC "-//W3C//DTD SVG 20010904//EN"
 "http://www.w3.org/TR/2001/REC-SVG-20010904/DTD/svg10.dtd">
<svg version="1.0" xmlns="http://www.w3.org/2000/svg"
 width="512.000000pt" height="512.000000pt" viewBox="0 0 512.000000 512.000000"
 preserveAspectRatio="xMidYMid meet">
<metadata>
Created by potrace 1.15, written by Peter Selinger 2001-2017
</metadata>
<g transform="translate(0.000000,512.000000) scale(0.100000,-0.100000)"
fill="#000000" stroke="none">
<path d="M1677 4403 c-4 -3 -7 -98 -7 -210 l0 -203 120 0 120 0 0 210 0 210
-113 0 c-63 0 -117 -3 -120 -7z"/>
<path d="M1088 4216 c-48 -28 -90 -55 -94 -59 -6 -6 181 -343 195 -351 5 -3
118 58 189 101 9 6 -14 55 -90 186 -56 97 -105 177 -108 176 -3 0 -44 -24 -92
-53z"/>
<path d="M2387 4248 c-8 -13 -47 -79 -87 -148 -40 -69 -81 -139 -92 -157 l-19
-32 58 -30 c32 -16 75 -41 96 -55 21 -14 41 -26 45 -26 6 0 102 160 189 316
l22 40 -62 36 c-34 20 -79 45 -99 57 l-37 22 -14 -23z"/>
<path d="M579 3718 c-23 -40 -48 -84 -56 -96 -8 -13 -13 -25 -11 -27 21 -21
353 -204 356 -196 2 6 27 50 57 98 29 49 50 91 47 95 -10 10 -336 198 -344
198 -4 0 -26 -33 -49 -72z"/>
<path d="M1648 3780 c-284 -51 -524 -259 -621 -538 -26 -76 -31 -104 -35 -222
-4 -116 -1 -149 17 -220 29 -116 86 -230 160 -323 l63 -77 -30 -35 c-75 -85
-127 -215 -138 -341 -9 -105 15 -223 64 -324 48 -99 168 -221 262 -267 136
-66 58 -63 1421 -63 1196 0 1238 1 1313 20 248 63 452 267 517 517 27 106 27
260 0 366 -44 171 -160 330 -311 428 l-77 50 -6 92 c-15 240 -126 476 -304
648 -131 127 -259 201 -438 255 -82 25 -105 28 -265 28 -153 1 -186 -2 -260
-22 -169 -46 -383 -171 -483 -281 l-36 -40 -35 48 c-94 128 -265 242 -431 287
-69 18 -277 27 -347 14z m271 -245 c144 -34 292 -147 359 -273 18 -34 31 -65
29 -70 -3 -4 -42 -8 -86 -10 -203 -7 -417 -105 -558 -255 -96 -101 -159 -215
-210 -377 -7 -23 -122 103 -160 176 -44 83 -63 162 -63 266 0 358 339 625 689
543z m1473 -10 c311 -66 558 -325 608 -638 12 -74 9 -223 -6 -288 -5 -25 -3
-27 39 -33 59 -9 172 -65 226 -112 164 -142 209 -400 105 -595 -45 -84 -130
-163 -221 -207 l-78 -37 -1235 -3 c-1143 -2 -1238 -1 -1282 15 -160 57 -268
238 -241 399 15 86 47 149 108 209 59 60 126 95 198 104 l51 6 13 75 c42 255
207 444 440 504 76 20 221 20 293 1 30 -8 56 -15 56 -15 1 0 7 21 13 47 71
280 322 515 612 572 70 14 228 12 301 -4z"/>
<path d="M387 3104 c-4 -4 -7 -56 -7 -116 l0 -108 203 0 202 0 -1 112 -1 113
-194 3 c-108 1 -198 -1 -202 -4z"/>
<path d="M705 2494 c-83 -47 -160 -92 -173 -100 l-23 -15 32 -57 c18 -31 44
-76 59 -99 l26 -43 177 102 176 102 -20 31 c-11 16 -37 60 -57 97 -20 37 -39
68 -42 68 -3 0 -73 -39 -155 -86z"/>
<path d="M1897 765 c-97 -195 -177 -357 -177 -360 0 -3 55 -5 123 -5 l122 0
178 355 c97 195 177 357 177 360 0 3 -55 5 -123 5 l-122 0 -178 -355z"/>
<path d="M2377 765 c-97 -195 -177 -357 -177 -360 0 -3 55 -5 123 -5 l122 0
178 355 c97 195 177 357 177 360 0 3 -55 5 -123 5 l-122 0 -178 -355z"/>
<path d="M2857 765 c-97 -195 -177 -357 -177 -360 0 -3 55 -5 123 -5 l122 0
178 355 c97 195 177 357 177 360 0 3 -55 5 -123 5 l-122 0 -178 -355z"/>
<path d="M3337 765 c-97 -195 -177 -357 -177 -360 0 -3 55 -5 123 -5 l122 0
178 355 c97 195 177 357 177 360 0 3 -55 5 -123 5 l-122 0 -178 -355z"/>
</g>
</svg>
